<svg xmlns="http://www.w3.org/2000/svg" xmlns:xlink="http://www.w3.org/1999/xlink" width="236.45" height="185.64" viewBox="0 0 236.45 185.64"><defs><style>.cls-1{opacity:0.28;}.cls-2{fill:url(#linear-gradient);}.cls-3{fill:url(#linear-gradient-2);}.cls-4{fill:url(#linear-gradient-3);}.cls-5{fill:url(#linear-gradient-4);}.cls-6{fill:url(#linear-gradient-5);}.cls-7{fill:url(#linear-gradient-6);}.cls-8{fill:url(#linear-gradient-7);}.cls-9{fill:url(#linear-gradient-9);}.cls-10{fill:url(#linear-gradient-10);}.cls-11{fill:url(#linear-gradient-11);}.cls-12{fill:url(#linear-gradient-16);}.cls-13{fill:url(#linear-gradient-18);}.cls-14{fill:url(#linear-gradient-19);}.cls-15{fill:url(#linear-gradient-28);}.cls-16{fill:url(#linear-gradient-29);}.cls-17{fill:url(#linear-gradient-30);}.cls-18{fill:url(#linear-gradient-31);}.cls-19{fill:url(#linear-gradient-32);}.cls-20{fill:url(#linear-gradient-33);}</style><linearGradient id="linear-gradient" x1="-407.27" y1="9.92" x2="-407.27" y2="131.98" gradientTransform="translate(419)" gradientUnits="userSpaceOnUse"><stop offset="0" stop-color="#f48120"/><stop offset="1" stop-color="#fff" stop-opacity="0"/></linearGradient><linearGradient id="linear-gradient-2" x1="-367.54" y1="9.92" x2="-367.54" y2="131.98" xlink:href="#linear-gradient"/><linearGradient id="linear-gradient-3" x1="-315.05" y1="9.92" x2="-315.05" y2="131.98" xlink:href="#linear-gradient"/><linearGradient id="linear-gradient-4" x1="-344.46" y1="9.92" x2="-344.46" y2="131.98" xlink:href="#linear-gradient"/><linearGradient id="linear-gradient-5" x1="-226.26" y1="9.92" x2="-226.26" y2="131.98" xlink:href="#linear-gradient"/><linearGradient id="linear-gradient-6" x1="-256.25" y1="9.92" x2="-256.25" y2="131.98" xlink:href="#linear-gradient"/><linearGradient id="linear-gradient-7" x1="-285.65" y1="9.92" x2="-285.65" y2="131.98" xlink:href="#linear-gradient"/><linearGradient id="linear-gradient-9" x1="-373.86" y1="9.92" x2="-373.86" y2="131.98" xlink:href="#linear-gradient"/><linearGradient id="linear-gradient-10" x1="-197.45" y1="9.92" x2="-197.45" y2="131.98" xlink:href="#linear-gradient"/><linearGradient id="linear-gradient-11" x1="-227.64" y1="9.92" x2="-227.64" y2="131.98" xlink:href="#linear-gradient"/><linearGradient id="linear-gradient-16" x1="-226.85" y1="9.92" x2="-226.85" y2="131.98" xlink:href="#linear-gradient"/><linearGradient id="linear-gradient-18" x1="-398.24" y1="9.92" x2="-398.24" y2="131.98" xlink:href="#linear-gradient"/><linearGradient id="linear-gradient-19" x1="-400.13" y1="9.92" x2="-400.13" y2="131.98" xlink:href="#linear-gradient"/><linearGradient id="linear-gradient-28" x1="-315.88" y1="9.92" x2="-315.88" y2="131.98" xlink:href="#linear-gradient"/><linearGradient id="linear-gradient-29" x1="-269.94" y1="9.92" x2="-269.94" y2="131.98" xlink:href="#linear-gradient"/><linearGradient id="linear-gradient-30" x1="-334.24" y1="9.92" x2="-334.24" y2="131.98" xlink:href="#linear-gradient"/><linearGradient id="linear-gradient-31" x1="-301.15" y1="9.92" x2="-301.15" y2="131.98" xlink:href="#linear-gradient"/><linearGradient id="linear-gradient-32" x1="-241.46" y1="9.92" x2="-241.46" y2="131.98" xlink:href="#linear-gradient"/><linearGradient id="linear-gradient-33" x1="-358.41" y1="9.92" x2="-358.41" y2="131.98" xlink:href="#linear-gradient"/></defs><title>bg-brain-graphic-color</title><g id="Layer_2" data-name="Layer 2"><g id="Layer_1-2" data-name="Layer 1"><g id="_Group_" data-name="&lt;Group&gt;"><g id="_Group_2" data-name="&lt;Group&gt;" class="cls-1"><path id="_Path_" data-name="&lt;Path&gt;" class="cls-2" d="M0,121.66c0,5.86,5.28,10.66,11.73,10.66s11.73-4.8,11.73-10.66S18.19,111,11.73,111,0,115.79,0,121.66Z"/><path id="_Path_2" data-name="&lt;Path&gt;" class="cls-3" d="M45.14,138.06c0,3.16,2.84,5.74,6.32,5.74s6.32-2.58,6.32-5.74-2.84-5.74-6.32-5.74S45.14,134.9,45.14,138.06Z"/><path id="_Path_3" data-name="&lt;Path&gt;" class="cls-4" d="M90.58,144.47c0,6.68,6,12.14,13.36,12.14s13.36-5.46,13.36-12.14-6-12.14-13.36-12.14S90.58,137.79,90.58,144.47Z"/><path id="_Path_4" data-name="&lt;Path&gt;" class="cls-5" d="M63.85,144.47c0,5.34,4.81,9.72,10.69,9.72s10.69-4.37,10.69-9.72-4.81-9.72-10.69-9.72S63.85,139.12,63.85,144.47Z"/><path id="_Path_5" data-name="&lt;Path&gt;" class="cls-6" d="M184.43,118.1c0,4.15,3.74,7.55,8.31,7.55s8.31-3.4,8.31-7.55-3.74-7.55-8.31-7.55S184.43,114,184.43,118.1Z"/><path id="_Path_6" data-name="&lt;Path&gt;" class="cls-7" d="M149.52,117.75c0,6.61,6,12,13.23,12s13.23-5.41,13.23-12-6-12-13.23-12S149.52,111.14,149.52,117.75Z"/><path id="_Path_7" data-name="&lt;Path&gt;" class="cls-8" d="M123.51,117.75c0,4.92,4.43,8.94,9.84,8.94s9.84-4,9.84-8.94-4.43-8.94-9.84-8.94S123.51,112.83,123.51,117.75Z"/><path id="_Path_8" data-name="&lt;Path&gt;" class="cls-5" d="M64.33,117.75c0,5.1,4.6,9.28,10.21,9.28s10.21-4.18,10.21-9.28-4.6-9.28-10.21-9.28S64.33,112.65,64.33,117.75Z"/><path id="_Path_9" data-name="&lt;Path&gt;" class="cls-9" d="M31.4,117.75c0,6.87,6.19,12.49,13.75,12.49s13.75-5.62,13.75-12.49-6.19-12.49-13.75-12.49S31.4,110.88,31.4,117.75Z"/><path id="_Path_10" data-name="&lt;Path&gt;" class="cls-10" d="M206.65,91c0,7.44,6.7,13.54,14.9,13.54s14.9-6.09,14.9-13.54-6.7-13.54-14.9-13.54S206.65,83.59,206.65,91Z"/><path id="_Path_11" data-name="&lt;Path&gt;" class="cls-11" d="M179.28,91.39c0,6,5.43,11,12.08,11s12.08-4.94,12.08-11-5.43-11-12.08-11S179.28,85.36,179.28,91.39Z"/><path id="_Path_12" data-name="&lt;Path&gt;" class="cls-7" d="M150,91.39c0,6.38,5.75,11.6,12.77,11.6s12.77-5.22,12.77-11.6-5.75-11.6-12.77-11.6S150,85,150,91.39Z"/><path id="_Path_13" data-name="&lt;Path&gt;" class="cls-4" d="M93.18,91c0,5.38,4.85,9.79,10.77,9.79s10.77-4.4,10.77-9.79-4.85-9.79-10.77-9.79S93.18,85.65,93.18,91Z"/><path id="_Path_14" data-name="&lt;Path&gt;" class="cls-5" d="M63.81,91c0,5.37,4.83,9.76,10.74,9.76S85.28,96.4,85.28,91s-4.83-9.76-10.74-9.76S63.81,85.67,63.81,91Z"/><path id="_Path_15" data-name="&lt;Path&gt;" class="cls-10" d="M212,64.32c0,4.76,4.29,8.66,9.53,8.66s9.53-3.9,9.53-8.66-4.29-8.66-9.53-8.66S212,59.55,212,64.32Z"/><path id="_Path_16" data-name="&lt;Path&gt;" class="cls-12" d="M180.63,64.32c0,5.76,5.18,10.47,11.52,10.47s11.52-4.71,11.52-10.47-5.18-10.47-11.52-10.47S180.63,58.56,180.63,64.32Z"/><path id="_Path_17" data-name="&lt;Path&gt;" class="cls-8" d="M123.73,64.32c0,4.8,4.33,8.74,9.61,8.74S143,69.12,143,64.32s-4.33-8.74-9.61-8.74S123.73,59.51,123.73,64.32Z"/><path id="_Path_18" data-name="&lt;Path&gt;" class="cls-13" d="M11.73,76.76c0,4.51,4.06,8.2,9,8.2s9-3.69,9-8.2-4.06-8.2-9-8.2S11.73,72.25,11.73,76.76Z"/><path id="_Path_19" data-name="&lt;Path&gt;" class="cls-14" d="M11.73,97.83c0,3.57,3.21,6.48,7.14,6.48S26,101.4,26,97.83s-3.21-6.48-7.14-6.48S11.73,94.27,11.73,97.83Z"/><path id="_Path_20" data-name="&lt;Path&gt;" class="cls-9" d="M33.9,64.32c0,5.62,5.06,10.21,11.24,10.21s11.24-4.6,11.24-10.21S51.33,54.1,45.14,54.1,33.9,58.7,33.9,64.32Z"/><path id="_Path_21" data-name="&lt;Path&gt;" class="cls-10" d="M211.46,37.6c0,5,4.54,9.17,10.09,9.17s10.09-4.13,10.09-9.17-4.54-9.17-10.09-9.17S211.46,32.56,211.46,37.6Z"/><path id="_Path_22" data-name="&lt;Path&gt;" class="cls-7" d="M151.14,37.6c0,5.8,5.22,10.54,11.6,10.54s11.6-4.74,11.6-10.54-5.22-10.54-11.6-10.54S151.14,31.8,151.14,37.6Z"/><path id="_Path_23" data-name="&lt;Path&gt;" class="cls-4" d="M93.51,37.6c0,5.21,4.69,9.48,10.43,9.48s10.43-4.27,10.43-9.48-4.69-9.48-10.43-9.48S93.51,32.39,93.51,37.6Z"/><path id="_Path_24" data-name="&lt;Path&gt;" class="cls-9" d="M34.83,37.6c0,5.15,4.64,9.37,10.31,9.37s10.31-4.22,10.31-9.37-4.64-9.37-10.31-9.37S34.83,32.45,34.83,37.6Z"/><path id="_Path_25" data-name="&lt;Path&gt;" class="cls-12" d="M180.17,10.89c0,6,5.39,10.89,12,10.89s12-4.9,12-10.89S198.74,0,192.15,0,180.17,4.9,180.17,10.89Z"/><path id="_Path_26" data-name="&lt;Path&gt;" class="cls-8" d="M121.58,10.89c0,5.88,5.3,10.7,11.77,10.7s11.77-4.81,11.77-10.7S139.82.19,133.35.19,121.58,5,121.58,10.89Z"/><path id="_Path_27" data-name="&lt;Path&gt;" class="cls-4" d="M93.77,10.89c0,5.08,4.58,9.24,10.17,9.24s10.17-4.16,10.17-9.24-4.58-9.24-10.17-9.24S93.77,5.8,93.77,10.89Z"/><path id="_Path_28" data-name="&lt;Path&gt;" class="cls-15" d="M145.62,37.6c0-6.14-5.52-11.16-12.28-11.16s-12.28,5-12.28,11.16c0,.08,0,.16,0,.25h0C121.33,49.13,113.56,55,104,55.32c-9.49-.45-16.12-4.42-15.56-17.19l0,0c0-.18,0-.36,0-.55,0-7-6.26-12.65-13.92-12.65S60.62,30.64,60.62,37.6s6.26,12.65,13.92,12.65c.4,0,.8,0,1.19-.06l-.32.31c13.89-.81,18.27,5.41,18.87,14.38h0c.32,4.58,4.53,8.24,9.65,8.24s9.44-3.76,9.66-8.42h0c.41-9,7.78-16.35,20-15.87l-.09-.08C140.22,48.64,145.62,43.67,145.62,37.6Z"/><path id="_Path_29" data-name="&lt;Path&gt;" class="cls-16" d="M162.75,54.51c-5.94,0-10.8,4.41-10.8,9.81,0,.05,0,.1,0,.15l0,0c.15,10-10,18.32-18.73,18.43l.19.18h-.07c-4.83,0-8.78,3.59-8.78,8s3.95,8,8.78,8,8.59-3.45,8.75-7.71l0,0c.31-8.14,9.46-17.34,20.25-17l-.28-.27c.22,0,.44.06.67.06,5.94,0,10.8-4.41,10.8-9.81S168.69,54.51,162.75,54.51Z"/><path id="_Path_30" data-name="&lt;Path&gt;" class="cls-17" d="M64.88,142.49a9.92,9.92,0,0,0,7.78,12l.16,0h0c10.54,2.19,16.89,13.23,15,21.18l.23-.13,0,.06a8.07,8.07,0,0,0,6.32,9.77,8.75,8.75,0,0,0,10.39-6.08,8,8,0,0,0-6.05-9.69l0,0c-8.46-2.17-16-12.56-13.11-22.22l-.35.19c.07-.2.17-.38.22-.59a9.92,9.92,0,0,0-7.78-12A10.76,10.76,0,0,0,64.88,142.49Z"/><path id="_Path_31" data-name="&lt;Path&gt;" class="cls-18" d="M133.15,134.76c-10.7-.08-17-5.5-16.92-16.91h0s0-.07,0-.1c0-6.14-5.53-11.16-12.29-11.16s-12.29,5-12.29,11.16,5.53,11.16,12.29,11.16c.22,0,0,0,0,0,12.28-.34,18.38,5.9,18.7,15.83h0c.17,5.21,4.91,9.43,10.68,9.43s10.7-4.38,10.7-9.72-4.81-9.72-10.7-9.72Z"/><path id="_Path_32" data-name="&lt;Path&gt;" class="cls-19" d="M192.15,27.39l-.4,0,.25-.24c-11.24.14-18.06-6.16-18.21-16.42h0c-.08-5.46-5-9.91-11-9.91s-11,4.52-11,10,5,10,11,10l.34,0-.25.23c11-.09,18,6.11,18.07,16.55h0c.05,5.58,5.08,10.13,11.23,10.13s11.24-4.6,11.24-10.21S198.33,27.39,192.15,27.39Z"/><path id="_Path_33" data-name="&lt;Path&gt;" class="cls-20" d="M74.55,53.25c-6.7,0-12.18,5-12.18,11.07,0,0,0,.06,0,.09h0c.09,11.31-6.62,16.64-17.3,16.71l.23.22h-.15c-5.88,0-10.68,4.37-10.68,9.71s4.81,9.71,10.68,9.71,10.5-4.22,10.67-9.43h0c.31-9.92,6.19-16,18.37-15.7l-.28-.27.63,0c6.7,0,12.18-5,12.18-11.07S81.24,53.25,74.55,53.25Z"/></g></g></g></g></svg>