<svg xmlns="http://www.w3.org/2000/svg" xmlns:xlink="http://www.w3.org/1999/xlink" width="2560" height="7700.86" viewBox="0 0 2560 7700.86"><defs><style>.cls-1{fill:#6d6e71;}.cls-2{opacity:0.2;}.cls-3{opacity:0.28;}.cls-4{fill:url(#linear-gradient);}.cls-5{fill:url(#linear-gradient-2);}.cls-6{fill:url(#linear-gradient-3);}.cls-7{fill:url(#linear-gradient-4);}.cls-8{fill:url(#linear-gradient-5);}.cls-9{fill:url(#linear-gradient-6);}.cls-10{fill:url(#linear-gradient-7);}.cls-11{fill:url(#linear-gradient-9);}.cls-12{fill:url(#linear-gradient-10);}.cls-13{fill:url(#linear-gradient-11);}.cls-14{fill:url(#linear-gradient-14);}.cls-15{fill:url(#linear-gradient-16);}.cls-16{fill:url(#linear-gradient-17);}.cls-17{fill:url(#linear-gradient-18);}.cls-18{fill:url(#linear-gradient-19);}.cls-19{fill:url(#linear-gradient-28);}.cls-20{fill:url(#linear-gradient-29);}.cls-21{fill:url(#linear-gradient-30);}.cls-22{fill:url(#linear-gradient-31);}.cls-23{fill:url(#linear-gradient-32);}.cls-24{fill:url(#linear-gradient-33);}.cls-25{fill:url(#linear-gradient-34);}.cls-26{fill:url(#linear-gradient-35);}.cls-27{fill:url(#linear-gradient-36);}.cls-28{fill:url(#linear-gradient-37);}.cls-29{fill:url(#linear-gradient-38);}.cls-30{fill:url(#linear-gradient-39);}.cls-31{fill:url(#linear-gradient-40);}.cls-32{fill:url(#linear-gradient-42);}.cls-33{fill:url(#linear-gradient-43);}.cls-34{fill:url(#linear-gradient-44);}.cls-35{fill:url(#linear-gradient-49);}.cls-36{fill:url(#linear-gradient-51);}.cls-37{fill:url(#linear-gradient-52);}.cls-38{fill:url(#linear-gradient-55);}.cls-39{fill:url(#linear-gradient-61);}.cls-40{fill:url(#linear-gradient-62);}.cls-41{fill:url(#linear-gradient-63);}.cls-42{fill:url(#linear-gradient-64);}.cls-43{fill:url(#linear-gradient-65);}.cls-44{fill:url(#linear-gradient-66);}.cls-45{fill:url(#linear-gradient-67);}.cls-46{fill:url(#linear-gradient-68);}.cls-47{fill:url(#linear-gradient-69);}.cls-48{fill:url(#linear-gradient-70);}.cls-49{fill:url(#linear-gradient-71);}.cls-50{fill:url(#linear-gradient-72);}.cls-51{fill:url(#linear-gradient-73);}.cls-52{fill:url(#linear-gradient-75);}.cls-53{fill:url(#linear-gradient-76);}.cls-54{fill:url(#linear-gradient-77);}.cls-55{fill:url(#linear-gradient-82);}.cls-56{fill:url(#linear-gradient-83);}.cls-57{fill:url(#linear-gradient-84);}.cls-58{fill:url(#linear-gradient-85);}.cls-59{fill:url(#linear-gradient-94);}.cls-60{fill:url(#linear-gradient-95);}.cls-61{fill:url(#linear-gradient-96);}.cls-62{fill:url(#linear-gradient-97);}.cls-63{fill:url(#linear-gradient-98);}.cls-64{fill:url(#linear-gradient-99);}</style><linearGradient id="linear-gradient" x1="66.27" y1="998.6" x2="66.27" y2="1358.08" gradientTransform="translate(419)" gradientUnits="userSpaceOnUse"><stop offset="0.06" stop-color="#fff"/><stop offset="1" stop-color="#fff" stop-opacity="0"/></linearGradient><linearGradient id="linear-gradient-2" x1="183.26" y1="998.6" x2="183.26" y2="1358.08" xlink:href="#linear-gradient"/><linearGradient id="linear-gradient-3" x1="337.83" y1="998.6" x2="337.83" y2="1358.08" xlink:href="#linear-gradient"/><linearGradient id="linear-gradient-4" x1="251.25" y1="998.6" x2="251.25" y2="1358.08" xlink:href="#linear-gradient"/><linearGradient id="linear-gradient-5" x1="599.33" y1="998.6" x2="599.33" y2="1358.08" xlink:href="#linear-gradient"/><linearGradient id="linear-gradient-6" x1="511" y1="998.6" x2="511" y2="1358.08" xlink:href="#linear-gradient"/><linearGradient id="linear-gradient-7" x1="424.41" y1="998.6" x2="424.41" y2="1358.08" xlink:href="#linear-gradient"/><linearGradient id="linear-gradient-9" x1="164.66" y1="998.6" x2="164.66" y2="1358.08" xlink:href="#linear-gradient"/><linearGradient id="linear-gradient-10" x1="684.17" y1="998.6" x2="684.17" y2="1358.08" xlink:href="#linear-gradient"/><linearGradient id="linear-gradient-11" x1="595.25" y1="998.6" x2="595.25" y2="1358.08" xlink:href="#linear-gradient"/><linearGradient id="linear-gradient-14" x1="251.25" y1="998.6" x2="251.25" y2="1358.08" xlink:href="#linear-gradient"/><linearGradient id="linear-gradient-16" x1="597.58" y1="998.6" x2="597.58" y2="1358.08" xlink:href="#linear-gradient"/><linearGradient id="linear-gradient-17" x1="424.41" y1="998.6" x2="424.41" y2="1358.08" xlink:href="#linear-gradient"/><linearGradient id="linear-gradient-18" x1="92.86" y1="998.6" x2="92.86" y2="1358.08" xlink:href="#linear-gradient"/><linearGradient id="linear-gradient-19" x1="87.29" y1="998.6" x2="87.29" y2="1358.08" xlink:href="#linear-gradient"/><linearGradient id="linear-gradient-28" x1="335.41" y1="998.6" x2="335.41" y2="1358.08" xlink:href="#linear-gradient"/><linearGradient id="linear-gradient-29" x1="470.68" y1="998.6" x2="470.68" y2="1358.08" xlink:href="#linear-gradient"/><linearGradient id="linear-gradient-30" x1="281.32" y1="998.6" x2="281.32" y2="1358.08" xlink:href="#linear-gradient"/><linearGradient id="linear-gradient-31" x1="378.79" y1="998.6" x2="378.79" y2="1358.08" xlink:href="#linear-gradient"/><linearGradient id="linear-gradient-32" x1="554.57" y1="998.6" x2="554.57" y2="1358.08" xlink:href="#linear-gradient"/><linearGradient id="linear-gradient-33" x1="210.16" y1="998.6" x2="210.16" y2="1358.08" xlink:href="#linear-gradient"/><linearGradient id="linear-gradient-34" x1="1087.27" y1="3510.82" x2="1087.27" y2="3870.3" xlink:href="#linear-gradient"/><linearGradient id="linear-gradient-35" x1="1204.26" y1="3510.82" x2="1204.26" y2="3870.3" xlink:href="#linear-gradient"/><linearGradient id="linear-gradient-36" x1="1358.83" y1="3510.82" x2="1358.83" y2="3870.3" xlink:href="#linear-gradient"/><linearGradient id="linear-gradient-37" x1="1272.25" y1="3510.82" x2="1272.25" y2="3870.3" xlink:href="#linear-gradient"/><linearGradient id="linear-gradient-38" x1="1620.33" y1="3510.82" x2="1620.33" y2="3870.3" xlink:href="#linear-gradient"/><linearGradient id="linear-gradient-39" x1="1532" y1="3510.82" x2="1532" y2="3870.3" xlink:href="#linear-gradient"/><linearGradient id="linear-gradient-40" x1="1445.42" y1="3510.82" x2="1445.42" y2="3870.3" xlink:href="#linear-gradient"/><linearGradient id="linear-gradient-42" x1="1185.66" y1="3510.82" x2="1185.66" y2="3870.3" xlink:href="#linear-gradient"/><linearGradient id="linear-gradient-43" x1="1705.17" y1="3510.82" x2="1705.17" y2="3870.3" xlink:href="#linear-gradient"/><linearGradient id="linear-gradient-44" x1="1616.25" y1="3510.82" x2="1616.25" y2="3870.3" xlink:href="#linear-gradient"/><linearGradient id="linear-gradient-49" x1="1618.58" y1="3510.82" x2="1618.58" y2="3870.3" xlink:href="#linear-gradient"/><linearGradient id="linear-gradient-51" x1="1113.86" y1="3510.82" x2="1113.86" y2="3870.3" xlink:href="#linear-gradient"/><linearGradient id="linear-gradient-52" x1="1108.29" y1="3510.82" x2="1108.29" y2="3870.3" xlink:href="#linear-gradient"/><linearGradient id="linear-gradient-55" x1="1532" y1="3510.82" x2="1532" y2="3870.3" xlink:href="#linear-gradient"/><linearGradient id="linear-gradient-61" x1="1356.41" y1="3510.82" x2="1356.41" y2="3870.3" xlink:href="#linear-gradient"/><linearGradient id="linear-gradient-62" x1="1491.68" y1="3510.82" x2="1491.68" y2="3870.3" xlink:href="#linear-gradient"/><linearGradient id="linear-gradient-63" x1="1302.32" y1="3510.82" x2="1302.32" y2="3870.3" xlink:href="#linear-gradient"/><linearGradient id="linear-gradient-64" x1="1399.79" y1="3510.82" x2="1399.79" y2="3870.3" xlink:href="#linear-gradient"/><linearGradient id="linear-gradient-65" x1="1575.58" y1="3510.82" x2="1575.58" y2="3870.3" xlink:href="#linear-gradient"/><linearGradient id="linear-gradient-66" x1="1231.16" y1="3510.82" x2="1231.16" y2="3870.3" xlink:href="#linear-gradient"/><linearGradient id="linear-gradient-67" x1="414.43" y1="6211.59" x2="414.43" y2="6571.07" xlink:href="#linear-gradient"/><linearGradient id="linear-gradient-68" x1="531.42" y1="6211.59" x2="531.42" y2="6571.07" xlink:href="#linear-gradient"/><linearGradient id="linear-gradient-69" x1="685.99" y1="6211.59" x2="685.99" y2="6571.07" xlink:href="#linear-gradient"/><linearGradient id="linear-gradient-70" x1="599.4" y1="6211.59" x2="599.4" y2="6571.07" xlink:href="#linear-gradient"/><linearGradient id="linear-gradient-71" x1="947.48" y1="6211.59" x2="947.48" y2="6571.07" xlink:href="#linear-gradient"/><linearGradient id="linear-gradient-72" x1="859.16" y1="6211.59" x2="859.16" y2="6571.07" xlink:href="#linear-gradient"/><linearGradient id="linear-gradient-73" x1="772.57" y1="6211.59" x2="772.57" y2="6571.07" xlink:href="#linear-gradient"/><linearGradient id="linear-gradient-75" x1="512.82" y1="6211.59" x2="512.82" y2="6571.07" xlink:href="#linear-gradient"/><linearGradient id="linear-gradient-76" x1="1032.33" y1="6211.59" x2="1032.33" y2="6571.07" xlink:href="#linear-gradient"/><linearGradient id="linear-gradient-77" x1="943.41" y1="6211.59" x2="943.41" y2="6571.07" xlink:href="#linear-gradient"/><linearGradient id="linear-gradient-82" x1="945.74" y1="6211.59" x2="945.74" y2="6571.07" xlink:href="#linear-gradient"/><linearGradient id="linear-gradient-83" x1="772.57" y1="6211.59" x2="772.57" y2="6571.07" xlink:href="#linear-gradient"/><linearGradient id="linear-gradient-84" x1="441.02" y1="6211.59" x2="441.02" y2="6571.07" xlink:href="#linear-gradient"/><linearGradient id="linear-gradient-85" x1="435.45" y1="6211.59" x2="435.45" y2="6571.07" xlink:href="#linear-gradient"/><linearGradient id="linear-gradient-94" x1="683.57" y1="6211.59" x2="683.57" y2="6571.07" xlink:href="#linear-gradient"/><linearGradient id="linear-gradient-95" x1="818.84" y1="6211.59" x2="818.84" y2="6571.07" xlink:href="#linear-gradient"/><linearGradient id="linear-gradient-96" x1="629.48" y1="6211.59" x2="629.48" y2="6571.07" xlink:href="#linear-gradient"/><linearGradient id="linear-gradient-97" x1="726.95" y1="6211.59" x2="726.95" y2="6571.07" xlink:href="#linear-gradient"/><linearGradient id="linear-gradient-98" x1="902.73" y1="6211.59" x2="902.73" y2="6571.07" xlink:href="#linear-gradient"/><linearGradient id="linear-gradient-99" x1="558.32" y1="6211.59" x2="558.32" y2="6571.07" xlink:href="#linear-gradient"/></defs><title>bg-brain-schedule</title><g id="Layer_2" data-name="Layer 2"><g id="Layer_1-2" data-name="Layer 1"><polygon id="_Path_" data-name="&lt;Path&gt;" class="cls-1" points="2560 7700.86 0 7700.86 0 0 2555.61 256.81 2560 7700.86"/><g id="_Group_" data-name="&lt;Group&gt;" class="cls-2"><g id="_Group_2" data-name="&lt;Group&gt;" class="cls-3"><path id="_Path_2" data-name="&lt;Path&gt;" class="cls-4" d="M450.72,1327.67c0,17.27,15.55,31.4,34.56,31.4s34.56-14.13,34.56-31.4-15.55-31.4-34.56-31.4S450.72,1310.4,450.72,1327.67Z"/><path id="_Path_3" data-name="&lt;Path&gt;" class="cls-5" d="M583.66,1376c0,9.29,8.37,16.9,18.6,16.9s18.6-7.6,18.6-16.9-8.37-16.9-18.6-16.9S583.66,1366.68,583.66,1376Z"/><path id="_Path_4" data-name="&lt;Path&gt;" class="cls-6" d="M717.47,1394.84c0,19.67,17.71,35.76,39.36,35.76s39.36-16.09,39.36-35.76-17.71-35.76-39.36-35.76S717.47,1375.17,717.47,1394.84Z"/><path id="_Path_5" data-name="&lt;Path&gt;" class="cls-7" d="M638.76,1394.84c0,15.74,14.17,28.61,31.49,28.61s31.49-12.88,31.49-28.61-14.17-28.61-31.49-28.61S638.76,1379.1,638.76,1394.84Z"/><path id="_Path_6" data-name="&lt;Path&gt;" class="cls-8" d="M993.86,1317.2c0,12.23,11,22.23,24.46,22.23s24.46-10,24.46-22.23-11-22.23-24.46-22.23S993.86,1305,993.86,1317.2Z"/><path id="_Path_7" data-name="&lt;Path&gt;" class="cls-9" d="M891,1316.16c0,19.48,17.54,35.41,39,35.41s39-15.93,39-35.41-17.54-35.41-39-35.41S891,1296.69,891,1316.16Z"/><path id="_Path_8" data-name="&lt;Path&gt;" class="cls-10" d="M814.43,1316.16c0,14.49,13,26.34,29,26.34s29-11.85,29-26.34-13-26.34-29-26.34S814.43,1301.68,814.43,1316.16Z"/><path id="_Path_9" data-name="&lt;Path&gt;" class="cls-7" d="M640.17,1316.16c0,15,13.53,27.33,30.07,27.33s30.07-12.3,30.07-27.33-13.53-27.33-30.07-27.33S640.17,1301.13,640.17,1316.16Z"/><path id="_Path_10" data-name="&lt;Path&gt;" class="cls-11" d="M543.17,1316.16c0,20.24,18.22,36.79,40.49,36.79s40.49-16.56,40.49-36.79-18.22-36.79-40.49-36.79S543.17,1295.93,543.17,1316.16Z"/><path id="_Path_11" data-name="&lt;Path&gt;" class="cls-12" d="M1059.3,1237.48c0,21.92,19.74,39.86,43.87,39.86s43.87-17.94,43.87-39.86-19.74-39.86-43.87-39.86S1059.3,1215.56,1059.3,1237.48Z"/><path id="_Path_12" data-name="&lt;Path&gt;" class="cls-13" d="M978.69,1238.54c0,17.77,16,32.32,35.57,32.32s35.57-14.54,35.57-32.32-16-32.32-35.57-32.32S978.69,1220.77,978.69,1238.54Z"/><path id="_Path_13" data-name="&lt;Path&gt;" class="cls-9" d="M892.4,1238.54c0,18.79,16.92,34.17,37.6,34.17s37.6-15.38,37.6-34.17-16.92-34.17-37.6-34.17S892.4,1219.75,892.4,1238.54Z"/><path id="_Path_14" data-name="&lt;Path&gt;" class="cls-6" d="M725.12,1237.48c0,15.85,14.27,28.82,31.71,28.82s31.71-13,31.71-28.82-14.27-28.82-31.71-28.82S725.12,1221.63,725.12,1237.48Z"/><path id="_Path_15" data-name="&lt;Path&gt;" class="cls-14" d="M638.62,1237.48c0,15.8,14.23,28.73,31.62,28.73s31.62-12.93,31.62-28.73-14.23-28.73-31.62-28.73S638.62,1221.68,638.62,1237.48Z"/><path id="_Path_16" data-name="&lt;Path&gt;" class="cls-12" d="M1075.09,1158.81c0,14,12.63,25.51,28.07,25.51s28.07-11.48,28.07-25.51-12.63-25.51-28.07-25.51S1075.09,1144.78,1075.09,1158.81Z"/><path id="_Path_17" data-name="&lt;Path&gt;" class="cls-15" d="M982.66,1158.81c0,17,15.27,30.83,33.92,30.83s33.92-13.87,33.92-30.83-15.27-30.83-33.92-30.83S982.66,1141.85,982.66,1158.81Z"/><path id="_Path_18" data-name="&lt;Path&gt;" class="cls-16" d="M815.1,1158.81c0,14.15,12.74,25.73,28.31,25.73s28.31-11.58,28.31-25.73-12.74-25.73-28.31-25.73S815.1,1144.66,815.1,1158.81Z"/><path id="_Path_19" data-name="&lt;Path&gt;" class="cls-17" d="M485.27,1195.45c0,13.29,12,24.16,26.58,24.16s26.58-10.87,26.58-24.16-12-24.16-26.58-24.16S485.27,1182.16,485.27,1195.45Z"/><path id="_Path_20" data-name="&lt;Path&gt;" class="cls-18" d="M485.27,1257.51c0,10.5,9.46,19.09,21,19.09s21-8.59,21-19.09-9.46-19.09-21-19.09S485.27,1247,485.27,1257.51Z"/><path id="_Path_21" data-name="&lt;Path&gt;" class="cls-11" d="M550.56,1158.81c0,16.55,14.9,30.08,33.11,30.08s33.11-13.54,33.11-30.08-14.9-30.08-33.11-30.08S550.56,1142.26,550.56,1158.81Z"/><path id="_Path_22" data-name="&lt;Path&gt;" class="cls-12" d="M1073.44,1080.13c0,14.86,13.38,27,29.73,27s29.73-12.16,29.73-27-13.38-27-29.73-27S1073.44,1065.27,1073.44,1080.13Z"/><path id="_Path_23" data-name="&lt;Path&gt;" class="cls-9" d="M895.83,1080.13c0,17.08,15.38,31.05,34.17,31.05s34.17-14,34.17-31.05-15.38-31.05-34.17-31.05S895.83,1063.05,895.83,1080.13Z"/><path id="_Path_24" data-name="&lt;Path&gt;" class="cls-6" d="M726.11,1080.13c0,15.35,13.83,27.92,30.72,27.92s30.72-12.56,30.72-27.92-13.83-27.92-30.72-27.92S726.11,1064.78,726.11,1080.13Z"/><path id="_Path_25" data-name="&lt;Path&gt;" class="cls-11" d="M553.29,1080.13c0,15.18,13.67,27.6,30.37,27.6s30.37-12.42,30.37-27.6-13.67-27.6-30.37-27.6S553.29,1065,553.29,1080.13Z"/><path id="_Path_26" data-name="&lt;Path&gt;" class="cls-15" d="M981.3,1001.45c0,17.63,15.88,32.06,35.28,32.06s35.28-14.43,35.28-32.06S1036,969.4,1016.58,969.4,981.3,983.82,981.3,1001.45Z"/><path id="_Path_27" data-name="&lt;Path&gt;" class="cls-10" d="M808.75,1001.45c0,17.33,15.6,31.5,34.67,31.5s34.67-14.18,34.67-31.5S862.48,970,843.41,970,808.75,984.13,808.75,1001.45Z"/><path id="_Path_28" data-name="&lt;Path&gt;" class="cls-6" d="M726.88,1001.45c0,15,13.48,27.22,30,27.22s30-12.25,30-27.22-13.48-27.22-30-27.22S726.88,986.48,726.88,1001.45Z"/><path id="_Path_29" data-name="&lt;Path&gt;" class="cls-19" d="M879.57,1080.13c0-18.07-16.27-32.85-36.16-32.85s-36.16,14.78-36.16,32.85c0,.25,0,.48,0,.73l0,0c.75,33.25-22.11,50.62-50.24,51.48-27.95-1.31-47.47-13-45.82-50.62l-.06.05c0-.54.09-1.07.09-1.61,0-20.49-18.45-37.25-41-37.25s-41,16.76-41,37.25,18.45,37.25,41,37.25c1.18,0,2.35-.07,3.51-.16l-.95.9c40.91-2.38,53.8,15.93,55.58,42.34l0,0c.93,13.49,13.33,24.28,28.41,24.28,15.27,0,27.8-11.07,28.44-24.81l0,0c1.21-26.44,22.92-48.16,59-46.74l-.27-.23C863.66,1112.63,879.57,1098,879.57,1080.13Z"/><path id="_Path_30" data-name="&lt;Path&gt;" class="cls-20" d="M930,1129.92c-17.49,0-31.79,13-31.79,28.89,0,.15,0,.3.05.45l0,0c.44,29.52-29.31,53.94-55.15,54.27l.56.53-.2,0c-14.22,0-25.85,10.57-25.85,23.49S829.2,1261,843.41,1261c13.92,0,25.29-10.16,25.76-22.71l.07.07c.91-24,27.86-51.07,59.63-50l-.84-.79c.66,0,1.29.18,2,.18,17.49,0,31.79-13,31.79-28.89S947.48,1129.92,930,1129.92Z"/><path id="_Path_31" data-name="&lt;Path&gt;" class="cls-21" d="M641.78,1389c-4,15.79,6.26,31.73,22.9,35.41.16,0,.32,0,.48.06l-.06,0c31,6.44,49.73,39,44.09,62.38l.68-.38c0,.06-.05.12-.07.18-3.29,12.84,5.09,25.79,18.62,28.79s27.3-5.07,30.59-17.91c3.22-12.58-4.78-25.2-17.82-28.53l.09,0c-24.92-6.38-47.05-37-38.6-65.45l-1,.57c.19-.59.49-1.12.64-1.73,4-15.79-6.26-31.73-22.9-35.41S645.83,1373.22,641.78,1389Z"/><path id="_Path_32" data-name="&lt;Path&gt;" class="cls-22" d="M842.84,1366.24c-31.51-.25-50.13-16.21-49.83-49.8h0c0-.1,0-.2,0-.3,0-18.08-16.28-32.88-36.18-32.88s-36.18,14.79-36.18,32.88S736.93,1349,756.83,1349c.65,0,0,.05,0,.05,36.16-1,54.12,17.38,55.07,46.63l0,0c.5,15.36,14.45,27.78,31.46,27.78,17.33,0,31.51-12.88,31.51-28.63s-14.18-28.63-31.51-28.63Z"/><path id="_Path_33" data-name="&lt;Path&gt;" class="cls-23" d="M1016.58,1050.06c-.4,0-.79,0-1.18.05l.75-.71c-33.09.4-53.2-18.14-53.62-48.35l0,0C962.28,985,947.75,971.9,930,971.9s-32.53,13.3-32.53,29.56S912.11,1031,930,1031c.34,0,.67,0,1,0l-.73.69c32.53-.26,52.93,18,53.21,48.73h0c.15,16.43,15,29.83,33.08,29.83s33.1-13.53,33.1-30.07S1034.79,1050.06,1016.58,1050.06Z"/><path id="_Path_34" data-name="&lt;Path&gt;" class="cls-24" d="M670.25,1126.21c-19.73,0-35.87,14.67-35.87,32.59,0,.09,0,.17,0,.26h0c.27,33.31-19.49,49-50.95,49.22l.68.64-.45,0c-17.3,0-31.46,12.86-31.46,28.59s14.16,28.59,31.46,28.59c17,0,30.93-12.43,31.42-27.77l0,0c.91-29.2,18.24-47.2,54.1-46.23l-.83-.78c.62,0,1.24.09,1.87.09,19.73,0,35.87-14.67,35.87-32.59S690,1126.21,670.25,1126.21Z"/></g></g><g id="_Group_3" data-name="&lt;Group&gt;" class="cls-2"><g id="_Group_4" data-name="&lt;Group&gt;" class="cls-3"><path id="_Path_35" data-name="&lt;Path&gt;" class="cls-25" d="M1471.72,3839.89c0,17.27,15.55,31.4,34.56,31.4s34.56-14.13,34.56-31.4-15.55-31.4-34.56-31.4S1471.72,3822.62,1471.72,3839.89Z"/><path id="_Path_36" data-name="&lt;Path&gt;" class="cls-26" d="M1604.66,3888.19c0,9.29,8.37,16.9,18.6,16.9s18.6-7.6,18.6-16.9-8.37-16.9-18.6-16.9S1604.66,3878.9,1604.66,3888.19Z"/><path id="_Path_37" data-name="&lt;Path&gt;" class="cls-27" d="M1738.48,3907.06c0,19.67,17.71,35.76,39.36,35.76s39.36-16.09,39.36-35.76-17.71-35.76-39.36-35.76S1738.48,3887.39,1738.48,3907.06Z"/><path id="_Path_38" data-name="&lt;Path&gt;" class="cls-28" d="M1659.76,3907.06c0,15.74,14.17,28.61,31.49,28.61s31.49-12.88,31.49-28.61-14.17-28.61-31.49-28.61S1659.76,3891.32,1659.76,3907.06Z"/><path id="_Path_39" data-name="&lt;Path&gt;" class="cls-29" d="M2014.86,3829.42c0,12.23,11,22.23,24.46,22.23s24.46-10,24.46-22.23-11-22.23-24.46-22.23S2014.86,3817.19,2014.86,3829.42Z"/><path id="_Path_40" data-name="&lt;Path&gt;" class="cls-30" d="M1912,3828.38c0,19.48,17.54,35.41,39,35.41s39-15.93,39-35.41-17.54-35.41-39-35.41S1912,3808.91,1912,3828.38Z"/><path id="_Path_41" data-name="&lt;Path&gt;" class="cls-31" d="M1835.43,3828.38c0,14.49,13,26.34,29,26.34s29-11.85,29-26.34-13-26.34-29-26.34S1835.43,3813.9,1835.43,3828.38Z"/><path id="_Path_42" data-name="&lt;Path&gt;" class="cls-28" d="M1661.17,3828.38c0,15,13.53,27.33,30.07,27.33s30.07-12.3,30.07-27.33-13.53-27.33-30.07-27.33S1661.17,3813.35,1661.17,3828.38Z"/><path id="_Path_43" data-name="&lt;Path&gt;" class="cls-32" d="M1564.17,3828.38c0,20.24,18.22,36.79,40.49,36.79s40.49-16.56,40.49-36.79-18.22-36.79-40.49-36.79S1564.17,3808.15,1564.17,3828.38Z"/><path id="_Path_44" data-name="&lt;Path&gt;" class="cls-33" d="M2080.3,3749.7c0,21.92,19.74,39.86,43.87,39.86s43.87-17.94,43.87-39.86-19.74-39.86-43.87-39.86S2080.3,3727.78,2080.3,3749.7Z"/><path id="_Path_45" data-name="&lt;Path&gt;" class="cls-34" d="M1999.69,3750.76c0,17.77,16,32.32,35.57,32.32s35.57-14.54,35.57-32.32-16-32.32-35.57-32.32S1999.69,3733,1999.69,3750.76Z"/><path id="_Path_46" data-name="&lt;Path&gt;" class="cls-30" d="M1913.4,3750.76c0,18.79,16.92,34.17,37.6,34.17s37.6-15.38,37.6-34.17-16.92-34.17-37.6-34.17S1913.4,3732,1913.4,3750.76Z"/><path id="_Path_47" data-name="&lt;Path&gt;" class="cls-27" d="M1746.12,3749.7c0,15.85,14.27,28.82,31.71,28.82s31.71-13,31.71-28.82-14.27-28.82-31.71-28.82S1746.12,3733.85,1746.12,3749.7Z"/><path id="_Path_48" data-name="&lt;Path&gt;" class="cls-28" d="M1659.63,3749.7c0,15.8,14.23,28.73,31.62,28.73s31.62-12.93,31.62-28.73-14.23-28.73-31.62-28.73S1659.63,3733.9,1659.63,3749.7Z"/><path id="_Path_49" data-name="&lt;Path&gt;" class="cls-33" d="M2096.09,3671c0,14,12.63,25.51,28.07,25.51s28.07-11.48,28.07-25.51-12.63-25.51-28.07-25.51S2096.09,3657,2096.09,3671Z"/><path id="_Path_50" data-name="&lt;Path&gt;" class="cls-35" d="M2003.66,3671c0,17,15.27,30.83,33.92,30.83s33.92-13.87,33.92-30.83-15.27-30.83-33.92-30.83S2003.66,3654.07,2003.66,3671Z"/><path id="_Path_51" data-name="&lt;Path&gt;" class="cls-31" d="M1836.1,3671c0,14.15,12.74,25.73,28.31,25.73s28.31-11.58,28.31-25.73-12.74-25.73-28.31-25.73S1836.1,3656.88,1836.1,3671Z"/><path id="_Path_52" data-name="&lt;Path&gt;" class="cls-36" d="M1506.28,3707.67c0,13.29,12,24.16,26.58,24.16s26.58-10.87,26.58-24.16-12-24.16-26.58-24.16S1506.28,3694.38,1506.28,3707.67Z"/><path id="_Path_53" data-name="&lt;Path&gt;" class="cls-37" d="M1506.28,3769.73c0,10.5,9.46,19.09,21,19.09s21-8.59,21-19.09-9.46-19.09-21-19.09S1506.28,3759.23,1506.28,3769.73Z"/><path id="_Path_54" data-name="&lt;Path&gt;" class="cls-32" d="M1571.56,3671c0,16.55,14.9,30.08,33.11,30.08s33.11-13.54,33.11-30.08-14.9-30.08-33.11-30.08S1571.56,3654.48,1571.56,3671Z"/><path id="_Path_55" data-name="&lt;Path&gt;" class="cls-33" d="M2094.44,3592.35c0,14.86,13.38,27,29.73,27s29.73-12.16,29.73-27-13.38-27-29.73-27S2094.44,3577.49,2094.44,3592.35Z"/><path id="_Path_56" data-name="&lt;Path&gt;" class="cls-38" d="M1916.83,3592.35c0,17.08,15.38,31.05,34.17,31.05s34.17-14,34.17-31.05-15.38-31.05-34.17-31.05S1916.83,3575.27,1916.83,3592.35Z"/><path id="_Path_57" data-name="&lt;Path&gt;" class="cls-27" d="M1747.11,3592.35c0,15.35,13.83,27.92,30.72,27.92s30.72-12.56,30.72-27.92-13.83-27.92-30.72-27.92S1747.11,3577,1747.11,3592.35Z"/><path id="_Path_58" data-name="&lt;Path&gt;" class="cls-32" d="M1574.29,3592.35c0,15.18,13.67,27.6,30.37,27.6s30.37-12.42,30.37-27.6-13.67-27.6-30.37-27.6S1574.29,3577.17,1574.29,3592.35Z"/><path id="_Path_59" data-name="&lt;Path&gt;" class="cls-35" d="M2002.31,3513.67c0,17.63,15.88,32.06,35.28,32.06s35.28-14.43,35.28-32.06-15.88-32.06-35.28-32.06S2002.31,3496,2002.31,3513.67Z"/><path id="_Path_60" data-name="&lt;Path&gt;" class="cls-31" d="M1829.75,3513.67c0,17.33,15.6,31.5,34.67,31.5s34.67-14.18,34.67-31.5-15.6-31.5-34.67-31.5S1829.75,3496.35,1829.75,3513.67Z"/><path id="_Path_61" data-name="&lt;Path&gt;" class="cls-27" d="M1747.88,3513.67c0,15,13.48,27.22,30,27.22s30-12.25,30-27.22-13.48-27.22-30-27.22S1747.88,3498.7,1747.88,3513.67Z"/><path id="_Path_62" data-name="&lt;Path&gt;" class="cls-39" d="M1900.57,3592.35c0-18.07-16.27-32.85-36.16-32.85s-36.16,14.78-36.16,32.85c0,.25,0,.48,0,.73l0,0c.75,33.25-22.11,50.62-50.24,51.48-27.95-1.31-47.47-13-45.82-50.62l-.06.05c0-.54.09-1.07.09-1.61,0-20.49-18.45-37.25-41-37.25s-41,16.76-41,37.25,18.45,37.25,41,37.25c1.18,0,2.35-.07,3.51-.16l-.95.9c40.91-2.38,53.8,15.93,55.58,42.34l0,0c.93,13.49,13.33,24.28,28.41,24.28,15.27,0,27.8-11.07,28.44-24.81l0,0c1.21-26.44,22.92-48.16,59-46.74l-.27-.23C1884.66,3624.85,1900.57,3610.22,1900.57,3592.35Z"/><path id="_Path_63" data-name="&lt;Path&gt;" class="cls-40" d="M1951,3642.14c-17.49,0-31.79,13-31.79,28.89,0,.15,0,.3.05.45l0,0c.44,29.52-29.31,53.94-55.15,54.27l.56.53-.2,0c-14.22,0-25.85,10.57-25.85,23.49s11.63,23.49,25.85,23.49c13.92,0,25.29-10.16,25.76-22.71l.07.07c.91-24,27.86-51.07,59.63-50l-.84-.79c.66,0,1.29.18,2,.18,17.49,0,31.79-13,31.79-28.89S1968.49,3642.14,1951,3642.14Z"/><path id="_Path_64" data-name="&lt;Path&gt;" class="cls-41" d="M1662.78,3901.24c-4,15.79,6.26,31.73,22.9,35.41.16,0,.32,0,.48.06l-.06,0c31,6.44,49.73,39,44.09,62.38l.68-.38c0,.06-.05.12-.07.18-3.29,12.84,5.09,25.79,18.62,28.79s27.3-5.07,30.59-17.91c3.22-12.58-4.78-25.2-17.82-28.53l.09,0c-24.92-6.38-47.05-37-38.6-65.45l-1,.57c.19-.59.49-1.12.64-1.73,4-15.79-6.26-31.73-22.9-35.41S1666.83,3885.44,1662.78,3901.24Z"/><path id="_Path_65" data-name="&lt;Path&gt;" class="cls-42" d="M1863.84,3878.46c-31.51-.25-50.13-16.21-49.83-49.8h0c0-.1,0-.2,0-.3,0-18.08-16.28-32.88-36.18-32.88s-36.18,14.79-36.18,32.88,16.28,32.87,36.18,32.87c.65,0,0,.05,0,.05,36.16-1,54.12,17.38,55.07,46.63l0,0c.5,15.36,14.45,27.78,31.46,27.78,17.33,0,31.51-12.88,31.51-28.63s-14.18-28.63-31.51-28.63Z"/><path id="_Path_66" data-name="&lt;Path&gt;" class="cls-43" d="M2037.58,3562.28c-.4,0-.79,0-1.18.05l.75-.71c-33.09.4-53.2-18.14-53.62-48.35l0,0c-.23-16.08-14.76-29.18-32.51-29.18s-32.53,13.3-32.53,29.56,14.64,29.56,32.53,29.56c.34,0,.67,0,1,0l-.73.69c32.53-.26,52.93,18,53.21,48.73h0c.15,16.43,15,29.83,33.08,29.83s33.1-13.53,33.1-30.07S2055.79,3562.28,2037.58,3562.28Z"/><path id="_Path_67" data-name="&lt;Path&gt;" class="cls-44" d="M1691.25,3638.43c-19.73,0-35.87,14.67-35.87,32.59,0,.09,0,.17,0,.26h0c.27,33.31-19.49,49-50.95,49.22l.68.64-.45,0c-17.3,0-31.46,12.86-31.46,28.59s14.16,28.59,31.46,28.59c17,0,30.93-12.43,31.42-27.77l0,0c.91-29.2,18.24-47.2,54.1-46.23l-.83-.78c.62,0,1.24.09,1.87.09,19.73,0,35.87-14.67,35.87-32.59S1711,3638.43,1691.25,3638.43Z"/></g></g><g id="_Group_5" data-name="&lt;Group&gt;" class="cls-2"><g id="_Group_6" data-name="&lt;Group&gt;" class="cls-3"><path id="_Path_68" data-name="&lt;Path&gt;" class="cls-45" d="M798.88,6540.67c0,17.27,15.55,31.4,34.56,31.4s34.56-14.13,34.56-31.4-15.55-31.4-34.56-31.4S798.88,6523.39,798.88,6540.67Z"/><path id="_Path_69" data-name="&lt;Path&gt;" class="cls-46" d="M931.82,6589c0,9.29,8.37,16.9,18.6,16.9s18.6-7.6,18.6-16.9-8.37-16.9-18.6-16.9S931.82,6579.67,931.82,6589Z"/><path id="_Path_70" data-name="&lt;Path&gt;" class="cls-47" d="M1065.63,6607.83c0,19.67,17.71,35.76,39.36,35.76s39.36-16.09,39.36-35.76-17.71-35.76-39.36-35.76S1065.63,6588.16,1065.63,6607.83Z"/><path id="_Path_71" data-name="&lt;Path&gt;" class="cls-48" d="M986.92,6607.83c0,15.74,14.17,28.61,31.49,28.61s31.49-12.88,31.49-28.61-14.17-28.61-31.49-28.61S986.92,6592.09,986.92,6607.83Z"/><path id="_Path_72" data-name="&lt;Path&gt;" class="cls-49" d="M1342,6530.19c0,12.23,11,22.23,24.46,22.23s24.46-10,24.46-22.23-11-22.23-24.46-22.23S1342,6518,1342,6530.19Z"/><path id="_Path_73" data-name="&lt;Path&gt;" class="cls-50" d="M1239.19,6529.15c0,19.48,17.54,35.41,39,35.41s39-15.93,39-35.41-17.54-35.41-39-35.41S1239.19,6509.68,1239.19,6529.15Z"/><path id="_Path_74" data-name="&lt;Path&gt;" class="cls-51" d="M1162.59,6529.15c0,14.49,13,26.34,29,26.34s29-11.85,29-26.34-13-26.34-29-26.34S1162.59,6514.67,1162.59,6529.15Z"/><path id="_Path_75" data-name="&lt;Path&gt;" class="cls-48" d="M988.33,6529.15c0,15,13.53,27.33,30.07,27.33s30.07-12.3,30.07-27.33-13.53-27.33-30.07-27.33S988.33,6514.12,988.33,6529.15Z"/><path id="_Path_76" data-name="&lt;Path&gt;" class="cls-52" d="M891.33,6529.15c0,20.24,18.22,36.79,40.49,36.79s40.49-16.56,40.49-36.79-18.22-36.79-40.49-36.79S891.33,6508.92,891.33,6529.15Z"/><path id="_Path_77" data-name="&lt;Path&gt;" class="cls-53" d="M1407.46,6450.48c0,21.92,19.74,39.86,43.87,39.86s43.87-17.94,43.87-39.86-19.74-39.86-43.87-39.86S1407.46,6428.55,1407.46,6450.48Z"/><path id="_Path_78" data-name="&lt;Path&gt;" class="cls-54" d="M1326.85,6451.54c0,17.77,16,32.32,35.57,32.32s35.57-14.54,35.57-32.32-16-32.32-35.57-32.32S1326.85,6433.76,1326.85,6451.54Z"/><path id="_Path_79" data-name="&lt;Path&gt;" class="cls-50" d="M1240.56,6451.54c0,18.79,16.92,34.17,37.6,34.17s37.6-15.38,37.6-34.17-16.92-34.17-37.6-34.17S1240.56,6432.74,1240.56,6451.54Z"/><path id="_Path_80" data-name="&lt;Path&gt;" class="cls-47" d="M1073.28,6450.48c0,15.85,14.27,28.82,31.71,28.82s31.71-13,31.71-28.82-14.27-28.82-31.71-28.82S1073.28,6434.63,1073.28,6450.48Z"/><path id="_Path_81" data-name="&lt;Path&gt;" class="cls-48" d="M986.78,6450.48c0,15.8,14.23,28.73,31.62,28.73s31.62-12.93,31.62-28.73-14.23-28.73-31.62-28.73S986.78,6434.67,986.78,6450.48Z"/><path id="_Path_82" data-name="&lt;Path&gt;" class="cls-53" d="M1423.25,6371.8c0,14,12.63,25.51,28.07,25.51s28.07-11.48,28.07-25.51-12.63-25.51-28.07-25.51S1423.25,6357.77,1423.25,6371.8Z"/><path id="_Path_83" data-name="&lt;Path&gt;" class="cls-55" d="M1330.82,6371.8c0,17,15.27,30.83,33.92,30.83s33.92-13.87,33.92-30.83S1383.4,6341,1364.74,6341,1330.82,6354.85,1330.82,6371.8Z"/><path id="_Path_84" data-name="&lt;Path&gt;" class="cls-56" d="M1163.26,6371.8c0,14.15,12.74,25.73,28.31,25.73s28.31-11.58,28.31-25.73-12.74-25.73-28.31-25.73S1163.26,6357.65,1163.26,6371.8Z"/><path id="_Path_85" data-name="&lt;Path&gt;" class="cls-57" d="M833.43,6408.44c0,13.29,12,24.16,26.58,24.16s26.58-10.87,26.58-24.16-12-24.16-26.58-24.16S833.43,6395.15,833.43,6408.44Z"/><path id="_Path_86" data-name="&lt;Path&gt;" class="cls-58" d="M833.43,6470.5c0,10.5,9.46,19.09,21,19.09s21-8.59,21-19.09-9.46-19.09-21-19.09S833.43,6460,833.43,6470.5Z"/><path id="_Path_87" data-name="&lt;Path&gt;" class="cls-52" d="M898.72,6371.8c0,16.55,14.9,30.08,33.11,30.08s33.11-13.54,33.11-30.08-14.9-30.08-33.11-30.08S898.72,6355.25,898.72,6371.8Z"/><path id="_Path_88" data-name="&lt;Path&gt;" class="cls-53" d="M1421.6,6293.12c0,14.86,13.38,27,29.73,27s29.73-12.16,29.73-27-13.38-27-29.73-27S1421.6,6278.27,1421.6,6293.12Z"/><path id="_Path_89" data-name="&lt;Path&gt;" class="cls-50" d="M1244,6293.12c0,17.08,15.38,31.05,34.17,31.05s34.17-14,34.17-31.05-15.38-31.05-34.17-31.05S1244,6276,1244,6293.12Z"/><path id="_Path_90" data-name="&lt;Path&gt;" class="cls-47" d="M1074.27,6293.12c0,15.35,13.83,27.92,30.72,27.92s30.72-12.56,30.72-27.92-13.83-27.92-30.72-27.92S1074.27,6277.77,1074.27,6293.12Z"/><path id="_Path_91" data-name="&lt;Path&gt;" class="cls-52" d="M901.45,6293.12c0,15.18,13.67,27.6,30.37,27.6s30.37-12.42,30.37-27.6-13.67-27.6-30.37-27.6S901.45,6277.94,901.45,6293.12Z"/><path id="_Path_92" data-name="&lt;Path&gt;" class="cls-55" d="M1329.46,6214.45c0,17.63,15.88,32.06,35.28,32.06s35.28-14.43,35.28-32.06-15.88-32.06-35.28-32.06S1329.46,6196.82,1329.46,6214.45Z"/><path id="_Path_93" data-name="&lt;Path&gt;" class="cls-51" d="M1156.91,6214.45c0,17.33,15.6,31.5,34.67,31.5s34.67-14.18,34.67-31.5-15.6-31.5-34.67-31.5S1156.91,6197.12,1156.91,6214.45Z"/><path id="_Path_94" data-name="&lt;Path&gt;" class="cls-47" d="M1075,6214.45c0,15,13.48,27.22,30,27.22s30-12.25,30-27.22-13.48-27.22-30-27.22S1075,6199.48,1075,6214.45Z"/><path id="_Path_95" data-name="&lt;Path&gt;" class="cls-59" d="M1227.73,6293.12c0-18.07-16.27-32.85-36.16-32.85s-36.16,14.78-36.16,32.85c0,.25,0,.48,0,.73l0,0c.75,33.25-22.11,50.62-50.24,51.48-27.95-1.31-47.47-13-45.82-50.62l-.06.05c0-.54.09-1.07.09-1.61,0-20.49-18.45-37.25-41-37.25s-41,16.76-41,37.25,18.45,37.25,41,37.25c1.18,0,2.35-.07,3.51-.16l-.95.9c40.91-2.38,53.8,15.93,55.58,42.34l0,0c.93,13.49,13.33,24.28,28.41,24.28,15.27,0,27.8-11.07,28.44-24.81l0,0c1.21-26.44,22.92-48.16,59-46.74l-.27-.23C1211.82,6325.62,1227.73,6311,1227.73,6293.12Z"/><path id="_Path_96" data-name="&lt;Path&gt;" class="cls-60" d="M1278.16,6342.91c-17.49,0-31.79,13-31.79,28.89,0,.15,0,.3.05.45l0,0c.44,29.52-29.31,53.94-55.15,54.27l.56.53-.2,0c-14.22,0-25.85,10.57-25.85,23.49s11.63,23.49,25.85,23.49c13.92,0,25.29-10.16,25.76-22.71l.07.07c.91-24,27.86-51.07,59.63-50l-.84-.79c.66,0,1.29.18,2,.18,17.49,0,31.79-13,31.79-28.89S1295.64,6342.91,1278.16,6342.91Z"/><path id="_Path_97" data-name="&lt;Path&gt;" class="cls-61" d="M989.94,6602c-4,15.79,6.26,31.73,22.9,35.41.16,0,.32,0,.48.06l-.06,0c31,6.44,49.73,39,44.09,62.38l.68-.38c0,.06-.05.12-.07.18-3.29,12.84,5.09,25.79,18.62,28.79s27.3-5.07,30.59-17.91c3.22-12.58-4.78-25.2-17.82-28.53l.09,0c-24.92-6.38-47.05-37-38.6-65.45l-1,.57c.19-.59.49-1.12.64-1.73,4-15.79-6.26-31.73-22.9-35.41S994,6586.22,989.94,6602Z"/><path id="_Path_98" data-name="&lt;Path&gt;" class="cls-62" d="M1191,6579.24c-31.51-.25-50.13-16.21-49.83-49.8h0c0-.1,0-.2,0-.3,0-18.08-16.28-32.88-36.18-32.88s-36.18,14.79-36.18,32.88S1085.09,6562,1105,6562c.65,0,0,.05,0,.05,36.16-1,54.12,17.38,55.07,46.63l0,0c.5,15.36,14.45,27.78,31.46,27.78,17.33,0,31.51-12.88,31.51-28.63s-14.18-28.63-31.51-28.63Z"/><path id="_Path_99" data-name="&lt;Path&gt;" class="cls-63" d="M1364.74,6263c-.4,0-.79,0-1.18.05l.75-.71c-33.09.4-53.2-18.14-53.62-48.35l0,0c-.23-16.08-14.76-29.18-32.51-29.18s-32.53,13.3-32.53,29.56,14.64,29.56,32.53,29.56c.34,0,.67,0,1,0l-.73.69c32.53-.26,52.93,18,53.21,48.73h0c.15,16.43,15,29.83,33.08,29.83s33.1-13.53,33.1-30.07S1382.95,6263,1364.74,6263Z"/><path id="_Path_100" data-name="&lt;Path&gt;" class="cls-64" d="M1018.41,6339.21c-19.73,0-35.87,14.67-35.87,32.59,0,.09,0,.17,0,.26h0c.27,33.31-19.49,49-50.95,49.22l.68.64-.45,0c-17.3,0-31.46,12.86-31.46,28.59s14.16,28.59,31.46,28.59c17,0,30.93-12.43,31.42-27.77l0,0c.91-29.2,18.24-47.2,54.1-46.23l-.83-.78c.62,0,1.24.09,1.87.09,19.73,0,35.87-14.67,35.87-32.59S1038.14,6339.21,1018.41,6339.21Z"/></g></g></g></g></svg>