<svg xmlns="http://www.w3.org/2000/svg" xmlns:xlink="http://www.w3.org/1999/xlink" width="2561.67" height="1000.22" viewBox="0 0 2561.67 1000.22"><defs><style>.cls-1{fill:none;}.cls-2{fill:#545456;}.cls-3{opacity:0.2;}.cls-4{opacity:0.28;}.cls-5{fill:url(#linear-gradient);}.cls-6{fill:url(#linear-gradient-2);}.cls-7{fill:url(#linear-gradient-3);}.cls-8{fill:url(#linear-gradient-4);}.cls-9{fill:url(#linear-gradient-5);}.cls-10{fill:url(#linear-gradient-6);}.cls-11{fill:url(#linear-gradient-7);}.cls-12{fill:url(#linear-gradient-9);}.cls-13{fill:url(#linear-gradient-10);}.cls-14{fill:url(#linear-gradient-11);}.cls-15{fill:url(#linear-gradient-16);}.cls-16{fill:url(#linear-gradient-18);}.cls-17{fill:url(#linear-gradient-19);}.cls-18{fill:url(#linear-gradient-28);}.cls-19{fill:url(#linear-gradient-29);}.cls-20{fill:url(#linear-gradient-30);}.cls-21{fill:url(#linear-gradient-31);}.cls-22{fill:url(#linear-gradient-32);}.cls-23{fill:url(#linear-gradient-33);}.cls-24{fill:url(#New_Gradient_Swatch_1);}.cls-25{clip-path:url(#clip-path);}.cls-26{fill:url(#linear-gradient-34);}.cls-27{fill:url(#linear-gradient-35);}.cls-28{fill:url(#linear-gradient-36);}.cls-29{fill:url(#linear-gradient-37);}.cls-30{fill:url(#linear-gradient-38);}.cls-31{fill:url(#linear-gradient-39);}.cls-32{fill:url(#linear-gradient-40);}.cls-33{fill:url(#linear-gradient-42);}.cls-34{fill:url(#linear-gradient-43);}.cls-35{fill:url(#linear-gradient-44);}.cls-36{fill:url(#linear-gradient-49);}.cls-37{fill:url(#linear-gradient-51);}.cls-38{fill:url(#linear-gradient-52);}.cls-39{fill:url(#linear-gradient-61);}.cls-40{fill:url(#linear-gradient-62);}.cls-41{fill:url(#linear-gradient-63);}.cls-42{fill:url(#linear-gradient-64);}.cls-43{fill:url(#linear-gradient-65);}.cls-44{fill:url(#linear-gradient-66);}</style><linearGradient id="linear-gradient" x1="632.68" y1="432.09" x2="632.68" y2="593.32" gradientTransform="translate(419)" gradientUnits="userSpaceOnUse"><stop offset="0.06" stop-color="#fff"/><stop offset="1" stop-color="#fff" stop-opacity="0"/></linearGradient><linearGradient id="linear-gradient-2" x1="685.15" y1="432.09" x2="685.15" y2="593.32" xlink:href="#linear-gradient"/><linearGradient id="linear-gradient-3" x1="754.48" y1="432.09" x2="754.48" y2="593.32" xlink:href="#linear-gradient"/><linearGradient id="linear-gradient-4" x1="715.64" y1="432.09" x2="715.64" y2="593.32" xlink:href="#linear-gradient"/><linearGradient id="linear-gradient-5" x1="871.77" y1="432.09" x2="871.77" y2="593.32" xlink:href="#linear-gradient"/><linearGradient id="linear-gradient-6" x1="832.15" y1="432.09" x2="832.15" y2="593.32" xlink:href="#linear-gradient"/><linearGradient id="linear-gradient-7" x1="793.31" y1="432.09" x2="793.31" y2="593.32" xlink:href="#linear-gradient"/><linearGradient id="linear-gradient-9" x1="676.81" y1="432.09" x2="676.81" y2="593.32" xlink:href="#linear-gradient"/><linearGradient id="linear-gradient-10" x1="909.82" y1="432.09" x2="909.82" y2="593.32" xlink:href="#linear-gradient"/><linearGradient id="linear-gradient-11" x1="869.94" y1="432.09" x2="869.94" y2="593.32" xlink:href="#linear-gradient"/><linearGradient id="linear-gradient-16" x1="870.98" y1="432.09" x2="870.98" y2="593.32" xlink:href="#linear-gradient"/><linearGradient id="linear-gradient-18" x1="644.6" y1="432.09" x2="644.6" y2="593.32" xlink:href="#linear-gradient"/><linearGradient id="linear-gradient-19" x1="642.1" y1="432.09" x2="642.1" y2="593.32" xlink:href="#linear-gradient"/><linearGradient id="linear-gradient-28" x1="753.39" y1="432.09" x2="753.39" y2="593.32" xlink:href="#linear-gradient"/><linearGradient id="linear-gradient-29" x1="814.06" y1="432.09" x2="814.06" y2="593.32" xlink:href="#linear-gradient"/><linearGradient id="linear-gradient-30" x1="729.13" y1="432.09" x2="729.13" y2="593.32" xlink:href="#linear-gradient"/><linearGradient id="linear-gradient-31" x1="772.85" y1="432.09" x2="772.85" y2="593.32" xlink:href="#linear-gradient"/><linearGradient id="linear-gradient-32" x1="851.69" y1="432.09" x2="851.69" y2="593.32" xlink:href="#linear-gradient"/><linearGradient id="linear-gradient-33" x1="697.21" y1="432.09" x2="697.21" y2="593.32" xlink:href="#linear-gradient"/><linearGradient id="New_Gradient_Swatch_1" x1="1.67" y1="282.69" x2="2561.67" y2="282.69" gradientTransform="matrix(1, 0.03, 0, 1, 0, -230.36)" gradientUnits="userSpaceOnUse"><stop offset="0" stop-color="#e4e1de"/><stop offset="0" stop-color="#dcd8d5"/><stop offset="0.07" stop-color="#cdc9c8"/><stop offset="0.2" stop-color="#a6a2a7"/><stop offset="0.26" stop-color="#918d94"/><stop offset="0.52" stop-color="#f1f2f2"/><stop offset="0.59" stop-color="#e3e3e4"/><stop offset="0.71" stop-color="#bebcbe"/><stop offset="0.87" stop-color="#827e82"/><stop offset="0.88" stop-color="#807c80"/><stop offset="1" stop-color="#cfd1d2"/><stop offset="1" stop-color="#a5a7aa"/></linearGradient><clipPath id="clip-path"><polygon class="cls-1" points="703.11 55.2 1157.25 88.78 1101.35 366.44 650.95 440.73 703.11 55.2"/></clipPath><linearGradient id="linear-gradient-34" x1="348.68" y1="56.09" x2="348.68" y2="217.32" xlink:href="#linear-gradient"/><linearGradient id="linear-gradient-35" x1="401.15" y1="56.09" x2="401.15" y2="217.32" xlink:href="#linear-gradient"/><linearGradient id="linear-gradient-36" x1="470.48" y1="56.09" x2="470.48" y2="217.32" xlink:href="#linear-gradient"/><linearGradient id="linear-gradient-37" x1="431.64" y1="56.09" x2="431.64" y2="217.32" xlink:href="#linear-gradient"/><linearGradient id="linear-gradient-38" x1="587.77" y1="56.09" x2="587.77" y2="217.32" xlink:href="#linear-gradient"/><linearGradient id="linear-gradient-39" x1="548.15" y1="56.09" x2="548.15" y2="217.32" xlink:href="#linear-gradient"/><linearGradient id="linear-gradient-40" x1="509.31" y1="56.09" x2="509.31" y2="217.32" xlink:href="#linear-gradient"/><linearGradient id="linear-gradient-42" x1="392.81" y1="56.09" x2="392.81" y2="217.32" xlink:href="#linear-gradient"/><linearGradient id="linear-gradient-43" x1="625.82" y1="56.09" x2="625.82" y2="217.32" xlink:href="#linear-gradient"/><linearGradient id="linear-gradient-44" x1="585.94" y1="56.09" x2="585.94" y2="217.32" xlink:href="#linear-gradient"/><linearGradient id="linear-gradient-49" x1="586.98" y1="56.09" x2="586.98" y2="217.32" xlink:href="#linear-gradient"/><linearGradient id="linear-gradient-51" x1="360.6" y1="56.09" x2="360.6" y2="217.32" xlink:href="#linear-gradient"/><linearGradient id="linear-gradient-52" x1="358.1" y1="56.09" x2="358.1" y2="217.32" xlink:href="#linear-gradient"/><linearGradient id="linear-gradient-61" x1="469.39" y1="56.09" x2="469.39" y2="217.32" xlink:href="#linear-gradient"/><linearGradient id="linear-gradient-62" x1="530.06" y1="56.09" x2="530.06" y2="217.32" xlink:href="#linear-gradient"/><linearGradient id="linear-gradient-63" x1="445.13" y1="56.09" x2="445.13" y2="217.32" xlink:href="#linear-gradient"/><linearGradient id="linear-gradient-64" x1="488.85" y1="56.09" x2="488.85" y2="217.32" xlink:href="#linear-gradient"/><linearGradient id="linear-gradient-65" x1="567.69" y1="56.09" x2="567.69" y2="217.32" xlink:href="#linear-gradient"/><linearGradient id="linear-gradient-66" x1="413.21" y1="56.09" x2="413.21" y2="217.32" xlink:href="#linear-gradient"/></defs><title>bg-gallery</title><g id="Layer_2" data-name="Layer 2"><g id="Layer_1-2" data-name="Layer 1"><polygon id="_Path_" data-name="&lt;Path&gt;" class="cls-2" points="2561.67 1000.22 0 1000.22 0 0 2561.67 189.28 2561.67 1000.22"/><g id="_Group_" data-name="&lt;Group&gt;" class="cls-3"><g id="_Group_2" data-name="&lt;Group&gt;" class="cls-4"><path id="_Path_2" data-name="&lt;Path&gt;" class="cls-5" d="M1036.18,579.69c0,7.75,7,14.08,15.5,14.08s15.5-6.34,15.5-14.08-7-14.08-15.5-14.08S1036.18,571.94,1036.18,579.69Z"/><path id="_Path_3" data-name="&lt;Path&gt;" class="cls-6" d="M1095.81,601.35c0,4.17,3.75,7.58,8.34,7.58s8.34-3.41,8.34-7.58-3.75-7.58-8.34-7.58S1095.81,597.18,1095.81,601.35Z"/><path id="_Path_4" data-name="&lt;Path&gt;" class="cls-7" d="M1155.83,609.81c0,8.82,7.94,16,17.65,16s17.65-7.22,17.65-16-7.94-16-17.65-16S1155.83,601,1155.83,609.81Z"/><path id="_Path_5" data-name="&lt;Path&gt;" class="cls-8" d="M1120.52,609.81c0,7.06,6.36,12.83,14.12,12.83s14.12-5.78,14.12-12.83S1142.41,597,1134.64,597,1120.52,602.75,1120.52,609.81Z"/><path id="_Path_6" data-name="&lt;Path&gt;" class="cls-9" d="M1279.79,575c0,5.48,4.94,10,11,10s11-4.49,11-10-4.94-10-11-10S1279.79,569.51,1279.79,575Z"/><path id="_Path_7" data-name="&lt;Path&gt;" class="cls-10" d="M1233.67,574.52c0,8.74,7.87,15.88,17.48,15.88s17.48-7.15,17.48-15.88-7.87-15.88-17.48-15.88S1233.67,565.79,1233.67,574.52Z"/><path id="_Path_8" data-name="&lt;Path&gt;" class="cls-11" d="M1199.31,574.52c0,6.5,5.85,11.81,13,11.81s13-5.32,13-11.81-5.85-11.81-13-11.81S1199.31,568,1199.31,574.52Z"/><path id="_Path_9" data-name="&lt;Path&gt;" class="cls-8" d="M1121.15,574.52c0,6.74,6.07,12.26,13.49,12.26s13.49-5.52,13.49-12.26-6.07-12.26-13.49-12.26S1121.15,567.78,1121.15,574.52Z"/><path id="_Path_10" data-name="&lt;Path&gt;" class="cls-12" d="M1077.65,574.52c0,9.08,8.17,16.5,18.16,16.5s18.16-7.43,18.16-16.5-8.17-16.5-18.16-16.5S1077.65,565.45,1077.65,574.52Z"/><path id="_Path_11" data-name="&lt;Path&gt;" class="cls-13" d="M1309.14,539.23c0,9.83,8.85,17.88,19.68,17.88s19.68-8,19.68-17.88-8.85-17.88-19.68-17.88S1309.14,529.4,1309.14,539.23Z"/><path id="_Path_12" data-name="&lt;Path&gt;" class="cls-14" d="M1273,539.71c0,8,7.18,14.5,16,14.5s16-6.52,16-14.5-7.18-14.5-16-14.5S1273,531.74,1273,539.71Z"/><path id="_Path_13" data-name="&lt;Path&gt;" class="cls-10" d="M1234.28,539.71c0,8.43,7.59,15.33,16.87,15.33s16.87-6.9,16.87-15.33-7.59-15.33-16.87-15.33S1234.28,531.28,1234.28,539.71Z"/><path id="_Path_14" data-name="&lt;Path&gt;" class="cls-7" d="M1159.25,539.23c0,7.11,6.4,12.93,14.22,12.93s14.22-5.82,14.22-12.93-6.4-12.93-14.22-12.93S1159.25,532.13,1159.25,539.23Z"/><path id="_Path_15" data-name="&lt;Path&gt;" class="cls-8" d="M1120.46,539.23c0,7.09,6.38,12.89,14.18,12.89s14.18-5.8,14.18-12.89-6.38-12.89-14.18-12.89S1120.46,532.15,1120.46,539.23Z"/><path id="_Path_16" data-name="&lt;Path&gt;" class="cls-13" d="M1316.23,503.95c0,6.29,5.67,11.44,12.59,11.44s12.59-5.15,12.59-11.44-5.67-11.44-12.59-11.44S1316.23,497.65,1316.23,503.95Z"/><path id="_Path_17" data-name="&lt;Path&gt;" class="cls-15" d="M1274.77,503.95c0,7.6,6.85,13.83,15.22,13.83s15.22-6.22,15.22-13.83-6.85-13.83-15.22-13.83S1274.77,496.34,1274.77,503.95Z"/><path id="_Path_18" data-name="&lt;Path&gt;" class="cls-11" d="M1199.62,503.95c0,6.35,5.71,11.54,12.7,11.54s12.7-5.19,12.7-11.54-5.71-11.54-12.7-11.54S1199.62,497.6,1199.62,503.95Z"/><path id="_Path_19" data-name="&lt;Path&gt;" class="cls-16" d="M1051.68,520.38c0,6,5.37,10.83,11.92,10.83s11.92-4.88,11.92-10.83-5.37-10.83-11.92-10.83S1051.68,514.42,1051.68,520.38Z"/><path id="_Path_20" data-name="&lt;Path&gt;" class="cls-17" d="M1051.68,548.22c0,4.71,4.24,8.56,9.43,8.56s9.43-3.85,9.43-8.56-4.24-8.56-9.43-8.56S1051.68,543.51,1051.68,548.22Z"/><path id="_Path_21" data-name="&lt;Path&gt;" class="cls-12" d="M1081,503.95c0,7.42,6.68,13.49,14.85,13.49s14.85-6.07,14.85-13.49-6.68-13.49-14.85-13.49S1081,496.52,1081,503.95Z"/><path id="_Path_22" data-name="&lt;Path&gt;" class="cls-13" d="M1315.49,468.66c0,6.66,6,12.12,13.33,12.12s13.33-5.45,13.33-12.12-6-12.12-13.33-12.12S1315.49,462,1315.49,468.66Z"/><path id="_Path_23" data-name="&lt;Path&gt;" class="cls-10" d="M1235.82,468.66c0,7.66,6.9,13.93,15.33,13.93s15.33-6.27,15.33-13.93-6.9-13.93-15.33-13.93S1235.82,461,1235.82,468.66Z"/><path id="_Path_24" data-name="&lt;Path&gt;" class="cls-7" d="M1159.7,468.66c0,6.89,6.2,12.52,13.78,12.52s13.78-5.63,13.78-12.52-6.2-12.52-13.78-12.52S1159.7,461.77,1159.7,468.66Z"/><path id="_Path_25" data-name="&lt;Path&gt;" class="cls-12" d="M1082.18,468.66c0,6.81,6.13,12.38,13.62,12.38s13.62-5.57,13.62-12.38-6.13-12.38-13.62-12.38S1082.18,461.85,1082.18,468.66Z"/><path id="_Path_26" data-name="&lt;Path&gt;" class="cls-15" d="M1274.16,433.37c0,7.91,7.12,14.38,15.82,14.38s15.82-6.47,15.82-14.38S1298.69,419,1290,419,1274.16,425.46,1274.16,433.37Z"/><path id="_Path_27" data-name="&lt;Path&gt;" class="cls-11" d="M1196.76,433.37c0,7.77,7,14.13,15.55,14.13s15.55-6.36,15.55-14.13-7-14.13-15.55-14.13S1196.76,425.6,1196.76,433.37Z"/><path id="_Path_28" data-name="&lt;Path&gt;" class="cls-7" d="M1160,433.37c0,6.71,6,12.21,13.44,12.21s13.44-5.49,13.44-12.21-6-12.21-13.44-12.21S1160,426.65,1160,433.37Z"/><path id="_Path_29" data-name="&lt;Path&gt;" class="cls-18" d="M1228.53,468.66c0-8.1-7.3-14.74-16.22-14.74s-16.22,6.63-16.22,14.74c0,.11,0,.22,0,.33h0c.33,14.91-9.92,22.7-22.54,23.09-12.54-.59-21.29-5.84-20.55-22.71l0,0c0-.24,0-.48,0-.72,0-9.19-8.27-16.71-18.39-16.71s-18.39,7.52-18.39,16.71,8.27,16.71,18.39,16.71c.53,0,1.05,0,1.57-.07l-.43.4c18.35-1.07,24.13,7.14,24.93,19l0,0c.42,6.05,6,10.89,12.74,10.89s12.47-5,12.76-11.13l0,0c.54-11.86,10.28-21.6,26.48-21l-.12-.11C1221.39,483.23,1228.53,476.67,1228.53,468.66Z"/><path id="_Path_30" data-name="&lt;Path&gt;" class="cls-19" d="M1251.15,491c-7.84,0-14.26,5.83-14.26,13,0,.07,0,.13,0,.2l0,0c.2,13.24-13.14,24.2-24.74,24.34l.25.24h-.09c-6.38,0-11.59,4.74-11.59,10.53s5.22,10.53,11.59,10.53,11.34-4.55,11.55-10.18l0,0c.41-10.76,12.49-22.9,26.75-22.44l-.37-.36c.3,0,.58.08.88.08,7.84,0,14.26-5.83,14.26-13S1259,491,1251.15,491Z"/><path id="_Path_31" data-name="&lt;Path&gt;" class="cls-20" d="M1121.87,607.2c-1.82,7.08,2.81,14.23,10.27,15.88l.22,0h0c13.92,2.89,22.31,17.48,19.78,28l.31-.17,0,.08a10.66,10.66,0,0,0,8.35,12.91c6.07,1.34,12.25-2.27,13.72-8a10.62,10.62,0,0,0-8-12.79l0,0c-11.18-2.86-21.1-16.59-17.31-29.35l-.46.26c.09-.26.22-.5.29-.78,1.82-7.08-2.81-14.23-10.27-15.88S1123.69,600.12,1121.87,607.2Z"/><path id="_Path_32" data-name="&lt;Path&gt;" class="cls-21" d="M1212.05,597c-14.13-.11-22.49-7.27-22.35-22.34h0s0-.09,0-.13c0-8.11-7.3-14.75-16.23-14.75s-16.23,6.64-16.23,14.75,7.3,14.75,16.23,14.75c.29,0,0,0,0,0,16.22-.45,24.28,7.8,24.7,20.91h0c.23,6.89,6.48,12.46,14.11,12.46s14.13-5.78,14.13-12.84S1220.09,597,1212.31,597Z"/><path id="_Path_33" data-name="&lt;Path&gt;" class="cls-22" d="M1290,455.17l-.53,0,.34-.32c-14.84.18-23.86-8.14-24.05-21.68h0c-.1-7.21-6.62-13.09-14.58-13.09s-14.59,6-14.59,13.26,6.57,13.26,14.59,13.26l.45,0-.33.31c14.59-.11,23.74,8.08,23.87,21.86h0c.07,7.37,6.72,13.38,14.84,13.38s14.84-6.07,14.84-13.49S1298.15,455.17,1290,455.17Z"/><path id="_Path_34" data-name="&lt;Path&gt;" class="cls-23" d="M1134.64,489.33c-8.85,0-16.09,6.58-16.09,14.62,0,0,0,.08,0,.12h0c.12,14.94-8.74,22-22.85,22.08l.3.29h-.2c-7.76,0-14.11,5.77-14.11,12.82s6.35,12.82,14.11,12.82,13.87-5.57,14.09-12.46h0c.41-13.1,8.18-21.17,24.26-20.74l-.37-.35c.28,0,.55,0,.84,0,8.85,0,16.09-6.58,16.09-14.62S1143.49,489.33,1134.64,489.33Z"/></g></g><polygon id="_Path_35" data-name="&lt;Path&gt;" class="cls-24" points="2561.67 192.62 1.67 3.33 1.67 0 2561.67 189.28 2561.67 192.62"/><g class="cls-25"><g id="_Group_3" data-name="&lt;Group&gt;" class="cls-3"><g id="_Group_4" data-name="&lt;Group&gt;" class="cls-4"><path id="_Path_36" data-name="&lt;Path&gt;" class="cls-26" d="M752.18,203.69c0,7.75,7,14.08,15.5,14.08s15.5-6.34,15.5-14.08-7-14.08-15.5-14.08S752.18,195.94,752.18,203.69Z"/><path id="_Path_37" data-name="&lt;Path&gt;" class="cls-27" d="M811.81,225.35c0,4.17,3.75,7.58,8.34,7.58s8.34-3.41,8.34-7.58-3.75-7.58-8.34-7.58S811.81,221.18,811.81,225.35Z"/><path id="_Path_38" data-name="&lt;Path&gt;" class="cls-28" d="M871.83,233.81c0,8.82,7.94,16,17.65,16s17.65-7.22,17.65-16-7.94-16-17.65-16S871.83,225,871.83,233.81Z"/><path id="_Path_39" data-name="&lt;Path&gt;" class="cls-29" d="M836.52,233.81c0,7.06,6.36,12.83,14.12,12.83s14.12-5.78,14.12-12.83S858.41,221,850.64,221,836.52,226.75,836.52,233.81Z"/><path id="_Path_40" data-name="&lt;Path&gt;" class="cls-30" d="M995.79,199c0,5.48,4.94,10,11,10s11-4.49,11-10-4.94-10-11-10S995.79,193.51,995.79,199Z"/><path id="_Path_41" data-name="&lt;Path&gt;" class="cls-31" d="M949.67,198.52c0,8.74,7.87,15.88,17.48,15.88s17.48-7.15,17.48-15.88-7.87-15.88-17.48-15.88S949.67,189.79,949.67,198.52Z"/><path id="_Path_42" data-name="&lt;Path&gt;" class="cls-32" d="M915.31,198.52c0,6.5,5.85,11.81,13,11.81s13-5.32,13-11.81-5.85-11.81-13-11.81S915.31,192,915.31,198.52Z"/><path id="_Path_43" data-name="&lt;Path&gt;" class="cls-29" d="M837.15,198.52c0,6.74,6.07,12.26,13.49,12.26s13.49-5.52,13.49-12.26-6.07-12.26-13.49-12.26S837.15,191.78,837.15,198.52Z"/><path id="_Path_44" data-name="&lt;Path&gt;" class="cls-33" d="M793.65,198.52c0,9.08,8.17,16.5,18.16,16.5S830,207.6,830,198.52,821.8,182,811.81,182,793.65,189.45,793.65,198.52Z"/><path id="_Path_45" data-name="&lt;Path&gt;" class="cls-34" d="M1025.14,163.23c0,9.83,8.85,17.88,19.68,17.88s19.68-8,19.68-17.88-8.85-17.88-19.68-17.88S1025.14,153.4,1025.14,163.23Z"/><path id="_Path_46" data-name="&lt;Path&gt;" class="cls-35" d="M989,163.71c0,8,7.18,14.5,16,14.5s16-6.52,16-14.5-7.18-14.5-16-14.5S989,155.74,989,163.71Z"/><path id="_Path_47" data-name="&lt;Path&gt;" class="cls-31" d="M950.28,163.71c0,8.43,7.59,15.33,16.87,15.33S984,172.14,984,163.71s-7.59-15.33-16.87-15.33S950.28,155.28,950.28,163.71Z"/><path id="_Path_48" data-name="&lt;Path&gt;" class="cls-28" d="M875.25,163.23c0,7.11,6.4,12.93,14.22,12.93s14.22-5.82,14.22-12.93-6.4-12.93-14.22-12.93S875.25,156.13,875.25,163.23Z"/><path id="_Path_49" data-name="&lt;Path&gt;" class="cls-29" d="M836.46,163.23c0,7.09,6.38,12.89,14.18,12.89s14.18-5.8,14.18-12.89-6.38-12.89-14.18-12.89S836.46,156.15,836.46,163.23Z"/><path id="_Path_50" data-name="&lt;Path&gt;" class="cls-34" d="M1032.23,127.95c0,6.29,5.67,11.44,12.59,11.44s12.59-5.15,12.59-11.44-5.67-11.44-12.59-11.44S1032.23,121.65,1032.23,127.95Z"/><path id="_Path_51" data-name="&lt;Path&gt;" class="cls-36" d="M990.77,127.95c0,7.6,6.85,13.83,15.22,13.83s15.22-6.22,15.22-13.83-6.85-13.83-15.22-13.83S990.77,120.34,990.77,127.95Z"/><path id="_Path_52" data-name="&lt;Path&gt;" class="cls-32" d="M915.62,127.95c0,6.35,5.71,11.54,12.7,11.54s12.7-5.19,12.7-11.54-5.71-11.54-12.7-11.54S915.62,121.6,915.62,127.95Z"/><path id="_Path_53" data-name="&lt;Path&gt;" class="cls-37" d="M767.68,144.38c0,6,5.37,10.83,11.92,10.83s11.92-4.88,11.92-10.83-5.37-10.83-11.92-10.83S767.68,138.42,767.68,144.38Z"/><path id="_Path_54" data-name="&lt;Path&gt;" class="cls-38" d="M767.68,172.22c0,4.71,4.24,8.56,9.43,8.56s9.43-3.85,9.43-8.56-4.24-8.56-9.43-8.56S767.68,167.51,767.68,172.22Z"/><path id="_Path_55" data-name="&lt;Path&gt;" class="cls-33" d="M797,127.95c0,7.42,6.68,13.49,14.85,13.49s14.85-6.07,14.85-13.49-6.68-13.49-14.85-13.49S797,120.52,797,127.95Z"/><path id="_Path_56" data-name="&lt;Path&gt;" class="cls-34" d="M1031.49,92.66c0,6.66,6,12.12,13.33,12.12s13.33-5.45,13.33-12.12-6-12.12-13.33-12.12S1031.49,86,1031.49,92.66Z"/><path id="_Path_57" data-name="&lt;Path&gt;" class="cls-31" d="M951.82,92.66c0,7.66,6.9,13.93,15.33,13.93s15.33-6.27,15.33-13.93-6.9-13.93-15.33-13.93S951.82,85,951.82,92.66Z"/><path id="_Path_58" data-name="&lt;Path&gt;" class="cls-28" d="M875.7,92.66c0,6.89,6.2,12.52,13.78,12.52s13.78-5.63,13.78-12.52-6.2-12.52-13.78-12.52S875.7,85.77,875.7,92.66Z"/><path id="_Path_59" data-name="&lt;Path&gt;" class="cls-33" d="M798.18,92.66c0,6.81,6.13,12.38,13.62,12.38s13.62-5.57,13.62-12.38-6.13-12.38-13.62-12.38S798.18,85.85,798.18,92.66Z"/><path id="_Path_60" data-name="&lt;Path&gt;" class="cls-36" d="M990.16,57.37c0,7.91,7.12,14.38,15.82,14.38s15.82-6.47,15.82-14.38S1014.69,43,1006,43,990.16,49.46,990.16,57.37Z"/><path id="_Path_61" data-name="&lt;Path&gt;" class="cls-32" d="M912.76,57.37c0,7.77,7,14.13,15.55,14.13s15.55-6.36,15.55-14.13-7-14.13-15.55-14.13S912.76,49.6,912.76,57.37Z"/><path id="_Path_62" data-name="&lt;Path&gt;" class="cls-28" d="M876,57.37c0,6.71,6,12.21,13.44,12.21s13.44-5.49,13.44-12.21-6-12.21-13.44-12.21S876,50.65,876,57.37Z"/><path id="_Path_63" data-name="&lt;Path&gt;" class="cls-39" d="M944.53,92.66c0-8.1-7.3-14.74-16.22-14.74S912.1,84.55,912.1,92.66c0,.11,0,.22,0,.33h0c.33,14.91-9.92,22.7-22.54,23.09-12.54-.59-21.29-5.84-20.55-22.71l0,0c0-.24,0-.48,0-.72,0-9.19-8.27-16.71-18.39-16.71s-18.39,7.52-18.39,16.71,8.27,16.71,18.39,16.71c.53,0,1.05,0,1.57-.07l-.43.4c18.35-1.07,24.13,7.14,24.93,19l0,0c.42,6.05,6,10.89,12.74,10.89s12.47-5,12.76-11.13l0,0c.54-11.86,10.28-21.6,26.48-21l-.12-.11C937.39,107.23,944.53,100.67,944.53,92.66Z"/><path id="_Path_64" data-name="&lt;Path&gt;" class="cls-40" d="M967.15,115c-7.84,0-14.26,5.83-14.26,13,0,.07,0,.13,0,.2l0,0c.2,13.24-13.14,24.2-24.74,24.34l.25.24h-.09c-6.38,0-11.59,4.74-11.59,10.53s5.22,10.53,11.59,10.53,11.34-4.55,11.55-10.18l0,0c.41-10.76,12.49-22.9,26.75-22.44l-.37-.36c.3,0,.58.08.88.08,7.84,0,14.26-5.83,14.26-13S975,115,967.15,115Z"/><path id="_Path_65" data-name="&lt;Path&gt;" class="cls-41" d="M837.87,231.2c-1.82,7.08,2.81,14.23,10.27,15.88l.22,0h0c13.92,2.89,22.31,17.48,19.78,28l.31-.17,0,.08a10.66,10.66,0,0,0,8.35,12.91c6.07,1.34,12.25-2.27,13.72-8a10.62,10.62,0,0,0-8-12.79l0,0c-11.18-2.86-21.1-16.59-17.31-29.35l-.46.26c.09-.26.22-.5.29-.78,1.82-7.08-2.81-14.23-10.27-15.88S839.69,224.12,837.87,231.2Z"/><path id="_Path_66" data-name="&lt;Path&gt;" class="cls-42" d="M928.05,221c-14.13-.11-22.49-7.27-22.35-22.34h0s0-.09,0-.13c0-8.11-7.3-14.75-16.23-14.75s-16.23,6.64-16.23,14.75,7.3,14.75,16.23,14.75c.29,0,0,0,0,0,16.22-.45,24.28,7.8,24.7,20.91h0c.23,6.89,6.48,12.46,14.11,12.46s14.13-5.78,14.13-12.84S936.09,221,928.31,221Z"/><path id="_Path_67" data-name="&lt;Path&gt;" class="cls-43" d="M1006,79.17l-.53,0,.34-.32c-14.84.18-23.86-8.14-24.05-21.68h0c-.1-7.21-6.62-13.09-14.58-13.09s-14.59,6-14.59,13.26,6.57,13.26,14.59,13.26l.45,0-.33.31C981.86,70.8,991,79,991.14,92.77h0c.07,7.37,6.72,13.38,14.84,13.38s14.84-6.07,14.84-13.49S1014.15,79.17,1006,79.17Z"/><path id="_Path_68" data-name="&lt;Path&gt;" class="cls-44" d="M850.64,113.33c-8.85,0-16.09,6.58-16.09,14.62,0,0,0,.08,0,.12h0c.12,14.94-8.74,22-22.85,22.08l.3.29h-.2c-7.76,0-14.11,5.77-14.11,12.82s6.35,12.82,14.11,12.82,13.87-5.57,14.09-12.46h0c.41-13.1,8.18-21.17,24.26-20.74l-.37-.35c.28,0,.55,0,.84,0,8.85,0,16.09-6.58,16.09-14.62S859.49,113.33,850.64,113.33Z"/></g></g></g></g></g></svg>