<svg xmlns="http://www.w3.org/2000/svg" xmlns:xlink="http://www.w3.org/1999/xlink" width="2560" height="942.7" viewBox="0 0 2560 942.7"><defs><style>.cls-1{fill:none;}.cls-2{opacity:0.15;}.cls-3{opacity:0.28;}.cls-4{fill:url(#linear-gradient);}.cls-5{fill:url(#linear-gradient-2);}.cls-6{fill:url(#linear-gradient-3);}.cls-7{fill:url(#linear-gradient-4);}.cls-8{fill:url(#linear-gradient-5);}.cls-9{fill:url(#linear-gradient-6);}.cls-10{fill:url(#linear-gradient-7);}.cls-11{fill:url(#linear-gradient-9);}.cls-12{fill:url(#linear-gradient-10);}.cls-13{fill:url(#linear-gradient-11);}.cls-14{fill:url(#linear-gradient-16);}.cls-15{fill:url(#linear-gradient-18);}.cls-16{fill:url(#linear-gradient-19);}.cls-17{fill:url(#linear-gradient-22);}.cls-18{fill:url(#linear-gradient-28);}.cls-19{fill:url(#linear-gradient-29);}.cls-20{fill:url(#linear-gradient-30);}.cls-21{fill:url(#linear-gradient-31);}.cls-22{fill:url(#linear-gradient-32);}.cls-23{fill:url(#linear-gradient-33);}.cls-24{fill:url(#linear-gradient-34);}.cls-25{fill:url(#linear-gradient-35);}.cls-26{fill:url(#linear-gradient-36);}.cls-27{fill:url(#linear-gradient-37);}.cls-28{fill:url(#linear-gradient-38);}.cls-29{fill:url(#linear-gradient-39);}.cls-30{fill:url(#linear-gradient-40);}.cls-31{fill:url(#linear-gradient-42);}.cls-32{fill:url(#linear-gradient-43);}.cls-33{fill:url(#linear-gradient-44);}.cls-34{fill:url(#linear-gradient-49);}.cls-35{fill:url(#linear-gradient-51);}.cls-36{fill:url(#linear-gradient-52);}.cls-37{fill:url(#linear-gradient-61);}.cls-38{fill:url(#linear-gradient-62);}.cls-39{fill:url(#linear-gradient-63);}.cls-40{fill:url(#linear-gradient-64);}.cls-41{fill:url(#linear-gradient-65);}.cls-42{fill:url(#linear-gradient-66);}</style><linearGradient id="linear-gradient" x1="-364.48" y1="32.55" x2="-364.48" y2="145.19" gradientTransform="translate(1953.2)" gradientUnits="userSpaceOnUse"><stop offset="0.06" stop-color="#fff"/><stop offset="1" stop-color="#fff" stop-opacity="0"/></linearGradient><linearGradient id="linear-gradient-2" x1="-327.82" y1="32.55" x2="-327.82" y2="145.19" xlink:href="#linear-gradient"/><linearGradient id="linear-gradient-3" x1="-279.39" y1="32.55" x2="-279.39" y2="145.19" xlink:href="#linear-gradient"/><linearGradient id="linear-gradient-4" x1="-306.52" y1="32.55" x2="-306.52" y2="145.19" xlink:href="#linear-gradient"/><linearGradient id="linear-gradient-5" x1="-197.46" y1="32.55" x2="-197.46" y2="145.19" xlink:href="#linear-gradient"/><linearGradient id="linear-gradient-6" x1="-225.13" y1="32.55" x2="-225.13" y2="145.19" xlink:href="#linear-gradient"/><linearGradient id="linear-gradient-7" x1="-252.26" y1="32.55" x2="-252.26" y2="145.19" xlink:href="#linear-gradient"/><linearGradient id="linear-gradient-9" x1="-333.65" y1="32.55" x2="-333.65" y2="145.19" xlink:href="#linear-gradient"/><linearGradient id="linear-gradient-10" x1="-170.88" y1="32.55" x2="-170.88" y2="145.19" xlink:href="#linear-gradient"/><linearGradient id="linear-gradient-11" x1="-198.73" y1="32.55" x2="-198.73" y2="145.19" xlink:href="#linear-gradient"/><linearGradient id="linear-gradient-16" x1="-198" y1="32.55" x2="-198" y2="145.19" xlink:href="#linear-gradient"/><linearGradient id="linear-gradient-18" x1="-356.15" y1="32.55" x2="-356.15" y2="145.19" xlink:href="#linear-gradient"/><linearGradient id="linear-gradient-19" x1="-357.89" y1="32.55" x2="-357.89" y2="145.19" xlink:href="#linear-gradient"/><linearGradient id="linear-gradient-22" x1="-225.13" y1="32.55" x2="-225.13" y2="145.19" xlink:href="#linear-gradient"/><linearGradient id="linear-gradient-28" x1="-280.15" y1="32.55" x2="-280.15" y2="145.19" xlink:href="#linear-gradient"/><linearGradient id="linear-gradient-29" x1="-237.77" y1="32.55" x2="-237.77" y2="145.19" xlink:href="#linear-gradient"/><linearGradient id="linear-gradient-30" x1="-297.1" y1="32.55" x2="-297.1" y2="145.19" xlink:href="#linear-gradient"/><linearGradient id="linear-gradient-31" x1="-266.56" y1="32.55" x2="-266.56" y2="145.19" xlink:href="#linear-gradient"/><linearGradient id="linear-gradient-32" x1="-211.48" y1="32.55" x2="-211.48" y2="145.19" xlink:href="#linear-gradient"/><linearGradient id="linear-gradient-33" x1="-319.39" y1="32.55" x2="-319.39" y2="145.19" xlink:href="#linear-gradient"/><linearGradient id="linear-gradient-34" x1="305.72" y1="667" x2="305.72" y2="858.18" gradientTransform="translate(419)" gradientUnits="userSpaceOnUse"><stop offset="0" stop-color="#f48120"/><stop offset="1" stop-color="#fff" stop-opacity="0"/></linearGradient><linearGradient id="linear-gradient-35" x1="367.94" y1="667" x2="367.94" y2="858.18" xlink:href="#linear-gradient-34"/><linearGradient id="linear-gradient-36" x1="450.14" y1="667" x2="450.14" y2="858.18" xlink:href="#linear-gradient-34"/><linearGradient id="linear-gradient-37" x1="404.09" y1="667" x2="404.09" y2="858.18" xlink:href="#linear-gradient-34"/><linearGradient id="linear-gradient-38" x1="589.21" y1="667" x2="589.21" y2="858.18" xlink:href="#linear-gradient-34"/><linearGradient id="linear-gradient-39" x1="542.24" y1="667" x2="542.24" y2="858.18" xlink:href="#linear-gradient-34"/><linearGradient id="linear-gradient-40" x1="496.19" y1="667" x2="496.19" y2="858.18" xlink:href="#linear-gradient-34"/><linearGradient id="linear-gradient-42" x1="358.05" y1="667" x2="358.05" y2="858.18" xlink:href="#linear-gradient-34"/><linearGradient id="linear-gradient-43" x1="634.33" y1="667" x2="634.33" y2="858.18" xlink:href="#linear-gradient-34"/><linearGradient id="linear-gradient-44" x1="587.04" y1="667" x2="587.04" y2="858.18" xlink:href="#linear-gradient-34"/><linearGradient id="linear-gradient-49" x1="588.28" y1="667" x2="588.28" y2="858.18" xlink:href="#linear-gradient-34"/><linearGradient id="linear-gradient-51" x1="319.86" y1="667" x2="319.86" y2="858.18" xlink:href="#linear-gradient-34"/><linearGradient id="linear-gradient-52" x1="316.9" y1="667" x2="316.9" y2="858.18" xlink:href="#linear-gradient-34"/><linearGradient id="linear-gradient-61" x1="448.86" y1="667" x2="448.86" y2="858.18" xlink:href="#linear-gradient-34"/><linearGradient id="linear-gradient-62" x1="520.79" y1="667" x2="520.79" y2="858.18" xlink:href="#linear-gradient-34"/><linearGradient id="linear-gradient-63" x1="420.09" y1="667" x2="420.09" y2="858.18" xlink:href="#linear-gradient-34"/><linearGradient id="linear-gradient-64" x1="471.92" y1="667" x2="471.92" y2="858.18" xlink:href="#linear-gradient-34"/><linearGradient id="linear-gradient-65" x1="565.41" y1="667" x2="565.41" y2="858.18" xlink:href="#linear-gradient-34"/><linearGradient id="linear-gradient-66" x1="382.24" y1="667" x2="382.24" y2="858.18" xlink:href="#linear-gradient-34"/></defs><title>bg-brain-list-director</title><g id="Layer_2" data-name="Layer 2"><g id="Layer_1-2" data-name="Layer 1"><rect id="_Rectangle_" data-name="&lt;Rectangle&gt;" class="cls-1" width="2560" height="942.7"/><g id="_Group_" data-name="&lt;Group&gt;" class="cls-2"><g id="_Group_2" data-name="&lt;Group&gt;" class="cls-3"><path id="_Path_" data-name="&lt;Path&gt;" class="cls-4" d="M1577.9,135.66c0,5.41,4.87,9.84,10.83,9.84s10.83-4.43,10.83-9.84-4.87-9.84-10.83-9.84S1577.9,130.25,1577.9,135.66Z"/><path id="_Path_2" data-name="&lt;Path&gt;" class="cls-5" d="M1619.55,150.79a5.85,5.85,0,1,0,5.83-5.29A5.6,5.6,0,0,0,1619.55,150.79Z"/><path id="_Path_3" data-name="&lt;Path&gt;" class="cls-6" d="M1661.48,156.71c0,6.16,5.55,11.21,12.33,11.21s12.33-5,12.33-11.21-5.55-11.21-12.33-11.21S1661.48,150.54,1661.48,156.71Z"/><path id="_Path_4" data-name="&lt;Path&gt;" class="cls-7" d="M1636.81,156.71c0,4.93,4.44,9,9.87,9s9.87-4,9.87-9-4.44-9-9.87-9S1636.81,151.77,1636.81,156.71Z"/><path id="_Path_5" data-name="&lt;Path&gt;" class="cls-8" d="M1748.08,132.38c0,3.83,3.45,7,7.67,7s7.67-3.13,7.67-7-3.45-7-7.67-7S1748.08,128.55,1748.08,132.38Z"/><path id="_Path_6" data-name="&lt;Path&gt;" class="cls-9" d="M1715.86,132.05c0,6.1,5.49,11.1,12.21,11.1s12.21-5,12.21-11.1-5.49-11.1-12.21-11.1S1715.86,126,1715.86,132.05Z"/><path id="_Path_7" data-name="&lt;Path&gt;" class="cls-10" d="M1691.86,132.05c0,4.54,4.09,8.25,9.08,8.25s9.08-3.71,9.08-8.25-4.09-8.25-9.08-8.25S1691.86,127.52,1691.86,132.05Z"/><path id="_Path_8" data-name="&lt;Path&gt;" class="cls-7" d="M1637.26,132.05c0,4.71,4.24,8.56,9.42,8.56s9.42-3.85,9.42-8.56-4.24-8.56-9.42-8.56S1637.26,127.34,1637.26,132.05Z"/><path id="_Path_9" data-name="&lt;Path&gt;" class="cls-11" d="M1606.86,132.05c0,6.34,5.71,11.53,12.69,11.53s12.69-5.19,12.69-11.53-5.71-11.53-12.69-11.53S1606.86,125.71,1606.86,132.05Z"/><path id="_Path_10" data-name="&lt;Path&gt;" class="cls-12" d="M1768.58,107.4c0,6.87,6.19,12.49,13.74,12.49s13.74-5.62,13.74-12.49-6.19-12.49-13.74-12.49S1768.58,100.53,1768.58,107.4Z"/><path id="_Path_11" data-name="&lt;Path&gt;" class="cls-13" d="M1743.32,107.73c0,5.57,5,10.13,11.14,10.13s11.14-4.56,11.14-10.13-5-10.13-11.14-10.13S1743.32,102.17,1743.32,107.73Z"/><path id="_Path_12" data-name="&lt;Path&gt;" class="cls-9" d="M1716.28,107.73c0,5.89,5.3,10.71,11.78,10.71s11.78-4.82,11.78-10.71S1734.55,97,1728.07,97,1716.28,101.85,1716.28,107.73Z"/><path id="_Path_13" data-name="&lt;Path&gt;" class="cls-6" d="M1663.87,107.4c0,5,4.47,9,9.94,9s9.94-4.06,9.94-9-4.47-9-9.94-9S1663.87,102.44,1663.87,107.4Z"/><path id="_Path_14" data-name="&lt;Path&gt;" class="cls-7" d="M1636.77,107.4c0,5,4.46,9,9.91,9s9.91-4.05,9.91-9-4.46-9-9.91-9S1636.77,102.45,1636.77,107.4Z"/><path id="_Path_15" data-name="&lt;Path&gt;" class="cls-12" d="M1773.53,82.75c0,4.4,4,8,8.8,8s8.8-3.6,8.8-8-4-8-8.8-8S1773.53,78.36,1773.53,82.75Z"/><path id="_Path_16" data-name="&lt;Path&gt;" class="cls-14" d="M1744.57,82.75c0,5.31,4.78,9.66,10.63,9.66s10.63-4.35,10.63-9.66-4.78-9.66-10.63-9.66S1744.57,77.44,1744.57,82.75Z"/><path id="_Path_17" data-name="&lt;Path&gt;" class="cls-10" d="M1692.07,82.75c0,4.43,4,8.06,8.87,8.06s8.87-3.63,8.87-8.06-4-8.06-8.87-8.06S1692.07,78.32,1692.07,82.75Z"/><path id="_Path_18" data-name="&lt;Path&gt;" class="cls-15" d="M1588.72,94.23c0,4.16,3.75,7.57,8.33,7.57s8.33-3.41,8.33-7.57-3.75-7.57-8.33-7.57S1588.72,90.07,1588.72,94.23Z"/><path id="_Path_19" data-name="&lt;Path&gt;" class="cls-16" d="M1588.72,113.68c0,3.29,3,6,6.58,6s6.58-2.69,6.58-6-3-6-6.58-6S1588.72,110.39,1588.72,113.68Z"/><path id="_Path_20" data-name="&lt;Path&gt;" class="cls-11" d="M1609.18,82.75c0,5.18,4.67,9.43,10.37,9.43s10.37-4.24,10.37-9.43-4.67-9.43-10.37-9.43S1609.18,77.57,1609.18,82.75Z"/><path id="_Path_21" data-name="&lt;Path&gt;" class="cls-12" d="M1773,58.1c0,4.65,4.19,8.46,9.31,8.46s9.31-3.81,9.31-8.46-4.19-8.46-9.31-8.46S1773,53.45,1773,58.1Z"/><path id="_Path_22" data-name="&lt;Path&gt;" class="cls-17" d="M1717.36,58.1c0,5.35,4.82,9.73,10.71,9.73s10.71-4.38,10.71-9.73-4.82-9.73-10.71-9.73S1717.36,52.75,1717.36,58.1Z"/><path id="_Path_23" data-name="&lt;Path&gt;" class="cls-6" d="M1664.18,58.1c0,4.81,4.33,8.75,9.63,8.75s9.63-3.94,9.63-8.75-4.33-8.75-9.63-8.75S1664.18,53.29,1664.18,58.1Z"/><path id="_Path_24" data-name="&lt;Path&gt;" class="cls-11" d="M1610,58.1c0,4.76,4.28,8.65,9.52,8.65s9.52-3.89,9.52-8.65-4.28-8.65-9.52-8.65S1610,53.34,1610,58.1Z"/><path id="_Path_25" data-name="&lt;Path&gt;" class="cls-14" d="M1744.14,33.45c0,5.52,5,10,11.05,10s11.05-4.52,11.05-10-5-10-11.05-10S1744.14,27.92,1744.14,33.45Z"/><path id="_Path_26" data-name="&lt;Path&gt;" class="cls-10" d="M1690.07,33.45c0,5.43,4.89,9.87,10.86,9.87s10.86-4.44,10.86-9.87-4.89-9.87-10.86-9.87S1690.07,28,1690.07,33.45Z"/><path id="_Path_27" data-name="&lt;Path&gt;" class="cls-6" d="M1664.42,33.45c0,4.69,4.22,8.53,9.39,8.53s9.39-3.84,9.39-8.53-4.22-8.53-9.39-8.53S1664.42,28.76,1664.42,33.45Z"/><path id="_Path_28" data-name="&lt;Path&gt;" class="cls-18" d="M1712.27,58.1c0-5.66-5.1-10.29-11.33-10.29s-11.33,4.63-11.33,10.29c0,.08,0,.15,0,.23h0c.23,10.42-6.93,15.86-15.74,16.13-8.76-.41-14.87-4.08-14.36-15.86l0,0c0-.17,0-.33,0-.5,0-6.42-5.78-11.67-12.84-11.67s-12.84,5.25-12.84,11.67,5.78,11.67,12.84,11.67c.37,0,.74,0,1.1-.05l-.3.28c12.82-.74,16.86,5,17.42,13.27h0c.29,4.23,4.18,7.61,8.9,7.61s8.71-3.47,8.91-7.77h0c.38-8.28,7.18-15.09,18.5-14.64l-.08-.07C1707.28,68.28,1712.27,63.7,1712.27,58.1Z"/><path id="_Path_29" data-name="&lt;Path&gt;" class="cls-19" d="M1728.07,73.7c-5.48,0-10,4.07-10,9.05,0,0,0,.09,0,.14h0c.14,9.25-9.18,16.9-17.28,17l.17.17h-.06c-4.45,0-8.1,3.31-8.1,7.36s3.64,7.36,8.1,7.36,7.92-3.18,8.07-7.11l0,0c.29-7.51,8.73-16,18.68-15.67l-.26-.25c.21,0,.4.06.61.06,5.48,0,10-4.07,10-9.05S1733.54,73.7,1728.07,73.7Z"/><path id="_Path_30" data-name="&lt;Path&gt;" class="cls-20" d="M1637.76,154.88a9.16,9.16,0,0,0,7.18,11.09l.15,0h0c9.72,2,15.58,12.21,13.81,19.55l.21-.12,0,.06a7.45,7.45,0,0,0,5.83,9,8.07,8.07,0,0,0,9.59-5.61,7.42,7.42,0,0,0-5.58-8.94l0,0c-7.81-2-14.74-11.59-12.09-20.51l-.32.18c.06-.18.15-.35.2-.54a9.16,9.16,0,0,0-7.18-11.09A9.93,9.93,0,0,0,1637.76,154.88Z"/><path id="_Path_31" data-name="&lt;Path&gt;" class="cls-21" d="M1700.76,147.75c-9.87-.08-15.71-5.08-15.61-15.6h0s0-.06,0-.09c0-5.67-5.1-10.3-11.34-10.3s-11.34,4.64-11.34,10.3,5.1,10.3,11.34,10.3c.2,0,0,0,0,0,11.33-.32,17,5.45,17.25,14.61h0c.16,4.81,4.53,8.71,9.86,8.71s9.87-4,9.87-9-4.44-9-9.87-9Z"/><path id="_Path_32" data-name="&lt;Path&gt;" class="cls-22" d="M1755.19,48.68l-.37,0,.23-.22c-10.37.13-16.67-5.68-16.8-15.15h0c-.07-5-4.62-9.14-10.19-9.14s-10.19,4.17-10.19,9.26,4.59,9.26,10.19,9.26h.31l-.23.22c10.19-.08,16.59,5.64,16.67,15.27h0c0,5.15,4.69,9.35,10.37,9.35s10.37-4.24,10.37-9.42S1760.9,48.68,1755.19,48.68Z"/><path id="_Path_33" data-name="&lt;Path&gt;" class="cls-23" d="M1646.68,72.54c-6.18,0-11.24,4.6-11.24,10.21,0,0,0,.05,0,.08h0c.08,10.44-6.11,15.35-16,15.42l.21.2h-.14c-5.42,0-9.86,4-9.86,9s4.44,9,9.86,9,9.69-3.89,9.84-8.7h0c.29-9.15,5.71-14.79,16.95-14.49l-.26-.25.58,0c6.18,0,11.24-4.6,11.24-10.21S1652.86,72.54,1646.68,72.54Z"/></g></g><g id="_Group_3" data-name="&lt;Group&gt;"><g id="_Group_4" data-name="&lt;Group&gt;" class="cls-3"><path id="_Path_34" data-name="&lt;Path&gt;" class="cls-24" d="M706.34,842c0,9.19,8.27,16.7,18.38,16.7s18.38-7.52,18.38-16.7-8.27-16.7-18.38-16.7S706.34,832.82,706.34,842Z"/><path id="_Path_35" data-name="&lt;Path&gt;" class="cls-25" d="M777,867.69c0,4.94,4.45,9,9.89,9s9.89-4,9.89-9-4.45-9-9.89-9S777,862.75,777,867.69Z"/><path id="_Path_36" data-name="&lt;Path&gt;" class="cls-26" d="M848.21,877.73c0,10.46,9.42,19,20.93,19s20.93-8.56,20.93-19-9.42-19-20.93-19S848.21,867.26,848.21,877.73Z"/><path id="_Path_37" data-name="&lt;Path&gt;" class="cls-27" d="M806.35,877.73c0,8.37,7.54,15.22,16.75,15.22s16.75-6.85,16.75-15.22-7.54-15.22-16.75-15.22S806.35,869.36,806.35,877.73Z"/><path id="_Path_38" data-name="&lt;Path&gt;" class="cls-28" d="M995.2,836.44c0,6.5,5.85,11.82,13,11.82s13-5.32,13-11.82-5.85-11.82-13-11.82S995.2,829.93,995.2,836.44Z"/><path id="_Path_39" data-name="&lt;Path&gt;" class="cls-29" d="M940.51,835.88c0,10.36,9.33,18.83,20.73,18.83S982,846.24,982,835.88s-9.33-18.83-20.73-18.83S940.51,825.53,940.51,835.88Z"/><path id="_Path_40" data-name="&lt;Path&gt;" class="cls-30" d="M899.78,835.88c0,7.7,6.94,14,15.41,14s15.41-6.3,15.41-14-6.94-14-15.41-14S899.78,828.18,899.78,835.88Z"/><path id="_Path_41" data-name="&lt;Path&gt;" class="cls-27" d="M807.1,835.88c0,8,7.2,14.53,16,14.53s16-6.54,16-14.53-7.2-14.53-16-14.53S807.1,827.89,807.1,835.88Z"/><path id="_Path_42" data-name="&lt;Path&gt;" class="cls-31" d="M755.51,835.88c0,10.76,9.69,19.57,21.53,19.57s21.53-8.8,21.53-19.57-9.69-19.57-21.53-19.57S755.51,825.12,755.51,835.88Z"/><path id="_Path_43" data-name="&lt;Path&gt;" class="cls-32" d="M1030,794c0,11.66,10.5,21.2,23.33,21.2s23.33-9.54,23.33-21.2-10.5-21.2-23.33-21.2S1030,782.38,1030,794Z"/><path id="_Path_44" data-name="&lt;Path&gt;" class="cls-33" d="M987.13,794.6c0,9.45,8.51,17.19,18.91,17.19S1025,804.06,1025,794.6s-8.51-17.19-18.91-17.19S987.13,785.15,987.13,794.6Z"/><path id="_Path_45" data-name="&lt;Path&gt;" class="cls-29" d="M941.24,794.6c0,10,9,18.17,20,18.17s20-8.18,20-18.17-9-18.17-20-18.17S941.24,784.61,941.24,794.6Z"/><path id="_Path_46" data-name="&lt;Path&gt;" class="cls-26" d="M852.28,794c0,8.43,7.59,15.33,16.87,15.33S886,802.47,886,794s-7.59-15.33-16.87-15.33S852.28,785.61,852.28,794Z"/><path id="_Path_47" data-name="&lt;Path&gt;" class="cls-27" d="M806.28,794c0,8.4,7.57,15.28,16.82,15.28s16.82-6.88,16.82-15.28-7.57-15.28-16.82-15.28S806.28,785.64,806.28,794Z"/><path id="_Path_48" data-name="&lt;Path&gt;" class="cls-32" d="M1038.4,752.2c0,7.46,6.72,13.57,14.93,13.57s14.93-6.11,14.93-13.57-6.72-13.57-14.93-13.57S1038.4,744.74,1038.4,752.2Z"/><path id="_Path_49" data-name="&lt;Path&gt;" class="cls-34" d="M989.24,752.2c0,9,8.12,16.39,18,16.39s18-7.38,18-16.39-8.12-16.39-18-16.39S989.24,743.18,989.24,752.2Z"/><path id="_Path_50" data-name="&lt;Path&gt;" class="cls-30" d="M900.13,752.2c0,7.53,6.78,13.68,15.06,13.68s15.06-6.16,15.06-13.68-6.78-13.68-15.06-13.68S900.13,744.67,900.13,752.2Z"/><path id="_Path_51" data-name="&lt;Path&gt;" class="cls-35" d="M724.72,771.68c0,7.07,6.36,12.85,14.14,12.85S753,778.75,753,771.68s-6.36-12.85-14.14-12.85S724.72,764.62,724.72,771.68Z"/><path id="_Path_52" data-name="&lt;Path&gt;" class="cls-36" d="M724.72,804.69c0,5.59,5,10.15,11.18,10.15s11.18-4.57,11.18-10.15-5-10.15-11.18-10.15S724.72,799.11,724.72,804.69Z"/><path id="_Path_53" data-name="&lt;Path&gt;" class="cls-31" d="M759.44,752.2c0,8.8,7.92,16,17.61,16s17.61-7.2,17.61-16-7.92-16-17.61-16S759.44,743.4,759.44,752.2Z"/><path id="_Path_54" data-name="&lt;Path&gt;" class="cls-32" d="M1037.52,710.36c0,7.9,7.11,14.37,15.81,14.37s15.81-6.46,15.81-14.37S1062,696,1053.33,696,1037.52,702.46,1037.52,710.36Z"/><path id="_Path_55" data-name="&lt;Path&gt;" class="cls-29" d="M943.06,710.36c0,9.08,8.18,16.51,18.17,16.51s18.17-7.43,18.17-16.51-8.18-16.51-18.17-16.51S943.06,701.27,943.06,710.36Z"/><path id="_Path_56" data-name="&lt;Path&gt;" class="cls-26" d="M852.8,710.36c0,8.17,7.35,14.85,16.34,14.85s16.34-6.68,16.34-14.85-7.35-14.85-16.34-14.85S852.8,702.19,852.8,710.36Z"/><path id="_Path_57" data-name="&lt;Path&gt;" class="cls-31" d="M760.89,710.36c0,8.07,7.27,14.68,16.15,14.68s16.15-6.61,16.15-14.68-7.27-14.68-16.15-14.68S760.89,702.28,760.89,710.36Z"/><path id="_Path_58" data-name="&lt;Path&gt;" class="cls-34" d="M988.52,668.52c0,9.38,8.44,17,18.76,17s18.76-7.67,18.76-17-8.44-17-18.76-17S988.52,659.14,988.52,668.52Z"/><path id="_Path_59" data-name="&lt;Path&gt;" class="cls-30" d="M896.75,668.52c0,9.21,8.3,16.75,18.44,16.75s18.44-7.54,18.44-16.75-8.3-16.75-18.44-16.75S896.75,659.3,896.75,668.52Z"/><path id="_Path_60" data-name="&lt;Path&gt;" class="cls-26" d="M853.21,668.52c0,8,7.17,14.48,15.93,14.48s15.93-6.51,15.93-14.48S877.9,654,869.14,654,853.21,660.55,853.21,668.52Z"/><path id="_Path_61" data-name="&lt;Path&gt;" class="cls-37" d="M934.42,710.36c0-9.61-8.65-17.47-19.23-17.47S896,700.75,896,710.36c0,.13,0,.26,0,.39l0,0c.4,17.68-11.76,26.92-26.72,27.38-14.86-.7-25.25-6.93-24.37-26.92l0,0c0-.29,0-.57,0-.86,0-10.9-9.81-19.81-21.8-19.81s-21.8,8.91-21.8,19.81,9.81,19.81,21.8,19.81c.63,0,1.25,0,1.87-.09l-.51.48c21.76-1.26,28.61,8.47,29.56,22.52l0,0c.5,7.18,7.09,12.91,15.11,12.91s14.78-5.89,15.12-13.19l0,0c.64-14.06,12.19-25.61,31.4-24.86l-.14-.12C926,727.64,934.42,719.86,934.42,710.36Z"/><path id="_Path_62" data-name="&lt;Path&gt;" class="cls-38" d="M961.24,736.84c-9.3,0-16.91,6.91-16.91,15.36,0,.08,0,.16,0,.24l0,0c.23,15.7-15.59,28.69-29.33,28.86l.3.28h-.11c-7.56,0-13.75,5.62-13.75,12.49s6.19,12.49,13.75,12.49c7.4,0,13.45-5.4,13.7-12.08l0,0c.49-12.76,14.81-27.16,31.71-26.6l-.44-.42c.35,0,.69.1,1,.1,9.3,0,16.91-6.91,16.91-15.36S970.54,736.84,961.24,736.84Z"/><path id="_Path_63" data-name="&lt;Path&gt;" class="cls-39" d="M808,874.63c-2.15,8.4,3.33,16.87,12.18,18.83l.26,0,0,0c16.5,3.43,26.45,20.72,23.45,33.18l.36-.2s0,.06,0,.09c-1.75,6.83,2.71,13.72,9.9,15.31s14.52-2.69,16.27-9.52-2.54-13.4-9.48-15.17l0,0c-13.25-3.39-25-19.67-20.53-34.81l-.54.3c.1-.31.26-.6.34-.92,2.15-8.4-3.33-16.87-12.18-18.83S810.11,866.23,808,874.63Z"/><path id="_Path_64" data-name="&lt;Path&gt;" class="cls-40" d="M914.88,862.52c-16.76-.13-26.66-8.62-26.5-26.48h0c0-.05,0-.11,0-.16,0-9.62-8.66-17.48-19.24-17.48s-19.24,7.87-19.24,17.48,8.66,17.48,19.24,17.48c.34,0,0,0,0,0,19.23-.54,28.78,9.25,29.29,24.8l0,0c.27,8.17,7.68,14.78,16.73,14.78,9.22,0,16.76-6.85,16.76-15.23s-7.54-15.23-16.76-15.23Z"/><path id="_Path_65" data-name="&lt;Path&gt;" class="cls-41" d="M1007.29,694.36l-.63,0,.4-.38c-17.6.21-28.29-9.65-28.52-25.71h0c-.12-8.55-7.85-15.52-17.29-15.52s-17.3,7.07-17.3,15.72,7.79,15.72,17.3,15.72l.53,0-.39.37c17.3-.14,28.15,9.57,28.3,25.92h0c.08,8.74,8,15.86,17.59,15.86s17.6-7.2,17.6-16S1017,694.36,1007.29,694.36Z"/><path id="_Path_66" data-name="&lt;Path&gt;" class="cls-42" d="M823.1,734.86c-10.49,0-19.08,7.8-19.08,17.33,0,0,0,.09,0,.14h0c.14,17.71-10.36,26.06-27.09,26.18l.36.34H777c-9.2,0-16.73,6.84-16.73,15.2s7.53,15.2,16.73,15.2c9,0,16.45-6.61,16.71-14.77l0,0c.49-15.53,9.7-25.1,28.77-24.59l-.44-.42c.33,0,.66,0,1,0,10.49,0,19.08-7.8,19.08-17.33S833.59,734.86,823.1,734.86Z"/></g></g></g></g></svg>