<svg xmlns="http://www.w3.org/2000/svg" xmlns:xlink="http://www.w3.org/1999/xlink" width="328.98" height="258.3" viewBox="0 0 328.98 258.3"><defs><style>.cls-1{opacity:0.15;}.cls-2{opacity:0.28;}.cls-3{fill:url(#linear-gradient);}.cls-4{fill:url(#linear-gradient-2);}.cls-5{fill:url(#linear-gradient-3);}.cls-6{fill:url(#linear-gradient-4);}.cls-7{fill:url(#linear-gradient-5);}.cls-8{fill:url(#linear-gradient-6);}.cls-9{fill:url(#linear-gradient-7);}.cls-10{fill:url(#linear-gradient-9);}.cls-11{fill:url(#linear-gradient-10);}.cls-12{fill:url(#linear-gradient-11);}.cls-13{fill:url(#linear-gradient-16);}.cls-14{fill:url(#linear-gradient-18);}.cls-15{fill:url(#linear-gradient-19);}.cls-16{fill:url(#linear-gradient-28);}.cls-17{fill:url(#linear-gradient-29);}.cls-18{fill:url(#linear-gradient-30);}.cls-19{fill:url(#linear-gradient-31);}.cls-20{fill:url(#linear-gradient-32);}.cls-21{fill:url(#linear-gradient-33);}</style><linearGradient id="linear-gradient" x1="-1936.87" y1="13.8" x2="-1936.87" y2="183.63" gradientTransform="translate(1953.2)" gradientUnits="userSpaceOnUse"><stop offset="0.06" stop-color="#fff"/><stop offset="1" stop-color="#fff" stop-opacity="0"/></linearGradient><linearGradient id="linear-gradient-2" x1="-1881.6" y1="13.8" x2="-1881.6" y2="183.63" xlink:href="#linear-gradient"/><linearGradient id="linear-gradient-3" x1="-1808.57" y1="13.8" x2="-1808.57" y2="183.63" xlink:href="#linear-gradient"/><linearGradient id="linear-gradient-4" x1="-1849.48" y1="13.8" x2="-1849.48" y2="183.63" xlink:href="#linear-gradient"/><linearGradient id="linear-gradient-5" x1="-1685.03" y1="13.8" x2="-1685.03" y2="183.63" xlink:href="#linear-gradient"/><linearGradient id="linear-gradient-6" x1="-1726.76" y1="13.8" x2="-1726.76" y2="183.63" xlink:href="#linear-gradient"/><linearGradient id="linear-gradient-7" x1="-1767.67" y1="13.8" x2="-1767.67" y2="183.63" xlink:href="#linear-gradient"/><linearGradient id="linear-gradient-9" x1="-1890.39" y1="13.8" x2="-1890.39" y2="183.63" xlink:href="#linear-gradient"/><linearGradient id="linear-gradient-10" x1="-1644.94" y1="13.8" x2="-1644.94" y2="183.63" xlink:href="#linear-gradient"/><linearGradient id="linear-gradient-11" x1="-1686.95" y1="13.8" x2="-1686.95" y2="183.63" xlink:href="#linear-gradient"/><linearGradient id="linear-gradient-16" x1="-1685.85" y1="13.8" x2="-1685.85" y2="183.63" xlink:href="#linear-gradient"/><linearGradient id="linear-gradient-18" x1="-1924.31" y1="13.8" x2="-1924.31" y2="183.63" xlink:href="#linear-gradient"/><linearGradient id="linear-gradient-19" x1="-1926.94" y1="13.8" x2="-1926.94" y2="183.63" xlink:href="#linear-gradient"/><linearGradient id="linear-gradient-28" x1="-1809.72" y1="13.8" x2="-1809.72" y2="183.63" xlink:href="#linear-gradient"/><linearGradient id="linear-gradient-29" x1="-1745.81" y1="13.8" x2="-1745.81" y2="183.63" xlink:href="#linear-gradient"/><linearGradient id="linear-gradient-30" x1="-1835.27" y1="13.8" x2="-1835.27" y2="183.63" xlink:href="#linear-gradient"/><linearGradient id="linear-gradient-31" x1="-1789.22" y1="13.8" x2="-1789.22" y2="183.63" xlink:href="#linear-gradient"/><linearGradient id="linear-gradient-32" x1="-1706.17" y1="13.8" x2="-1706.17" y2="183.63" xlink:href="#linear-gradient"/><linearGradient id="linear-gradient-33" x1="-1868.89" y1="13.8" x2="-1868.89" y2="183.63" xlink:href="#linear-gradient"/></defs><title>bg-header</title><g id="Layer_2" data-name="Layer 2"><g id="Layer_1-2" data-name="Layer 1"><g id="_Group_" data-name="&lt;Group&gt;" class="cls-1"><g id="_Group_2" data-name="&lt;Group&gt;" class="cls-2"><path id="_Path_" data-name="&lt;Path&gt;" class="cls-3" d="M0,169.27c0,8.16,7.35,14.84,16.33,14.84s16.33-6.68,16.33-14.84-7.35-14.84-16.33-14.84S0,161.11,0,169.27Z"/><path id="_Path_2" data-name="&lt;Path&gt;" class="cls-4" d="M62.81,192.09c0,4.39,4,8,8.79,8s8.79-3.59,8.79-8-4-8-8.79-8S62.81,187.7,62.81,192.09Z"/><path id="_Path_3" data-name="&lt;Path&gt;" class="cls-5" d="M126,201c0,9.29,8.37,16.9,18.59,16.9s18.59-7.6,18.59-16.9-8.37-16.9-18.59-16.9S126,191.71,126,201Z"/><path id="_Path_4" data-name="&lt;Path&gt;" class="cls-6" d="M88.84,201c0,7.44,6.69,13.52,14.88,13.52S118.6,208.44,118.6,201s-6.69-13.52-14.88-13.52S88.84,193.57,88.84,201Z"/><path id="_Path_5" data-name="&lt;Path&gt;" class="cls-7" d="M256.61,164.32c0,5.78,5.2,10.5,11.56,10.5s11.56-4.73,11.56-10.5-5.2-10.5-11.56-10.5S256.61,158.54,256.61,164.32Z"/><path id="_Path_6" data-name="&lt;Path&gt;" class="cls-8" d="M208,163.83c0,9.2,8.29,16.73,18.41,16.73s18.41-7.53,18.41-16.73-8.29-16.73-18.41-16.73S208,154.63,208,163.83Z"/><path id="_Path_7" data-name="&lt;Path&gt;" class="cls-9" d="M171.84,163.83c0,6.84,6.16,12.44,13.69,12.44s13.69-5.6,13.69-12.44-6.16-12.44-13.69-12.44S171.84,157,171.84,163.83Z"/><path id="_Path_8" data-name="&lt;Path&gt;" class="cls-6" d="M89.51,163.83c0,7.1,6.39,12.91,14.21,12.91s14.21-5.81,14.21-12.91-6.39-12.91-14.21-12.91S89.51,156.73,89.51,163.83Z"/><path id="_Path_9" data-name="&lt;Path&gt;" class="cls-10" d="M43.68,163.83c0,9.56,8.61,17.38,19.13,17.38s19.13-7.82,19.13-17.38-8.61-17.38-19.13-17.38S43.68,154.27,43.68,163.83Z"/><path id="_Path_10" data-name="&lt;Path&gt;" class="cls-11" d="M287.53,126.66c0,10.36,9.33,18.83,20.73,18.83S329,137,329,126.66s-9.33-18.83-20.73-18.83S287.53,116.3,287.53,126.66Z"/><path id="_Path_11" data-name="&lt;Path&gt;" class="cls-12" d="M249.44,127.16c0,8.4,7.56,15.27,16.8,15.27s16.8-6.87,16.8-15.27-7.56-15.27-16.8-15.27S249.44,118.76,249.44,127.16Z"/><path id="_Path_12" data-name="&lt;Path&gt;" class="cls-8" d="M208.68,127.16c0,8.88,8,16.14,17.77,16.14s17.77-7.26,17.77-16.14-8-16.14-17.77-16.14S208.68,118.28,208.68,127.16Z"/><path id="_Path_13" data-name="&lt;Path&gt;" class="cls-5" d="M129.64,126.66c0,7.49,6.74,13.62,15,13.62s15-6.13,15-13.62-6.74-13.62-15-13.62S129.64,119.17,129.64,126.66Z"/><path id="_Path_14" data-name="&lt;Path&gt;" class="cls-6" d="M88.78,126.66c0,7.47,6.72,13.58,14.94,13.58s14.94-6.11,14.94-13.58-6.72-13.58-14.94-13.58S88.78,119.19,88.78,126.66Z"/><path id="_Path_15" data-name="&lt;Path&gt;" class="cls-11" d="M295,89.49c0,6.63,6,12.05,13.26,12.05s13.26-5.42,13.26-12.05-6-12.05-13.26-12.05S295,82.86,295,89.49Z"/><path id="_Path_16" data-name="&lt;Path&gt;" class="cls-13" d="M251.32,89.49c0,8,7.21,14.56,16,14.56s16-6.55,16-14.56-7.21-14.56-16-14.56S251.32,81.48,251.32,89.49Z"/><path id="_Path_17" data-name="&lt;Path&gt;" class="cls-9" d="M172.16,89.49c0,6.69,6,12.15,13.38,12.15s13.38-5.47,13.38-12.15-6-12.15-13.38-12.15S172.16,82.8,172.16,89.49Z"/><path id="_Path_18" data-name="&lt;Path&gt;" class="cls-14" d="M16.33,106.8c0,6.28,5.65,11.41,12.56,11.41s12.56-5.14,12.56-11.41S35.79,95.38,28.89,95.38,16.33,100.52,16.33,106.8Z"/><path id="_Path_19" data-name="&lt;Path&gt;" class="cls-15" d="M16.33,136.12c0,5,4.47,9,9.93,9s9.93-4.06,9.93-9-4.47-9-9.93-9S16.33,131.16,16.33,136.12Z"/><path id="_Path_20" data-name="&lt;Path&gt;" class="cls-10" d="M47.17,89.49c0,7.82,7,14.21,15.64,14.21s15.64-6.4,15.64-14.21-7-14.21-15.64-14.21S47.17,81.67,47.17,89.49Z"/><path id="_Path_21" data-name="&lt;Path&gt;" class="cls-11" d="M294.21,52.32c0,7,6.32,12.76,14,12.76s14-5.74,14-12.76-6.32-12.76-14-12.76S294.21,45.3,294.21,52.32Z"/><path id="_Path_22" data-name="&lt;Path&gt;" class="cls-8" d="M210.3,52.32c0,8.07,7.27,14.67,16.14,14.67s16.14-6.6,16.14-14.67-7.27-14.67-16.14-14.67S210.3,44.25,210.3,52.32Z"/><path id="_Path_23" data-name="&lt;Path&gt;" class="cls-5" d="M130.11,52.32c0,7.25,6.53,13.19,14.52,13.19s14.52-5.94,14.52-13.19-6.53-13.19-14.52-13.19S130.11,45.06,130.11,52.32Z"/><path id="_Path_24" data-name="&lt;Path&gt;" class="cls-10" d="M48.46,52.32c0,7.17,6.46,13,14.35,13s14.35-5.87,14.35-13-6.46-13-14.35-13S48.46,45.14,48.46,52.32Z"/><path id="_Path_25" data-name="&lt;Path&gt;" class="cls-13" d="M250.68,15.15c0,8.33,7.5,15.15,16.67,15.15S284,23.48,284,15.15,276.51,0,267.35,0,250.68,6.82,250.68,15.15Z"/><path id="_Path_26" data-name="&lt;Path&gt;" class="cls-9" d="M169.15,15.15c0,8.19,7.37,14.88,16.38,14.88s16.38-6.7,16.38-14.88S194.54.26,185.53.26,169.15,7,169.15,15.15Z"/><path id="_Path_27" data-name="&lt;Path&gt;" class="cls-5" d="M130.47,15.15c0,7.07,6.37,12.86,14.15,12.86s14.15-5.79,14.15-12.86S152.41,2.29,144.63,2.29,130.47,8.07,130.47,15.15Z"/><path id="_Path_28" data-name="&lt;Path&gt;" class="cls-16" d="M202.62,52.32c0-8.54-7.69-15.52-17.08-15.52s-17.08,7-17.08,15.52c0,.12,0,.23,0,.34h0C168.81,68.36,158,76.56,144.72,77c-13.2-.62-22.43-6.16-21.65-23.92l0,0c0-.25,0-.5,0-.76,0-9.68-8.72-17.6-19.37-17.6s-19.37,7.92-19.37,17.6,8.72,17.6,19.37,17.6c.56,0,1.11,0,1.66-.08l-.45.43c19.33-1.12,25.42,7.53,26.26,20l0,0c.44,6.37,6.3,11.47,13.42,11.47S157.76,96.49,158.06,90l0,0c.57-12.49,10.83-22.76,27.89-22.08l-.13-.11C195.1,67.67,202.62,60.76,202.62,52.32Z"/><path id="_Path_29" data-name="&lt;Path&gt;" class="cls-17" d="M226.44,75.84c-8.26,0-15,6.14-15,13.65,0,.07,0,.14,0,.21l0,0c.21,13.95-13.85,25.49-26.06,25.64l.26.25h-.1c-6.72,0-12.21,5-12.21,11.1s5.5,11.1,12.21,11.1S197.48,133,197.7,127l0,0c.43-11.33,13.16-24.13,28.17-23.63l-.39-.37c.31,0,.61.09.93.09,8.26,0,15-6.14,15-13.65S234.7,75.84,226.44,75.84Z"/><path id="_Path_30" data-name="&lt;Path&gt;" class="cls-18" d="M90.27,198.25c-1.91,7.46,3,15,10.82,16.73l.23,0,0,0c14.66,3,23.5,18.41,20.83,29.47l.32-.18,0,.08a11.23,11.23,0,0,0,8.8,13.6c6.39,1.41,12.9-2.39,14.45-8.46a11.19,11.19,0,0,0-8.42-13.48l0,0c-11.77-3-22.23-17.48-18.24-30.92l-.48.27c.09-.28.23-.53.3-.82,1.91-7.46-3-15-10.82-16.73S92.18,190.79,90.27,198.25Z"/><path id="_Path_31" data-name="&lt;Path&gt;" class="cls-19" d="M185.26,187.49c-14.89-.12-23.69-7.66-23.54-23.53h0s0-.09,0-.14c0-8.54-7.69-15.53-17.09-15.53s-17.09,7-17.09,15.53,7.69,15.53,17.09,15.53c.31,0,0,0,0,0,17.09-.48,25.57,8.21,26,22l0,0c.24,7.26,6.83,13.13,14.86,13.13s14.89-6.09,14.89-13.53-6.7-13.53-14.89-13.53Z"/><path id="_Path_32" data-name="&lt;Path&gt;" class="cls-20" d="M267.35,38.11l-.56,0,.35-.33C251.51,38,242,29.23,241.81,15h0c-.11-7.6-7-13.79-15.36-13.79s-15.37,6.28-15.37,14,6.92,14,15.37,14l.47,0-.34.33c15.37-.12,25,8.51,25.14,23h0c.07,7.76,7.07,14.09,15.63,14.09S283,60.13,283,52.32,275.95,38.11,267.35,38.11Z"/><path id="_Path_33" data-name="&lt;Path&gt;" class="cls-21" d="M103.72,74.09c-9.32,0-16.95,6.93-16.95,15.4,0,0,0,.08,0,.12h0c.13,15.74-9.21,23.15-24.07,23.25l.32.3h-.21c-8.18,0-14.86,6.08-14.86,13.51s6.69,13.51,14.86,13.51S77.43,134.3,77.65,127h0c.43-13.8,8.62-22.3,25.56-21.84l-.39-.37c.29,0,.58,0,.88,0,9.32,0,16.95-6.93,16.95-15.4S113,74.09,103.72,74.09Z"/></g></g></g></g></svg>