<svg xmlns="http://www.w3.org/2000/svg" width="112.32" height="79.96" viewBox="0 0 112.32 79.96"><defs><style>.cls-1{fill:#f58a1f;}</style></defs><title>logo-brain</title><g id="Layer_2" data-name="Layer 2"><g id="Layer_1-2" data-name="Layer 1"><g id="_Group_" data-name="&lt;Group&gt;"><g id="_Group_2" data-name="&lt;Group&gt;"><g id="_Group_3" data-name="&lt;Group&gt;"><ellipse id="_Path_" data-name="&lt;Path&gt;" class="cls-1" cx="43.45" cy="25.48" rx="2.28" ry="2.23"/><ellipse id="_Path_2" data-name="&lt;Path&gt;" class="cls-1" cx="51.18" cy="28.91" rx="1.23" ry="1.2"/><ellipse id="_Path_3" data-name="&lt;Path&gt;" class="cls-1" cx="61.38" cy="30.25" rx="2.6" ry="2.54"/><ellipse id="_Path_4" data-name="&lt;Path&gt;" class="cls-1" cx="55.67" cy="30.25" rx="2.08" ry="2.03"/><ellipse id="_Path_5" data-name="&lt;Path&gt;" class="cls-1" cx="78.65" cy="24.73" rx="1.62" ry="1.58"/><ellipse id="_Path_6" data-name="&lt;Path&gt;" class="cls-1" cx="72.82" cy="24.66" rx="2.57" ry="2.52"/><ellipse id="_Path_7" data-name="&lt;Path&gt;" class="cls-1" cx="67.1" cy="24.66" rx="1.91" ry="1.87"/><ellipse id="_Path_8" data-name="&lt;Path&gt;" class="cls-1" cx="55.67" cy="24.66" rx="1.99" ry="1.94"/><ellipse id="_Path_9" data-name="&lt;Path&gt;" class="cls-1" cx="49.95" cy="24.66" rx="2.67" ry="2.62"/><ellipse id="_Path_10" data-name="&lt;Path&gt;" class="cls-1" cx="84.25" cy="19.06" rx="2.9" ry="2.83"/><ellipse id="_Path_11" data-name="&lt;Path&gt;" class="cls-1" cx="78.38" cy="19.14" rx="2.35" ry="2.3"/><ellipse id="_Path_12" data-name="&lt;Path&gt;" class="cls-1" cx="72.82" cy="19.14" rx="2.48" ry="2.43"/><ellipse id="_Path_13" data-name="&lt;Path&gt;" class="cls-1" cx="61.38" cy="19.06" rx="2.09" ry="2.05"/><ellipse id="_Path_14" data-name="&lt;Path&gt;" class="cls-1" cx="55.67" cy="19.06" rx="2.09" ry="2.04"/><ellipse id="_Path_15" data-name="&lt;Path&gt;" class="cls-1" cx="84.25" cy="13.47" rx="1.85" ry="1.81"/><ellipse id="_Path_16" data-name="&lt;Path&gt;" class="cls-1" cx="78.53" cy="13.47" rx="2.24" ry="2.19"/><ellipse id="_Path_17" data-name="&lt;Path&gt;" class="cls-1" cx="67.1" cy="13.47" rx="1.87" ry="1.83"/><ellipse id="_Path_18" data-name="&lt;Path&gt;" class="cls-1" cx="45.21" cy="16.07" rx="1.76" ry="1.72"/><ellipse id="_Path_19" data-name="&lt;Path&gt;" class="cls-1" cx="44.84" cy="20.49" rx="1.39" ry="1.36"/><ellipse id="_Path_20" data-name="&lt;Path&gt;" class="cls-1" cx="49.95" cy="13.47" rx="2.19" ry="2.14"/><ellipse id="_Path_21" data-name="&lt;Path&gt;" class="cls-1" cx="84.25" cy="7.87" rx="1.96" ry="1.92"/><ellipse id="_Path_22" data-name="&lt;Path&gt;" class="cls-1" cx="72.82" cy="7.87" rx="2.26" ry="2.21"/><ellipse id="_Path_23" data-name="&lt;Path&gt;" class="cls-1" cx="61.38" cy="7.87" rx="2.03" ry="1.99"/><ellipse id="_Path_24" data-name="&lt;Path&gt;" class="cls-1" cx="49.95" cy="7.87" rx="2.01" ry="1.96"/><ellipse id="_Path_25" data-name="&lt;Path&gt;" class="cls-1" cx="78.53" cy="2.28" rx="2.33" ry="2.28"/><ellipse id="_Path_26" data-name="&lt;Path&gt;" class="cls-1" cx="67.1" cy="2.28" rx="2.29" ry="2.24"/><ellipse id="_Path_27" data-name="&lt;Path&gt;" class="cls-1" cx="61.38" cy="2.28" rx="1.98" ry="1.94"/><path id="_Path_28" data-name="&lt;Path&gt;" class="cls-1" d="M69.49,7.87a2.39,2.39,0,0,0-4.77,0s0,0,0,.05h0a3.3,3.3,0,0,1-3.32,3.66c-1.85-.09-3.13-.93-3-3.6h0s0-.08,0-.11a2.71,2.71,0,1,0-2.71,2.65h.23l-.06.06c2.7-.17,3.55,1.13,3.67,3h0a1.88,1.88,0,0,0,3.75,0h0a3.47,3.47,0,0,1,3.9-3.32l0,0A2.37,2.37,0,0,0,69.49,7.87Z"/><path id="_Path_29" data-name="&lt;Path&gt;" class="cls-1" d="M72.82,11.41a2.08,2.08,0,0,0-2.1,2.05s0,0,0,0h0a4,4,0,0,1-3.64,3.86l0,0h0a1.67,1.67,0,1,0,1.7,1.73h0a4,4,0,0,1,3.94-3.56l-.06-.06h.13a2.05,2.05,0,1,0,0-4.11Z"/><path id="_Path_30" data-name="&lt;Path&gt;" class="cls-1" d="M53.79,29.84a2.08,2.08,0,0,0,1.51,2.52h0a4,4,0,0,1,2.91,4.44l0,0h0a1.67,1.67,0,1,0,2.07-1.25h0a4,4,0,0,1-2.55-4.65l-.07,0s0-.08,0-.12a2.05,2.05,0,1,0-4-1Z"/><path id="_Path_31" data-name="&lt;Path&gt;" class="cls-1" d="M67.06,28.22c-2.08,0-3.31-1.15-3.29-3.54h0v0A2.39,2.39,0,1,0,61.38,27s0,0,0,0c2.39-.07,3.57,1.24,3.64,3.32h0a2.08,2.08,0,1,0,2.08-2.1Z"/><path id="_Path_32" data-name="&lt;Path&gt;" class="cls-1" d="M78.53,5.74h-.08l0-.05A3.22,3.22,0,0,1,75,2.25h0a2.15,2.15,0,0,0-4.29,0,2.13,2.13,0,0,0,2.15,2.1h.07l0,0a3.22,3.22,0,0,1,3.51,3.47h0a2.19,2.19,0,1,0,2.18-2.16Z"/><path id="_Path_33" data-name="&lt;Path&gt;" class="cls-1" d="M55.67,11.15a2.35,2.35,0,0,0-2.37,2.32v0h0c0,2.37-1.29,3.48-3.36,3.5l0,0h0A2,2,0,1,0,52,19.12h0c.06-2.08,1.2-3.36,3.57-3.29l-.05-.06h.12a2.32,2.32,0,1,0,0-4.64Z"/></g><g id="_Group_4" data-name="&lt;Group&gt;"><path id="_Compound_Path_" data-name="&lt;Compound Path&gt;" class="cls-1" d="M2.69,78.38V75.74A.87.87,0,0,0,2.35,75a1.27,1.27,0,0,0-.79-.24,1.26,1.26,0,0,0-1.14.54v3.08H0v-3.2a1.78,1.78,0,0,1,1.56-.82,1.76,1.76,0,0,1,1.08.33,1.18,1.18,0,0,1,.47,1v2.71Z"/><path id="_Compound_Path_2" data-name="&lt;Compound Path&gt;" class="cls-1" d="M5.43,78.38V75.84q0-1.09-1-1.09a1.16,1.16,0,0,0-.4.07,1.84,1.84,0,0,0-.4.21V74.6a2.06,2.06,0,0,1,.4-.17,1.44,1.44,0,0,1,.42-.06,1.33,1.33,0,0,1,1,.41,1.21,1.21,0,0,1,.25.44,1.75,1.75,0,0,1,.08.55v2.61Z"/><path id="_Compound_Path_3" data-name="&lt;Compound Path&gt;" class="cls-1" d="M9.63,77.15a1.16,1.16,0,0,1-.49,1,1.74,1.74,0,0,1-1.09.33A1.75,1.75,0,0,1,7,78.12a1.21,1.21,0,0,1-.49-1h.42a.85.85,0,0,0,.37.73,1.33,1.33,0,0,0,.8.23,1.36,1.36,0,0,0,.79-.23.77.77,0,0,0,.36-.67q0-.6-1.11-.74a3.86,3.86,0,0,1-1-.24.71.71,0,0,1-.49-.67A.93.93,0,0,1,7,74.71a1.61,1.61,0,0,1,1-.32,1.91,1.91,0,0,1,1,.26,1.27,1.27,0,0,1,.57.87H9.16A1.08,1.08,0,0,0,8,74.79a1.23,1.23,0,0,0-.67.18.59.59,0,0,0-.32.49q0,.26.39.4l.28.06.49.07Q9.63,76.2,9.63,77.15Z"/><path id="_Compound_Path_4" data-name="&lt;Compound Path&gt;" class="cls-1" d="M12.92,78.09a1.7,1.7,0,0,1-1.09.36,1.65,1.65,0,0,1-1.09-.36,1.17,1.17,0,0,1-.47-1V74.44h.42v2.69a.78.78,0,0,0,.09.37.89.89,0,0,0,.24.29,1.15,1.15,0,0,0,.36.19,1.42,1.42,0,0,0,.44.07,1.4,1.4,0,0,0,.44-.07,1.15,1.15,0,0,0,.36-.19.89.89,0,0,0,.24-.29.79.79,0,0,0,.09-.37V73.49h.42v3.63A1.19,1.19,0,0,1,12.92,78.09Z"/><path id="_Compound_Path_5" data-name="&lt;Compound Path&gt;" class="cls-1" d="M16.94,79.86l-.54-.54-.53.63-.53-.63-.55.54h-1v-.41h.86l.69-.66.52.6.53-.6.51.48V75.74a1,1,0,0,0-.08-.41.81.81,0,0,0-.25-.31,1.27,1.27,0,0,0-.8-.24,1.26,1.26,0,0,0-1.14.54v3.08h-.85V78h.42V75.18a1.78,1.78,0,0,1,1.56-.82,1.74,1.74,0,0,1,1.08.33,1.18,1.18,0,0,1,.47,1v4.19Z"/><path id="_Compound_Path_6" data-name="&lt;Compound Path&gt;" class="cls-1" d="M14.27,73.94v-.39h3.06v.39Z"/><path id="_Compound_Path_7" data-name="&lt;Compound Path&gt;" class="cls-1" d="M21.13,77.15a1.16,1.16,0,0,1-.49,1,2,2,0,0,1-2.2,0,1.21,1.21,0,0,1-.49-1h.42a.85.85,0,0,0,.37.73,1.33,1.33,0,0,0,.8.23,1.36,1.36,0,0,0,.79-.23.77.77,0,0,0,.36-.67q0-.6-1.11-.74a3.86,3.86,0,0,1-1-.24.71.71,0,0,1-.49-.67.93.93,0,0,1,.42-.79,1.61,1.61,0,0,1,1-.32,1.91,1.91,0,0,1,1,.26,1.27,1.27,0,0,1,.57.87h-.43a1.08,1.08,0,0,0-1.16-.73,1.23,1.23,0,0,0-.67.18.59.59,0,0,0-.32.49q0,.26.39.4l.28.06.49.07Q21.13,76.2,21.13,77.15Z"/><path id="_Compound_Path_8" data-name="&lt;Compound Path&gt;" class="cls-1" d="M20.91,79.56a.7.7,0,0,1-.17.21.83.83,0,0,1-.25.14.9.9,0,0,1-.3.05.85.85,0,0,1-.74-.35v-.44h-.31v-.39h.73v.7a.39.39,0,0,0,.33.13q.35,0,.35-.28v-.54H21v.53A.52.52,0,0,1,20.91,79.56Z"/><path id="_Compound_Path_9" data-name="&lt;Compound Path&gt;" class="cls-1" d="M24.41,78.09a1.7,1.7,0,0,1-1.09.36,1.65,1.65,0,0,1-1.09-.36,1.17,1.17,0,0,1-.47-1V74.44h.42v2.69a.78.78,0,0,0,.09.37.89.89,0,0,0,.24.29,1.15,1.15,0,0,0,.36.19,1.42,1.42,0,0,0,.44.07,1.4,1.4,0,0,0,.44-.07,1.15,1.15,0,0,0,.36-.19.89.89,0,0,0,.24-.29.79.79,0,0,0,.09-.37V73.49h.42v3.63A1.19,1.19,0,0,1,24.41,78.09Z"/><path id="_Compound_Path_10" data-name="&lt;Compound Path&gt;" class="cls-1" d="M28.17,75.52A1.16,1.16,0,0,0,27,74.8a1.53,1.53,0,0,0-.37,0,1.28,1.28,0,0,0-.31.12.73.73,0,0,0-.21.17.3.3,0,0,0-.08.19q0,.23.38.35a6.31,6.31,0,0,0,.75.15,2.16,2.16,0,0,1,1.12.46,1.13,1.13,0,0,1,.37.88,1.09,1.09,0,0,1-.52,1,2.18,2.18,0,0,1-1.21.31,3.85,3.85,0,0,1-.62-.05,4.28,4.28,0,0,1-.64-.16V76.31l.41-.14V77.9a1.74,1.74,0,0,0,.39.1,3.35,3.35,0,0,0,.46,0,1.77,1.77,0,0,0,.89-.21.73.73,0,0,0,.41-.66q0-.74-1.13-.92l-.64-.13A2.11,2.11,0,0,1,26,76a.66.66,0,0,1-.48-.61.85.85,0,0,1,.47-.72,1.83,1.83,0,0,1,1-.26,1.5,1.5,0,0,1,1.63,1.14Z"/><path id="_Compound_Path_11" data-name="&lt;Compound Path&gt;" class="cls-1" d="M28,79.91v-.74h-.4v-.39h.82v1.13Z"/><path id="_Compound_Path_12" data-name="&lt;Compound Path&gt;" class="cls-1" d="M32.25,77.15a1.16,1.16,0,0,1-.49,1,2,2,0,0,1-2.2,0,1.21,1.21,0,0,1-.49-1h.42a.85.85,0,0,0,.37.73,1.33,1.33,0,0,0,.8.23,1.36,1.36,0,0,0,.79-.23.77.77,0,0,0,.36-.67q0-.6-1.11-.74a3.86,3.86,0,0,1-1-.24.71.71,0,0,1-.49-.67.93.93,0,0,1,.42-.79,1.61,1.61,0,0,1,1-.32,1.91,1.91,0,0,1,1,.26,1.27,1.27,0,0,1,.57.87h-.43a1.08,1.08,0,0,0-1.16-.73,1.23,1.23,0,0,0-.67.18.59.59,0,0,0-.32.49q0,.26.39.4l.28.06.49.07Q32.25,76.2,32.25,77.15Z"/><path id="_Compound_Path_13" data-name="&lt;Compound Path&gt;" class="cls-1" d="M35.57,78.38V75.74a.87.87,0,0,0-.34-.73,1.46,1.46,0,0,0-1.93.29v3.08h-.42v-3.2a1.92,1.92,0,0,1,2.64-.49,1.18,1.18,0,0,1,.47,1v2.71Z"/><path id="_Compound_Path_14" data-name="&lt;Compound Path&gt;" class="cls-1" d="M32.94,73.94v-.39H36v.39Z"/><path id="_Compound_Path_15" data-name="&lt;Compound Path&gt;" class="cls-1" d="M39.92,76.33a2,2,0,0,1-2.28,2.08l-.47-2.05h-.39v-.41h.75L38,78a1.44,1.44,0,0,0,1.08-.48,1.75,1.75,0,0,0,.43-1.18,1.81,1.81,0,0,0-.1-.62,1.44,1.44,0,0,0-.29-.49,1.3,1.3,0,0,0-.45-.32,1.42,1.42,0,0,0-.57-.11,1.85,1.85,0,0,0-1.34.59l-.34-.28a2.26,2.26,0,0,1,1.69-.73,1.69,1.69,0,0,1,1.32.55,1.84,1.84,0,0,1,.37.62A2.37,2.37,0,0,1,39.92,76.33Z"/><path id="_Compound_Path_16" data-name="&lt;Compound Path&gt;" class="cls-1" d="M40.65,78.38V74.44h.41v3.94Zm1,0V74.44h.41v3.94Z"/><path id="_Compound_Path_17" data-name="&lt;Compound Path&gt;" class="cls-1" d="M45.77,78.38v-1.6a1,1,0,0,0-.2-.29,1.38,1.38,0,0,0-.3-.22,1.51,1.51,0,0,0-.36-.14,1.67,1.67,0,0,0-.41-.05,1.46,1.46,0,0,0-.51.08,1.16,1.16,0,0,0-.39.23,1,1,0,0,0-.25.35,1.12,1.12,0,0,0-.09.44.88.88,0,0,0,.06.31.91.91,0,0,0,.15.26.71.71,0,0,0,.22.18A.61.61,0,0,0,44,78a.9.9,0,0,0,.26,0,.93.93,0,0,0,.25-.12l.26.34a1.36,1.36,0,0,1-.37.18,1.31,1.31,0,0,1-.4.06,1,1,0,0,1-.82-.37,1.31,1.31,0,0,1-.32-.88,1.43,1.43,0,0,1,.43-1.05,1.68,1.68,0,0,1,1.23-.47,2.13,2.13,0,0,1,.71.11,1.56,1.56,0,0,1,.56.34v-.42a.78.78,0,0,0-.09-.37.81.81,0,0,0-.26-.29,1.3,1.3,0,0,0-.37-.19,1.39,1.39,0,0,0-.44-.07,1.28,1.28,0,0,0-.38.06,1.32,1.32,0,0,0-.34.15,1.21,1.21,0,0,0-.27.24,1.06,1.06,0,0,0-.18.3H43a1.41,1.41,0,0,1,.23-.47,1.7,1.7,0,0,1,.38-.37,1.75,1.75,0,0,1,.48-.23,1.82,1.82,0,0,1,.55-.08,1.68,1.68,0,0,1,1.09.38,1.16,1.16,0,0,1,.47.95v2.69Z"/><path id="_Compound_Path_18" data-name="&lt;Compound Path&gt;" class="cls-1" d="M46.83,75.61v-.68h.42v.26h.64v.42Zm0,2.28v-.68h.42v.27h.64v.41Z"/><path id="_Compound_Path_19" data-name="&lt;Compound Path&gt;" class="cls-1" d="M51.26,78.38V76.79a1,1,0,0,0-.2-.29,1.35,1.35,0,0,0-.3-.22,1.47,1.47,0,0,0-.36-.14,1.62,1.62,0,0,0-.41-.05,1.49,1.49,0,0,0-.51.08,1.18,1.18,0,0,0-.39.23,1,1,0,0,0-.25.35,1.12,1.12,0,0,0-.09.44.88.88,0,0,0,.06.31.91.91,0,0,0,.15.26.72.72,0,0,0,.22.18.61.61,0,0,0,.28.07.92.92,0,0,0,.51-.17l.26.34a1.36,1.36,0,0,1-.37.18,1.31,1.31,0,0,1-.4.06,1,1,0,0,1-.82-.37,1.35,1.35,0,0,1-.24-.4,1.31,1.31,0,0,1-.08-.47,1.44,1.44,0,0,1,.43-1.05A1.69,1.69,0,0,1,50,75.67a1.78,1.78,0,0,1,1.27.45v-.43a.78.78,0,0,0-.09-.37.81.81,0,0,0-.26-.29,1.3,1.3,0,0,0-.37-.19,1.39,1.39,0,0,0-.44-.07,1.28,1.28,0,0,0-.38.06,1.32,1.32,0,0,0-.34.15,1.26,1.26,0,0,0-.27.23,1,1,0,0,0-.18.3h-.44a1.39,1.39,0,0,1,.23-.47,1.67,1.67,0,0,1,.38-.36,1.77,1.77,0,0,1,.48-.23,1.82,1.82,0,0,1,.55-.08,1.73,1.73,0,0,1,.71.15l.35-.39.34.25-.31.36a1.22,1.22,0,0,1,.48,1v2.69Z"/><path id="_Compound_Path_20" data-name="&lt;Compound Path&gt;" class="cls-1" d="M55.49,77.15a1.16,1.16,0,0,1-.49,1,2,2,0,0,1-2.2,0,1.21,1.21,0,0,1-.49-1h.42a.85.85,0,0,0,.37.73,1.33,1.33,0,0,0,.8.23,1.36,1.36,0,0,0,.79-.23.77.77,0,0,0,.36-.67q0-.6-1.11-.74a3.86,3.86,0,0,1-1-.24.71.71,0,0,1-.49-.67.93.93,0,0,1,.42-.79,1.61,1.61,0,0,1,1-.32,1.91,1.91,0,0,1,1,.26,1.27,1.27,0,0,1,.57.87H55a1.08,1.08,0,0,0-1.16-.73,1.23,1.23,0,0,0-.67.18.59.59,0,0,0-.32.49q0,.26.39.4l.28.06L54,76Q55.49,76.2,55.49,77.15Z"/><path id="_Compound_Path_21" data-name="&lt;Compound Path&gt;" class="cls-1" d="M54.3,73.94v-.24c0-.11,0-.16-.14-.16H54v-.39h.23q.47,0,.47.36v0H56v.39Z"/><path id="_Compound_Path_22" data-name="&lt;Compound Path&gt;" class="cls-1" d="M57.64,78.38V75.84q0-1.09-1-1.09a1.16,1.16,0,0,0-.4.07,1.84,1.84,0,0,0-.4.21V74.6a2.06,2.06,0,0,1,.4-.17,1.44,1.44,0,0,1,.42-.06,1.33,1.33,0,0,1,1,.41,1.21,1.21,0,0,1,.25.44,1.75,1.75,0,0,1,.08.55v2.61Z"/><path id="_Compound_Path_23" data-name="&lt;Compound Path&gt;" class="cls-1" d="M61.9,76.41a2.28,2.28,0,0,1-.14.84,1.73,1.73,0,0,1-.41.63,1.78,1.78,0,0,1-.66.39,2.65,2.65,0,0,1-.87.13h-.37l-1-3.86.43-.1L59.79,78a2.06,2.06,0,0,0,.7-.09A1.43,1.43,0,0,0,61,77.6a1.35,1.35,0,0,0,.34-.51,1.87,1.87,0,0,0,.12-.69,2,2,0,0,0-.1-.66A1.24,1.24,0,0,0,60.6,75a1.94,1.94,0,0,0-.67-.11h-.27v-.42h.28a2,2,0,0,1,1.47.53A2,2,0,0,1,61.9,76.41Z"/><path id="_Compound_Path_24" data-name="&lt;Compound Path&gt;" class="cls-1" d="M62.63,78.38V74.44H63v3.94Z"/><path id="_Compound_Path_25" data-name="&lt;Compound Path&gt;" class="cls-1" d="M66.63,78.38V75.69a.77.77,0,0,0-.09-.37.88.88,0,0,0-.24-.28,1.12,1.12,0,0,0-.36-.18,1.49,1.49,0,0,0-.44-.06,1.51,1.51,0,0,0-.44.06,1.12,1.12,0,0,0-.36.18.87.87,0,0,0-.24.28.76.76,0,0,0-.09.37v.48h1.21v.41H64.36v1.8h-.42V75.69a1.17,1.17,0,0,1,.46-.95,1.76,1.76,0,0,1,2.19,0,1.17,1.17,0,0,1,.46.95v2.69Z"/><path id="_Compound_Path_26" data-name="&lt;Compound Path&gt;" class="cls-1" d="M70.85,77.15a1.16,1.16,0,0,1-.49,1,2,2,0,0,1-2.2,0,1.21,1.21,0,0,1-.49-1h.42a.85.85,0,0,0,.37.73,1.33,1.33,0,0,0,.8.23,1.36,1.36,0,0,0,.79-.23.77.77,0,0,0,.36-.67q0-.6-1.11-.74a3.86,3.86,0,0,1-1-.24.71.71,0,0,1-.49-.67.93.93,0,0,1,.42-.79,1.61,1.61,0,0,1,1-.32,1.91,1.91,0,0,1,1,.26,1.27,1.27,0,0,1,.57.87h-.43a1.08,1.08,0,0,0-1.16-.73,1.23,1.23,0,0,0-.67.18.59.59,0,0,0-.32.49q0,.26.39.4l.28.06.49.07Q70.85,76.2,70.85,77.15Z"/><path id="_Compound_Path_27" data-name="&lt;Compound Path&gt;" class="cls-1" d="M67.63,73.94v-.39h1.92v-.49H70v.49h.29v-.49h.42v.89Z"/><path id="_Compound_Path_28" data-name="&lt;Compound Path&gt;" class="cls-1" d="M75.11,76.41a2.12,2.12,0,0,1-.52,1.47,1.77,1.77,0,0,1-1.37.57,2,2,0,0,1-.77-.14,1.64,1.64,0,0,1-.6-.43,2.12,2.12,0,0,1-.52-1.47s0-.09,0-.15,0-.15,0-.25h1.37v.41h-1a1.75,1.75,0,0,0,.41,1.16,1.37,1.37,0,0,0,.47.34,1.49,1.49,0,0,0,.58.11,1.45,1.45,0,0,0,.6-.12,1.38,1.38,0,0,0,.46-.33,1.53,1.53,0,0,0,.3-.51,1.89,1.89,0,0,0,.11-.65,1.93,1.93,0,0,0-.11-.65,1.53,1.53,0,0,0-.3-.52,1.41,1.41,0,0,0-.46-.34,1.43,1.43,0,0,0-.6-.12,1.37,1.37,0,0,0-1.35.93h-.43a2,2,0,0,1,.66-1,1.81,1.81,0,0,1,1.12-.33,1.76,1.76,0,0,1,1.37.57,2,2,0,0,1,.39.65A2.38,2.38,0,0,1,75.11,76.41Z"/><path id="_Compound_Path_29" data-name="&lt;Compound Path&gt;" class="cls-1" d="M78.1,78.05a1.35,1.35,0,0,1-1,.39A1.43,1.43,0,0,1,76,78a1.62,1.62,0,0,1-.43-1.16,1.78,1.78,0,0,1,.21-.85,2.48,2.48,0,0,1,.64-.74L76,74.62l.36-.24.65.89a2.13,2.13,0,0,0-1,1.56,1.37,1.37,0,0,0,.08.48,1.21,1.21,0,0,0,.23.39,1.05,1.05,0,0,0,.35.26,1,1,0,0,0,.44.09A1,1,0,0,0,77.5,78a1,1,0,0,0,.31-.2.88.88,0,0,0,.2-.31,1,1,0,0,0,.07-.38V74.44h.42v2.63A1.33,1.33,0,0,1,78.1,78.05Z"/><path id="_Compound_Path_30" data-name="&lt;Compound Path&gt;" class="cls-1" d="M78.07,73.94V73h.42v1Z"/><path id="_Compound_Path_31" data-name="&lt;Compound Path&gt;" class="cls-1" d="M80.81,78.38V75.84q0-1.09-1-1.09a1.16,1.16,0,0,0-.4.07A1.84,1.84,0,0,0,79,75V74.6a2.06,2.06,0,0,1,.4-.17,1.44,1.44,0,0,1,.42-.06,1.33,1.33,0,0,1,1,.41,1.21,1.21,0,0,1,.25.44,1.75,1.75,0,0,1,.08.55v2.61Z"/><path id="_Compound_Path_32" data-name="&lt;Compound Path&gt;" class="cls-1" d="M83.58,78.44a2,2,0,0,1-1.29-.38,1.14,1.14,0,0,1-.43-.92,1.16,1.16,0,0,1,.68-1.06.75.75,0,0,1-.58-.77.76.76,0,0,1,.09-.36.91.91,0,0,1,.24-.29,1.18,1.18,0,0,1,.36-.19,1.41,1.41,0,0,1,.45-.07,1.5,1.5,0,0,1,.54.09v.42a1.65,1.65,0,0,0-.53-.09,1.18,1.18,0,0,0-.28,0,.7.7,0,0,0-.23.09.47.47,0,0,0-.15.15.4.4,0,0,0-.06.21.45.45,0,0,0,.26.4,1.29,1.29,0,0,0,.56.12h.42v.42H83.3a1.05,1.05,0,0,0-.68.24.78.78,0,0,0-.33.64.75.75,0,0,0,.09.37.87.87,0,0,0,.26.29,1.3,1.3,0,0,0,.41.18,2,2,0,0,0,.52.07,1.92,1.92,0,0,0,.62-.09,1.38,1.38,0,0,0,.49-.29V74.44h.42v3.37A1.92,1.92,0,0,1,83.58,78.44Z"/><path id="_Compound_Path_33" data-name="&lt;Compound Path&gt;" class="cls-1" d="M88.59,78.38v-.53a1.56,1.56,0,0,1-1.33.6,1.68,1.68,0,0,1-.56-.09,1.2,1.2,0,0,1-.43-.26,1.15,1.15,0,0,1-.28-.41,1.45,1.45,0,0,1-.1-.55v-2.7h.42V77.1a1.11,1.11,0,0,0,.07.42.86.86,0,0,0,.21.31.9.9,0,0,0,.32.19,1.29,1.29,0,0,0,1.28-.27,1,1,0,0,0,.39-.74V74.44H89v3.94Z"/><path id="_Compound_Path_34" data-name="&lt;Compound Path&gt;" class="cls-1" d="M92.79,76.41a2.81,2.81,0,0,1-.1.79,2,2,0,0,1-.32.64,1.53,1.53,0,0,1-1.73.53,1.55,1.55,0,0,1-.44-.24,1.63,1.63,0,0,1-.35-.38,1.57,1.57,0,0,1-.22-.49h.43a1.09,1.09,0,0,0,1.07.78,1.06,1.06,0,0,0,.93-.5,2,2,0,0,0,.3-1.13,2.37,2.37,0,0,0-.07-.61,1.72,1.72,0,0,0-.23-.51,1.07,1.07,0,0,0-.93-.51,1,1,0,0,0-.33.06,1.19,1.19,0,0,0-.3.16,1.21,1.21,0,0,0-.25.25,1.1,1.1,0,0,0-.18.32h-.44a1.59,1.59,0,0,1,.22-.49,1.65,1.65,0,0,1,.35-.37,1.61,1.61,0,0,1,.44-.24,1.44,1.44,0,0,1,.49-.09,1.46,1.46,0,0,1,1.23.61,2,2,0,0,1,.32.65A2.81,2.81,0,0,1,92.79,76.41Z"/><path id="_Compound_Path_35" data-name="&lt;Compound Path&gt;" class="cls-1" d="M91.19,73.94v-.78h.41v.39h2.3v.39Z"/><path id="_Compound_Path_36" data-name="&lt;Compound Path&gt;" class="cls-1" d="M96.33,78.38V75.65a1.13,1.13,0,0,0,0-.29,1,1,0,0,0-.11-.26.73.73,0,0,0-.17-.2.5.5,0,0,0-.22-.1l-.63.76-.65-.75a.92.92,0,0,0-.27.21,2,2,0,0,0-.26.36,2.51,2.51,0,0,0-.25,1.7,1.75,1.75,0,0,0,.18.47.84.84,0,0,0,.76.46.66.66,0,0,0,.56-.33l.34.25a1.14,1.14,0,0,1-.39.37,1,1,0,0,1-.51.12,1.31,1.31,0,0,1-.61-.14,1.24,1.24,0,0,1-.45-.39,1.79,1.79,0,0,1-.27-.61,3.17,3.17,0,0,1-.09-.81,2.58,2.58,0,0,1,.43-1.42,1.5,1.5,0,0,1,.95-.69l.52.59.49-.56a1.08,1.08,0,0,1,.46.1,1,1,0,0,1,.35.26,1.18,1.18,0,0,1,.22.4,1.56,1.56,0,0,1,.08.5v2.73Z"/><path id="_Compound_Path_37" data-name="&lt;Compound Path&gt;" class="cls-1" d="M100.24,78.38V75.74A.87.87,0,0,0,99.9,75,1.46,1.46,0,0,0,98,75.3v3.08h-.42v-3.2a1.92,1.92,0,0,1,2.64-.49,1.18,1.18,0,0,1,.47,1v2.71Z"/><path id="_Compound_Path_38" data-name="&lt;Compound Path&gt;" class="cls-1" d="M104.46,77.15a1.16,1.16,0,0,1-.49,1,2,2,0,0,1-2.2,0,1.21,1.21,0,0,1-.49-1h.42a.85.85,0,0,0,.37.73,1.33,1.33,0,0,0,.8.23,1.36,1.36,0,0,0,.79-.23.77.77,0,0,0,.36-.67q0-.6-1.11-.74a3.86,3.86,0,0,1-1-.24.71.71,0,0,1-.49-.67.93.93,0,0,1,.42-.79,1.61,1.61,0,0,1,1-.32,1.91,1.91,0,0,1,1,.26,1.27,1.27,0,0,1,.57.87H104a1.08,1.08,0,0,0-1.16-.73,1.23,1.23,0,0,0-.67.18.59.59,0,0,0-.32.49q0,.26.39.4l.28.06L103,76Q104.46,76.2,104.46,77.15Z"/><path id="_Compound_Path_39" data-name="&lt;Compound Path&gt;" class="cls-1" d="M108.1,77.15a1.16,1.16,0,0,1-.49,1,2,2,0,0,1-2.2,0,1.21,1.21,0,0,1-.49-1h.42a.85.85,0,0,0,.37.73,1.33,1.33,0,0,0,.8.23,1.36,1.36,0,0,0,.79-.23.77.77,0,0,0,.36-.67q0-.6-1.11-.74a3.86,3.86,0,0,1-1-.24.71.71,0,0,1-.49-.67.93.93,0,0,1,.42-.79,1.61,1.61,0,0,1,1-.32,1.91,1.91,0,0,1,1,.26,1.27,1.27,0,0,1,.57.87h-.43a1.08,1.08,0,0,0-1.16-.73,1.23,1.23,0,0,0-.67.18.59.59,0,0,0-.32.49q0,.26.39.4l.28.06.49.07Q108.1,76.2,108.1,77.15Z"/><path id="_Compound_Path_40" data-name="&lt;Compound Path&gt;" class="cls-1" d="M111.75,77.69a1.16,1.16,0,0,1-.28.41,1.21,1.21,0,0,1-.43.26,1.68,1.68,0,0,1-.56.09,1.56,1.56,0,0,1-1.33-.6v.53h-.42V74.44h.42V77a1,1,0,0,0,.38.74,1.28,1.28,0,0,0,.88.34,1.23,1.23,0,0,0,.41-.07.9.9,0,0,0,.32-.19.86.86,0,0,0,.21-.31,1.11,1.11,0,0,0,.07-.42V74.44h.42v2.7A1.46,1.46,0,0,1,111.75,77.69Z"/></g><g id="_Group_5" data-name="&lt;Group&gt;"><path id="_Compound_Path_41" data-name="&lt;Compound Path&gt;" class="cls-1" d="M1.67,63.89V41H12.41q6.54,0,6.54,5.34,0,3.91-4.26,5.59,4.55.85,4.55,5.21,0,6.78-7.16,6.78ZM11.9,60.21q2.82,0,2.82-2.88,0-3.57-4.21-3.57H9.22V51q5.29-.88,5.29-4.42,0-1.92-2.37-1.92H5.92V60.21Z"/><path id="_Compound_Path_42" data-name="&lt;Compound Path&gt;" class="cls-1" d="M26,63.86V41H36.37q7,0,7,6.14,0,4.15-5.46,6.87l7.26,9.9H39.83l-7-10V52q6.09-1,6.09-4.73,0-2.53-2.85-2.53H30.28V63.86Z"/><path id="_Compound_Path_43" data-name="&lt;Compound Path&gt;" class="cls-1" d="M52.66,63.89H48.3L58,41h4.57l9.93,22.91H68l-2.61-6.25H57.74L59.2,54h4.61l-3.61-8.6Z"/><path id="_Compound_Path_44" data-name="&lt;Compound Path&gt;" class="cls-1" d="M82.7,41V63.89H78.45V41Z"/><path id="_Compound_Path_45" data-name="&lt;Compound Path&gt;" class="cls-1" d="M90.62,63.89V41h4.25L107,57.67V41H111V63.89H106.8l-12.1-17v17Z"/></g><path id="_Compound_Path_46" data-name="&lt;Compound Path&gt;" class="cls-1" d="M.85,69.63H.51V68.31H.85s-.07.43,1.29.5l.49,0h108c1.43-.07,1.36-.51,1.36-.51h.35v1.31H112s.07-.44-1.36-.51H2.61C.75,69.12.85,69.63.85,69.63Z"/></g></g></g></g></svg>