<svg xmlns="http://www.w3.org/2000/svg" xmlns:xlink="http://www.w3.org/1999/xlink" width="293.04" height="290.46" viewBox="0 0 293.04 290.46"><defs><style>.cls-1{isolation:isolate;}.cls-2{fill:#e0e9f2;mix-blend-mode:multiply;}.cls-3{fill:url(#linear-gradient);}.cls-4{fill:#f19b1f;}.cls-36,.cls-5{opacity:0.2;}.cls-6{fill:#f0efef;}.cls-7{fill:#35495e;}.cls-8{fill:#5d7184;}.cls-9{fill:#839293;}.cls-10{fill:url(#linear-gradient-2);}.cls-11{opacity:0.1;}.cls-12{fill:#eec748;}.cls-13{fill:#0e2037;}.cls-14,.cls-24,.cls-36,.cls-37,.cls-39,.cls-63{fill:#fff;}.cls-15{fill:#e93924;}.cls-16{fill:#364d5c;}.cls-17{opacity:0.06;}.cls-18{fill:url(#linear-gradient-3);}.cls-19,.cls-30{opacity:0.3;}.cls-20{fill:#929497;}.cls-21{opacity:0.16;}.cls-22{fill:#fff100;}.cls-23{opacity:0.14;}.cls-24,.cls-25,.cls-56{fill-rule:evenodd;}.cls-25{fill:#ec1c24;}.cls-26{fill:url(#linear-gradient-4);}.cls-27{opacity:0.15;}.cls-28{fill:#efc319;}.cls-29{fill:#d2ac2a;}.cls-30{fill:#cccbcb;}.cls-31{fill:#d0d0d1;}.cls-32{fill:#e7e7e7;}.cls-33{fill:#9ba5aa;}.cls-34{opacity:0.6;}.cls-35{fill:#e83924;}.cls-37{opacity:0.5;}.cls-38{opacity:0.09;}.cls-39{opacity:0.7;}.cls-40{fill:url(#linear-gradient-5);}.cls-41{fill:#88bfc6;}.cls-42{fill:#bed7e4;}.cls-43{fill:#d1d7d7;}.cls-44{fill:url(#linear-gradient-6);}.cls-45{opacity:0.12;}.cls-46{fill:#e93b25;}.cls-47{fill:none;stroke:#fff;stroke-linecap:round;stroke-linejoin:round;stroke-width:1.2px;}.cls-48{fill:url(#linear-gradient-7);}.cls-49{fill:#27b898;}.cls-50{fill:#15705e;}.cls-51{fill:#f09b22;}.cls-52{fill:#fad223;}.cls-53{fill:#dc8f27;}.cls-54{fill:#ffd44d;}.cls-55{fill:#0f2947;}.cls-56{fill:#d05d34;}.cls-57{fill:url(#linear-gradient-8);}.cls-58{fill:#e7f3e7;}.cls-59{opacity:0.4;}.cls-60{fill:#484848;}.cls-61{fill:#adc4d0;}.cls-62{fill:#cae7f5;}.cls-63{opacity:0.79;}</style><linearGradient id="linear-gradient" x1="162.87" y1="45.67" x2="127.28" y2="10.09" gradientUnits="userSpaceOnUse"><stop offset="0" stop-color="#e7eaeb"/><stop offset="0.44" stop-color="#eef0f1"/><stop offset="1" stop-color="#fff"/></linearGradient><linearGradient id="linear-gradient-2" x1="244.8" y1="80.66" x2="209.22" y2="45.07" xlink:href="#linear-gradient"/><linearGradient id="linear-gradient-3" x1="163.75" y1="280.37" x2="128.17" y2="244.79" xlink:href="#linear-gradient"/><linearGradient id="linear-gradient-4" x1="78.5" y1="244.79" x2="42.91" y2="209.2" xlink:href="#linear-gradient"/><linearGradient id="linear-gradient-5" x1="45.67" y1="165.59" x2="10.09" y2="130.01" xlink:href="#linear-gradient"/><linearGradient id="linear-gradient-6" x1="80.36" y1="80.43" x2="44.77" y2="44.85" xlink:href="#linear-gradient"/><linearGradient id="linear-gradient-7" x1="282.45" y1="164.6" x2="246.86" y2="129.01" xlink:href="#linear-gradient"/><linearGradient id="linear-gradient-8" x1="245.66" y1="246.63" x2="210.08" y2="211.05" xlink:href="#linear-gradient"/></defs><title>brain-diagram</title><g class="cls-1"><g id="Layer_2" data-name="Layer 2"><g id="Layer_1-2" data-name="Layer 1"><g id="_Group_" data-name="&lt;Group&gt;"><circle id="_Path_" data-name="&lt;Path&gt;" class="cls-2" cx="145.07" cy="27.88" r="27.88"/><circle id="_Path_2" data-name="&lt;Path&gt;" class="cls-3" cx="145.07" cy="27.88" r="25.16"/><g id="_Group_2" data-name="&lt;Group&gt;"><path id="_Path_3" data-name="&lt;Path&gt;" class="cls-4" d="M164.13,27.84q0,.59,0,1.18c0,.06,0,.11,0,.17a19.08,19.08,0,0,1-19,17.72l-1,0-.7,0-1-.11-.17,0A19.06,19.06,0,1,1,164.12,27C164.13,27.31,164.13,27.57,164.13,27.84Z"/><path id="_Path_4" data-name="&lt;Path&gt;" class="cls-5" d="M164.13,27.84q0,.59,0,1.18c0,.06,0,.11,0,.17a19.08,19.08,0,0,1-19,17.72l-1,0L139,41.82a2,2,0,0,1-1.3-1.85V15.88a2,2,0,0,1,2-2h10.72a2,2,0,0,1,1.85,1.3S158.78,21.7,164.12,27C164.13,27.31,164.13,27.57,164.13,27.84Z"/><g id="_Group_3" data-name="&lt;Group&gt;"><g id="_Group_4" data-name="&lt;Group&gt;"><g id="_Group_5" data-name="&lt;Group&gt;"><rect id="_Path_5" data-name="&lt;Path&gt;" class="cls-5" x="137.73" y="14.7" width="14.66" height="27.24" rx="1.97" ry="1.97"/><rect id="_Path_6" data-name="&lt;Path&gt;" class="cls-6" x="137.73" y="13.92" width="14.66" height="27.24" rx="1.97" ry="1.97"/><g id="_Group_6" data-name="&lt;Group&gt;"><polygon id="_Path_7" data-name="&lt;Path&gt;" class="cls-7" points="151.01 16.02 151.01 36.44 139.64 36.44 146.43 16.02 151.01 16.02"/><polygon id="_Path_8" data-name="&lt;Path&gt;" class="cls-8" points="139.11 16.02 146.43 16.02 139.64 36.44 139.11 36.44 139.11 16.02"/></g><rect id="_Path_9" data-name="&lt;Path&gt;" class="cls-9" x="144.01" y="38.61" width="2.1" height="1.12"/><rect id="_Path_10" data-name="&lt;Path&gt;" class="cls-9" x="143.5" y="14.64" width="3.2" height="0.79"/></g></g></g></g></g><g id="_Group_7" data-name="&lt;Group&gt;"><circle id="_Path_11" data-name="&lt;Path&gt;" class="cls-2" cx="227.01" cy="62.86" r="27.88"/><circle id="_Path_12" data-name="&lt;Path&gt;" class="cls-10" cx="227.01" cy="62.87" r="25.16"/><g id="_Group_8" data-name="&lt;Group&gt;"><path id="_Path_13" data-name="&lt;Path&gt;" class="cls-4" d="M246.06,62.87a19.13,19.13,0,1,1-.11-2.09A19.16,19.16,0,0,1,246.06,62.87Z"/><path id="_Path_14" data-name="&lt;Path&gt;" class="cls-11" d="M246.06,62.87A19.14,19.14,0,0,1,224,81.78c-1.64-1.75-7.71-7.68-7.81-7.76a4,4,0,0,1-.09-3.19l0,0-4.93-4.93-.07-.07.51-.51a.9.9,0,0,1,1.06-.16l5.68,3L224,62.65a39.81,39.81,0,0,0-5.19-4.16l-4.29-4.29-1.1-1.1-.07-.07L214.42,52a1.77,1.77,0,0,1,2-.4l6,2.93.55-.61.46-1.07c.08.08,4.72,4.46,4.86,4.57l2.42-2.6a6.88,6.88,0,0,1,5-2.55c.73,0,1.38-.32,1.94.21,0,0,0-.16,0-.13.23.23,4.93,5.07,8.32,8.47A19.1,19.1,0,0,1,246.06,62.87Z"/><path id="_Path_15" data-name="&lt;Path&gt;" class="cls-12" d="M231.72,72.67a14.32,14.32,0,0,1-3.33,2.16,14.32,14.32,0,0,1,2.16-3.33c1.14-1.14,1.66-1.14,2-.81S232.86,71.53,231.72,72.67Z"/><polygon id="_Path_16" data-name="&lt;Path&gt;" class="cls-13" points="232.25 72.52 230.72 70.99 236.18 65.52 237.69 67.04 237.4 67.33 232.25 72.52"/><rect id="_Path_17" data-name="&lt;Path&gt;" class="cls-14" x="236.58" y="65.36" width="0.42" height="2.14" transform="translate(22.39 186.9) rotate(-45)"/><g id="_Group_9" data-name="&lt;Group&gt;"><path id="_Path_18" data-name="&lt;Path&gt;" class="cls-12" d="M218.68,59.64a14.32,14.32,0,0,1-3.33,2.16,14.32,14.32,0,0,1,2.16-3.33c1.14-1.14,1.66-1.13,2-.81S219.82,58.49,218.68,59.64Z"/><polygon id="_Path_19" data-name="&lt;Path&gt;" class="cls-13" points="219.21 59.48 217.68 57.95 223.14 52.49 224.65 54 224.36 54.3 219.21 59.48"/><rect id="_Path_20" data-name="&lt;Path&gt;" class="cls-14" x="223.54" y="52.32" width="0.42" height="2.14" transform="translate(27.77 173.83) rotate(-44.99)"/></g><path id="_Path_21" data-name="&lt;Path&gt;" class="cls-14" d="M231.34,58.85l-14.92-7.3a1.77,1.77,0,0,0-2,.4L213.35,53l23.81,23.81,1.07-1.07a1.77,1.77,0,0,0,.41-2Z"/><path id="_Path_22" data-name="&lt;Path&gt;" class="cls-15" d="M238.63,73.77l-7.3-14.92-14.92-7.3a1.77,1.77,0,0,0-2,.4L213.35,53l0,0,.44-.44a1.79,1.79,0,0,1,2-.39l14.92,7.3,7.3,14.92A1.63,1.63,0,0,1,238,76l.19-.19A1.77,1.77,0,0,0,238.63,73.77Z"/><path id="_Path_23" data-name="&lt;Path&gt;" class="cls-14" d="M220.78,69.41l-8.17-4.32a.9.9,0,0,0-1.06.16l-.51.51,13.38,13.38.51-.51a.9.9,0,0,0,.16-1.06Z"/><path id="_Path_24" data-name="&lt;Path&gt;" class="cls-16" d="M225.09,77.58l-4.32-8.17-8.17-4.32a.9.9,0,0,0-1.06.16l-.51.51,0,0,0,0a.91.91,0,0,1,1.07-.15L220.36,70l4.32,8.17a1,1,0,0,1,.06.7l.2-.2A.9.9,0,0,0,225.09,77.58Z"/><path id="_Path_25" data-name="&lt;Path&gt;" class="cls-17" d="M223,73.69l-2.87,1.23-2.71-2.69a3.71,3.71,0,0,1,.65-1l2-2.2.69.37Z"/><path id="_Path_26" data-name="&lt;Path&gt;" class="cls-17" d="M234.51,65.34l-5.69,3.2-4.35-4.36,5.43-6,1.45.71Z"/><path id="_Path_27" data-name="&lt;Path&gt;" class="cls-14" d="M235.75,59.61q-.45.48-1,1L220.34,73.48a3.6,3.6,0,0,1-4.17.55,3.82,3.82,0,0,1,.54-4.17l12.61-14c2.16-2.37,6.44-5.24,8.36-3.5S237.51,57.71,235.75,59.61Z"/><path id="_Path_28" data-name="&lt;Path&gt;" class="cls-11" d="M235.75,59.61q-.45.48-1,1L220.34,73.48a3.6,3.6,0,0,1-4.17.55l21.51-21.68C239.47,54.13,237.51,57.71,235.75,59.61Z"/><g id="_Group_10" data-name="&lt;Group&gt;"><path id="_Path_29" data-name="&lt;Path&gt;" class="cls-16" d="M236.33,58.39l-.53-.53a7.24,7.24,0,0,0,.77-1.88h0c0-.11.05-.23.07-.34h0a2.05,2.05,0,0,0-.32-1.58l-.14-.16-.11-.09a2,2,0,0,0-1.53-.26h0l-.32.08a7.76,7.76,0,0,0-1.87.76l-.51-.51a10.72,10.72,0,0,1,2.28-1.23h0l.34-.12h0a4.38,4.38,0,0,1,1.13-.21,2.28,2.28,0,0,1,1.47.53l.12.1.13.14a2.81,2.81,0,0,1,.37,2.66c0,.11-.07.23-.11.34v0A9.19,9.19,0,0,1,236.33,58.39Z"/><path id="_Path_30" data-name="&lt;Path&gt;" class="cls-14" d="M237.3,53.08l-1,1-.25-.25,1-1,.12.1Z"/><path id="_Path_31" data-name="&lt;Path&gt;" class="cls-14" d="M234.55,53.54h0l-.3.06-.1-1,.33-.12h0Z"/><path id="_Path_32" data-name="&lt;Path&gt;" class="cls-14" d="M237.56,56.07l-1-.1c0-.11.05-.23.07-.34h0l1,.11C237.64,55.84,237.6,56,237.56,56.07Z"/></g></g></g><g id="_Group_11" data-name="&lt;Group&gt;"><circle id="_Path_33" data-name="&lt;Path&gt;" class="cls-2" cx="145.96" cy="262.58" r="27.88"/><circle id="_Path_34" data-name="&lt;Path&gt;" class="cls-18" cx="145.96" cy="262.58" r="25.16"/><g id="_Group_12" data-name="&lt;Group&gt;"><path id="_Path_35" data-name="&lt;Path&gt;" class="cls-4" d="M164.93,263.6c0,.08,0,.16,0,.24a19.25,19.25,0,0,1-18.29,18.08l-.94,0a19.24,19.24,0,1,1,19.24-18.34Z"/><path id="_Path_36" data-name="&lt;Path&gt;" class="cls-19" d="M164.93,263.6c0,.08,0,.16,0,.24a19.25,19.25,0,0,1-18.29,18.08L136.31,271.6a12.18,12.18,0,0,1-3.94-8.92c0-6.94,6-12.56,13.32-12.56a13.64,13.64,0,0,1,10,4.23Z"/><g id="_Group_13" data-name="&lt;Group&gt;"><path id="_Path_37" data-name="&lt;Path&gt;" class="cls-20" d="M159,262.68a12,12,0,0,1-2.53,7.37q-.36.47-.77.91a13.09,13.09,0,0,1-1.16,1.1,13.3,13.3,0,0,1-1.51,1.1,13.83,13.83,0,0,1-7.34,2.08c-7.36,0-13.32-5.62-13.32-12.56s6-12.56,13.32-12.56S159,255.74,159,262.68Z"/><path id="_Path_38" data-name="&lt;Path&gt;" class="cls-21" d="M157.26,256.44a11.91,11.91,0,0,1,.5,3.4c0,6.94-6,12.56-13.32,12.56a13.47,13.47,0,0,1-11.56-6.32,13.23,13.23,0,0,0,12.82,9.16c7.36,0,13.32-5.62,13.32-12.56A12,12,0,0,0,157.26,256.44Z"/><path id="_Path_39" data-name="&lt;Path&gt;" class="cls-5" d="M152.14,271.47v.08a.51.51,0,0,0,.51.51h1.91a13.3,13.3,0,0,1-1.51,1.1h-7.36a.51.51,0,0,1-.51-.51v-.08a.51.51,0,0,1,.51-.51H148a.51.51,0,0,0,.45-.5v-.08a.51.51,0,0,0-.45-.5h-4.13a.51.51,0,0,1-.51-.51v-.08a.51.51,0,0,1,.51-.51h6.7a.51.51,0,0,0,.51-.51v-.08a.51.51,0,0,0-.51-.51h-1.2a.51.51,0,0,1-.51-.51v-.08a.51.51,0,0,1,.51-.51h5.8a.51.51,0,0,1,.51.51v.08a.51.51,0,0,1-.51.51h-1.4a.51.51,0,0,0-.51.51v.08a.51.51,0,0,0,.51.51h2.28a.51.51,0,0,1,.4.19q-.36.47-.77.91h-3.06A.51.51,0,0,0,152.14,271.47Z"/><path id="_Path_40" data-name="&lt;Path&gt;" class="cls-14" d="M153.77,270.75a.51.51,0,0,0-.51-.51h-2.43a.51.51,0,0,1-.51-.51v-.08a.51.51,0,0,1,.51-.51h3.44a.51.51,0,0,0,.51-.51v-.08a.51.51,0,0,0-.51-.51H152a.51.51,0,0,1-.51-.51v-.08a.51.51,0,0,1,.51-.51h1.4a.51.51,0,0,0,.51-.51v-.08a.51.51,0,0,0-.51-.51h-5.8a.51.51,0,0,0-.51.51v.08a.51.51,0,0,0,.51.51h1.2a.51.51,0,0,1,.51.51v.08a.51.51,0,0,1-.51.51h-6.7a.51.51,0,0,0-.51.51v.08a.51.51,0,0,0,.51.51h4.13a.51.51,0,0,1,.45.5v.08a.51.51,0,0,1-.45.5h-2.36a.51.51,0,0,0-.51.51v.08a.51.51,0,0,0,.51.51h9.4a.51.51,0,0,0,.51-.51Z"/><path id="_Compound_Path_" data-name="&lt;Compound Path&gt;" class="cls-14" d="M135.19,272.15v-.4l.95,0,0,.4Zm-1,0c-.34,0-.67-.05-1-.1l.06-.4c.29,0,.61.08.93.1Zm2.91-.13-.05-.4.94-.14.07.4Zm-4.84-.18a5.2,5.2,0,0,1-.93-.36l.18-.36a4.83,4.83,0,0,0,.86.34Zm6.75-.15-.08-.39.93-.21.1.39Zm1.88-.46-.11-.39.91-.27.12.38Zm-10.38-.33a2.86,2.86,0,0,1-.59-.78l0,0,.36-.18,0,0a2.46,2.46,0,0,0,.51.67Zm12.23-.23-.13-.38.9-.32.14.38Zm1.81-.66-.15-.37.88-.36.16.37Zm1.78-.75-.16-.37.87-.4.17.36Zm-16.71-.16a3.43,3.43,0,0,1,0-.35,4,4,0,0,1,.06-.66l.4.07a3.58,3.58,0,0,0-.05.59,2.94,2.94,0,0,0,0,.31Zm18.45-.66-.18-.36.42-.21.43-.22.19.35-.43.22Zm1.7-.9-.19-.35.83-.47.2.35Zm-19.48-.27-.38-.14a7.75,7.75,0,0,1,.4-.9l.36.19A7.31,7.31,0,0,0,130.3,267.25Zm21.14-.7-.21-.34.81-.51.22.34Zm-20.29-1-.34-.22c.17-.26.36-.53.56-.8l.32.24C131.5,265.08,131.32,265.34,131.16,265.59Zm21.91-.08-.23-.33.78-.55.23.33Zm1.57-1.12-.24-.32.75-.59.25.31Zm1.51-1.21-.26-.3.71-.63.27.3Zm1.43-1.3-.28-.29.66-.68.29.27C158,261.41,157.8,261.64,157.56,261.87Zm1.32-1.42-.31-.26c.21-.25.41-.5.59-.74l.32.24C159.3,259.95,159.09,260.2,158.88,260.46ZM160,258.9l-.34-.22c.18-.28.33-.55.47-.81l.36.18C160.38,258.32,160.22,258.61,160,258.9Zm.88-1.75-.38-.13a4.84,4.84,0,0,0,.22-.89l.4.06A5.22,5.22,0,0,1,160.91,257.14Zm-.14-1.92a2.47,2.47,0,0,0-.25-.8l0,0,.35-.19,0,0a2.86,2.86,0,0,1,.29.93Zm-.82-1.53a3.37,3.37,0,0,0-.75-.49l.18-.36a3.77,3.77,0,0,1,.84.55Zm-1.62-.82a7.38,7.38,0,0,0-.91-.19l.06-.4a7.71,7.71,0,0,1,1,.2Zm-1.85-.28c-.3,0-.62,0-.94,0v-.4c.34,0,.66,0,1,0Z"/><ellipse id="_Path_41" data-name="&lt;Path&gt;" class="cls-22" cx="160.02" cy="258.61" rx="2.72" ry="2.5"/><path id="_Path_42" data-name="&lt;Path&gt;" class="cls-23" d="M161.43,256.46A2.37,2.37,0,0,1,162,258a2.62,2.62,0,0,1-2.72,2.5,2.9,2.9,0,0,1-1.4-.36,2.81,2.81,0,0,0,2.14,1,2.62,2.62,0,0,0,2.72-2.5A2.47,2.47,0,0,0,161.43,256.46Z"/><path id="_Path_43" data-name="&lt;Path&gt;" class="cls-5" d="M150,260h-6.7a.51.51,0,0,1-.51-.51v-.08a.51.51,0,0,1,.51-.51h2.51a.51.51,0,0,0,.51-.51v-.08a.51.51,0,0,0-.51-.51h-7.11a.51.51,0,0,0-.51.51v.08a.51.51,0,0,0,.51.51h1.4a.51.51,0,0,1,.51.51v.08a.51.51,0,0,1-.51.51h-4.62a.51.51,0,0,0-.51.51v.08a.51.51,0,0,0,.51.51h5.78a.51.51,0,0,1,.51.51v.08a.51.51,0,0,1-.51.51h-2.43a.51.51,0,0,0-.51.51v.08a.51.51,0,0,0,.51.51h9.4a.51.51,0,0,0,.51-.51v-.08a.51.51,0,0,0-.51-.51h-2.36a.51.51,0,0,1-.45-.5v-.08a.51.51,0,0,1,.45-.5H150a.51.51,0,0,0,.51-.51v-.08A.51.51,0,0,0,150,260Z"/><path id="_Path_44" data-name="&lt;Path&gt;" class="cls-14" d="M149.4,258.46h-6.7a.51.51,0,0,1-.51-.51v-.08a.51.51,0,0,1,.51-.51h2.51a.51.51,0,0,0,.51-.51v-.08a.51.51,0,0,0-.51-.51h-7.11a.51.51,0,0,0-.51.51v.08a.51.51,0,0,0,.51.51h1.4a.51.51,0,0,1,.51.51v.08a.51.51,0,0,1-.51.51h-4.62a.51.51,0,0,0-.51.51V259a.51.51,0,0,0,.51.51h5.78a.51.51,0,0,1,.51.51v.08a.51.51,0,0,1-.51.51h-2.43a.51.51,0,0,0-.51.51v.08a.51.51,0,0,0,.51.51h9.4a.51.51,0,0,0,.51-.51v-.08a.51.51,0,0,0-.51-.51h-2.36a.51.51,0,0,1-.45-.5v-.08a.51.51,0,0,1,.45-.5h4.13a.51.51,0,0,0,.51-.51V259A.51.51,0,0,0,149.4,258.46Z"/><path id="_Path_45" data-name="&lt;Path&gt;" class="cls-24" d="M138.43,253.11l-.24-.67a2.23,2.23,0,0,0-2.08-1.49h-.71l1.09-.39a1.59,1.59,0,0,0,1.07-1.48l0-1.16.36,1a1.71,1.71,0,0,0,1.59,1.14h1.08l-.86.3a2,2,0,0,0-1.3,1.81Z"/><path id="_Path_46" data-name="&lt;Path&gt;" class="cls-25" d="M147.08,248.39l-.14-.4a1.34,1.34,0,0,0-1.24-.89h-.43l.65-.23a1,1,0,0,0,.64-.89v-.69l.22.61a1,1,0,0,0,1,.68h.65l-.52.18a1.17,1.17,0,0,0-.78,1.09Z"/></g></g></g><g id="_Group_14" data-name="&lt;Group&gt;"><circle id="_Path_47" data-name="&lt;Path&gt;" class="cls-2" cx="60.71" cy="227" r="27.88"/><circle id="_Path_48" data-name="&lt;Path&gt;" class="cls-26" cx="60.71" cy="227" r="25.16"/><g id="_Group_15" data-name="&lt;Group&gt;"><path id="_Path_49" data-name="&lt;Path&gt;" class="cls-4" d="M79.87,227.17h0q0,.5,0,1c0,.16,0,.31,0,.47l0,.23c0,.07,0,.15,0,.22l0,.18,0,.14,0,.22a19.64,19.64,0,0,1-18.26,17.13q-.6,0-1.22,0a19.72,19.72,0,0,1-3-.23l-.67-.11a19.63,19.63,0,1,1,22.67-24.27l.09.36.07.29,0,.14A19.68,19.68,0,0,1,79.87,227.17Z"/><path id="_Path_50" data-name="&lt;Path&gt;" class="cls-27" d="M79.85,228.18a19.63,19.63,0,0,1-18.39,18.59l-8.2-8.2a3.69,3.69,0,0,1-1.18-1.37,7.41,7.41,0,0,1-.79-3.36,7.49,7.49,0,0,1,5.12-7.11v-6.32a.72.72,0,0,1-.46-.68v0a.72.72,0,0,1,.72-.7h4.21a.72.72,0,0,1,.72.7v0a.72.72,0,0,1,0,.17h.19l1.57,1.36v-3.46a.75.75,0,0,1,.4-1.38H68.1a.75.75,0,0,1,.75.75.76.76,0,0,1,0,.14H69Z"/><path id="_Path_51" data-name="&lt;Path&gt;" class="cls-14" d="M68.5,217.21v18.94A2.51,2.51,0,0,1,66,238.66h-.13a2.51,2.51,0,0,1-2.51-2.51V217.21Z"/><path id="_Path_52" data-name="&lt;Path&gt;" class="cls-28" d="M63.69,226v10.18a2.17,2.17,0,0,0,2.17,2.17H66a2.17,2.17,0,0,0,2.17-2.17V226Z"/><path id="_Path_53" data-name="&lt;Path&gt;" class="cls-29" d="M65.94,226v12.35H66a2.17,2.17,0,0,0,2.17-2.17V226Z"/><path id="_Path_54" data-name="&lt;Path&gt;" class="cls-14" d="M51.29,233.84a7.4,7.4,0,0,0,.79,3.36,3.68,3.68,0,0,0,3.31,2h6.78a3.68,3.68,0,0,0,3.31-2,7.4,7.4,0,0,0,.79-3.36,7.49,7.49,0,0,0-5.12-7.11v-7.18H56.41v7.18a7.49,7.49,0,0,0-5.12,7.11Z"/><path id="_Path_55" data-name="&lt;Path&gt;" class="cls-30" d="M58.78,219.89v19h3.39a3.36,3.36,0,0,0,3-1.85A7.15,7.15,0,0,0,60.8,227v-7.09Z"/><path id="_Path_56" data-name="&lt;Path&gt;" class="cls-14" d="M61.61,219.74a.72.72,0,0,1-.72.72H56.67a.72.72,0,0,1-.72-.72h0a.72.72,0,0,1,.72-.72h4.21a.72.72,0,0,1,.72.72Z"/><polygon id="_Path_57" data-name="&lt;Path&gt;" class="cls-31" points="61.15 219.72 61.15 221.35 61.14 221.35 58.78 220.81 56.42 220.47 56.42 220.47 56.42 219.72 61.15 219.72"/><path id="_Path_58" data-name="&lt;Path&gt;" class="cls-32" d="M56,219.72v0a.72.72,0,0,0,.72.72h4.21a.72.72,0,0,0,.72-.72v0Z"/><g id="_Group_16" data-name="&lt;Group&gt;"><path id="_Path_59" data-name="&lt;Path&gt;" class="cls-33" d="M58.21,221.38a.15.15,0,0,1-.15.15H56.76v-.31h1.29A.15.15,0,0,1,58.21,221.38Z"/><path id="_Path_60" data-name="&lt;Path&gt;" class="cls-33" d="M57.63,222.08a.12.12,0,0,1-.12.12h-.75V222h.75A.12.12,0,0,1,57.63,222.08Z"/><path id="_Path_61" data-name="&lt;Path&gt;" class="cls-33" d="M58.21,222.8a.15.15,0,0,1-.15.15H56.76v-.31h1.29A.15.15,0,0,1,58.21,222.8Z"/><path id="_Path_62" data-name="&lt;Path&gt;" class="cls-33" d="M57.63,223.49a.12.12,0,0,1-.12.12h-.75v-.25h.75A.12.12,0,0,1,57.63,223.49Z"/><path id="_Path_63" data-name="&lt;Path&gt;" class="cls-33" d="M58.21,224.21a.15.15,0,0,1-.15.15H56.76v-.31h1.29A.15.15,0,0,1,58.21,224.21Z"/><path id="_Path_64" data-name="&lt;Path&gt;" class="cls-33" d="M57.63,224.91a.12.12,0,0,1-.12.12h-.75v-.25h.75A.12.12,0,0,1,57.63,224.91Z"/><path id="_Path_65" data-name="&lt;Path&gt;" class="cls-33" d="M58.21,225.63a.15.15,0,0,1-.15.15H56.76v-.31h1.29A.15.15,0,0,1,58.21,225.63Z"/></g><g id="_Group_17" data-name="&lt;Group&gt;" class="cls-34"><path id="_Path_66" data-name="&lt;Path&gt;" class="cls-33" d="M65.14,219.41a.15.15,0,0,1-.15.15H63.69v-.31H65A.15.15,0,0,1,65.14,219.41Z"/><path id="_Path_67" data-name="&lt;Path&gt;" class="cls-33" d="M64.56,220.11a.12.12,0,0,1-.13.12h-.75V220h.75A.12.12,0,0,1,64.56,220.11Z"/><path id="_Path_68" data-name="&lt;Path&gt;" class="cls-33" d="M65.14,220.83A.15.15,0,0,1,65,221H63.69v-.31H65A.15.15,0,0,1,65.14,220.83Z"/><path id="_Path_69" data-name="&lt;Path&gt;" class="cls-33" d="M64.56,221.52a.12.12,0,0,1-.13.12h-.75v-.25h.75A.12.12,0,0,1,64.56,221.52Z"/><path id="_Path_70" data-name="&lt;Path&gt;" class="cls-33" d="M65.14,222.24a.15.15,0,0,1-.15.15H63.69v-.31H65A.15.15,0,0,1,65.14,222.24Z"/><path id="_Path_71" data-name="&lt;Path&gt;" class="cls-33" d="M64.56,222.94a.12.12,0,0,1-.13.12h-.75v-.25h.75A.13.13,0,0,1,64.56,222.94Z"/><path id="_Path_72" data-name="&lt;Path&gt;" class="cls-33" d="M65.14,223.66a.15.15,0,0,1-.15.15H63.69v-.31H65A.15.15,0,0,1,65.14,223.66Z"/></g><path id="_Path_73" data-name="&lt;Path&gt;" class="cls-35" d="M62.35,232.62a5.89,5.89,0,0,0,3.15-.85,7.05,7.05,0,0,1,.31,2.07,7,7,0,0,1-.75,3.15,3.22,3.22,0,0,1-2.9,1.79H58.78v-7.2A6.78,6.78,0,0,0,62.35,232.62Z"/><path id="_Path_74" data-name="&lt;Path&gt;" class="cls-35" d="M51.89,232.45c1.61-.4,2.09-1.36,4.47-1.36a5.49,5.49,0,0,1,2.42.48v7.2H55.39A3.22,3.22,0,0,1,52.5,237a7,7,0,0,1-.75-3.15A7.08,7.08,0,0,1,51.89,232.45Z"/><path id="_Path_75" data-name="&lt;Path&gt;" class="cls-36" d="M51.89,232.45c1.61-.4,2.09-1.36,4.47-1.36a5.49,5.49,0,0,1,2.42.48v7.2H55.39A3.22,3.22,0,0,1,52.5,237a7,7,0,0,1-.75-3.15A7.08,7.08,0,0,1,51.89,232.45Z"/><circle id="_Path_76" data-name="&lt;Path&gt;" class="cls-37" cx="56.2" cy="236.83" r="1.28"/><circle id="_Path_77" data-name="&lt;Path&gt;" class="cls-37" cx="61.61" cy="235.17" r="0.85"/><path id="_Path_78" data-name="&lt;Path&gt;" class="cls-38" d="M60.09,219H58.52l-1.23-1.7a1.12,1.12,0,0,1-.45-.9,1.1,1.1,0,0,1,.56-1Z"/><path id="_Path_79" data-name="&lt;Path&gt;" class="cls-38" d="M58.08,213.42a.93.93,0,1,0-1.39,1c0,.1,3.36,4.53,3.4,4.56h.8a.72.72,0,0,1,.72.7v0a.72.72,0,0,1,0,.17h.19l1.57,1.36v-.92Z"/><path id="_Path_80" data-name="&lt;Path&gt;" class="cls-38" d="M64.55,215.15s1.31,1.62,1.31,1.62h1.05a.74.74,0,0,1,.26,0h1.33l-2.57-2.7a.93.93,0,1,0-1.39,1Z"/><path id="_Path_81" data-name="&lt;Path&gt;" class="cls-38" d="M63,217.18a.75.75,0,0,0,.35.63v2.08l-4-5.42a1.42,1.42,0,1,1,2.22-1.66c.08.07,2.63,3.47,2.68,3.57l.06.05h-.53A.75.75,0,0,0,63,217.18Z"/><path id="_Compound_Path_2" data-name="&lt;Compound Path&gt;" class="cls-39" d="M60.24,214.8a1.42,1.42,0,1,1,1.42-1.42A1.42,1.42,0,0,1,60.24,214.8Zm0-2.31a.89.89,0,1,0,.89.89A.89.89,0,0,0,60.24,212.49Z"/><path id="_Compound_Path_3" data-name="&lt;Compound Path&gt;" class="cls-39" d="M65.05,215.3a.93.93,0,1,1,.93-.93A.93.93,0,0,1,65.05,215.3Zm0-1.32a.39.39,0,1,0,.39.39A.39.39,0,0,0,65.05,214Z"/><path id="_Compound_Path_4" data-name="&lt;Compound Path&gt;" class="cls-39" d="M58,217.53a1.12,1.12,0,1,1,1.12-1.12A1.12,1.12,0,0,1,58,217.53Zm0-1.7a.58.58,0,1,0,.58.58A.58.58,0,0,0,58,215.84Z"/><path id="_Compound_Path_5" data-name="&lt;Compound Path&gt;" class="cls-39" d="M57.2,214.61a.93.93,0,1,1,.93-.93A.93.93,0,0,1,57.2,214.61Zm0-1.32a.39.39,0,1,0,.39.39A.39.39,0,0,0,57.2,213.29Z"/><path id="_Path_82" data-name="&lt;Path&gt;" class="cls-30" d="M65.94,217.56v20.76H66a2.17,2.17,0,0,0,2.17-2.17V217.56Z"/><path id="_Path_83" data-name="&lt;Path&gt;" class="cls-14" d="M68.85,217.18a.75.75,0,0,1-.75.75H63.75a.75.75,0,0,1-.75-.75h0a.75.75,0,0,1,.75-.75H68.1a.75.75,0,0,1,.75.75Z"/><polygon id="_Path_84" data-name="&lt;Path&gt;" class="cls-31" points="68.5 217.21 68.5 218.94 65.92 218.24 63.35 217.93 63.35 217.21 68.5 217.21"/><path id="_Path_85" data-name="&lt;Path&gt;" class="cls-32" d="M63,217.14s0,0,0,0a.75.75,0,0,0,.75.75H68.1a.75.75,0,0,0,.75-.75s0,0,0,0Z"/></g></g><g id="_Group_18" data-name="&lt;Group&gt;"><circle id="_Path_86" data-name="&lt;Path&gt;" class="cls-2" cx="27.88" cy="147.8" r="27.88"/><circle id="_Path_87" data-name="&lt;Path&gt;" class="cls-40" cx="27.88" cy="147.8" r="25.16"/><g id="_Group_19" data-name="&lt;Group&gt;"><path id="_Path_88" data-name="&lt;Path&gt;" class="cls-4" d="M45.27,157.75l-.26.45a20.18,20.18,0,1,1,.26-.45Z"/><path id="_Path_89" data-name="&lt;Path&gt;" class="cls-11" d="M46.84,154.14a20.18,20.18,0,0,1-18.52,14l-7.84-7.84v-1.09a1,1,0,0,1,1-1h3.31l-5.28-4.91v-1.13h7.92l-4.53-4.46v-1.31h0a7,7,0,0,1-.29-1.43h-.47a.52.52,0,0,1-.52-.52v-8.48a.52.52,0,0,1,.52-.52h.78v-1.89l2.16-.13Z"/><g id="_Group_20" data-name="&lt;Group&gt;"><path id="_Path_90" data-name="&lt;Path&gt;" class="cls-13" d="M28,157.3c-.94-3.52-2.61-3.85-6.38-4.08h6.84Z"/><rect id="_Path_91" data-name="&lt;Path&gt;" class="cls-13" x="19.55" y="152.09" width="12.35" height="1.13"/><path id="_Path_92" data-name="&lt;Path&gt;" class="cls-41" d="M27,138.63h-1v2.66h.81a6.05,6.05,0,0,1,6.05,6.05A5.81,5.81,0,0,1,28.14,153v2.73a8.41,8.41,0,0,0,7.57-8.37A8.76,8.76,0,0,0,27,138.63Z"/><path id="_Path_93" data-name="&lt;Path&gt;" class="cls-14" d="M26.45,139.15v1.63a6.58,6.58,0,0,1,6.86,6.56,6.33,6.33,0,0,1-5.17,6.22v1.69a7.91,7.91,0,0,0,7.06-7.85C35.2,143.18,32,139.15,26.45,139.15Z"/><path id="_Path_94" data-name="&lt;Path&gt;" class="cls-42" d="M29.09,142.13a.49.49,0,0,1-.49.49H25.39v-4.36H28.6a.49.49,0,0,1,.49.49Z"/><circle id="_Path_95" data-name="&lt;Path&gt;" class="cls-16" cx="27.24" cy="140.42" r="1.17"/><path id="_Path_96" data-name="&lt;Path&gt;" class="cls-14" d="M27.24,140.92a.51.51,0,1,1,0-1A.51.51,0,0,1,27.24,140.92Z"/><g id="_Group_21" data-name="&lt;Group&gt;"><rect id="_Path_97" data-name="&lt;Path&gt;" class="cls-14" x="22.94" y="133.48" width="1.58" height="14.14"/><path id="_Path_98" data-name="&lt;Path&gt;" class="cls-41" d="M22.36,144.15h2.76l-.57,2.17H22.93Z"/><rect id="_Path_99" data-name="&lt;Path&gt;" class="cls-13" x="21.65" y="135.37" width="4.18" height="9.51" rx="0.52" ry="0.52"/></g><path id="_Path_100" data-name="&lt;Path&gt;" class="cls-43" d="M33.41,149.78a6.9,6.9,0,0,1-5,4.28v.61A7.27,7.27,0,0,0,34.17,150h0A.4.4,0,0,0,33.41,149.78Z"/><path id="_Path_101" data-name="&lt;Path&gt;" class="cls-5" d="M28.53,154.24a6.9,6.9,0,0,0,5-4.28.4.4,0,0,1,.63-.18.4.4,0,0,0-.75,0,6.9,6.9,0,0,1-5,4.28v.61l.13,0Z"/><path id="_Path_102" data-name="&lt;Path&gt;" class="cls-42" d="M30,158.67H27.3v-4.51a1.34,1.34,0,0,1,2.69,0Z"/><path id="_Path_103" data-name="&lt;Path&gt;" class="cls-16" d="M29.53,154.29a.88.88,0,0,1-1.76,0A.88.88,0,0,1,29.53,154.29Z"/><path id="_Path_104" data-name="&lt;Path&gt;" class="cls-14" d="M28.65,154.62a.33.33,0,0,1,0-.66A.33.33,0,0,1,28.65,154.62Z"/><path id="_Path_105" data-name="&lt;Path&gt;" class="cls-13" d="M34.26,160.26H20.48v-1.09a1,1,0,0,1,1-1H33.22a1,1,0,0,1,1,1Z"/></g><rect id="_Path_106" data-name="&lt;Path&gt;" class="cls-13" x="22.29" y="133.33" width="2.89" height="0.4" rx="0.14" ry="0.14"/></g></g><g id="_Group_22" data-name="&lt;Group&gt;"><circle id="_Path_107" data-name="&lt;Path&gt;" class="cls-2" cx="62.56" cy="62.64" r="27.88"/><circle id="_Path_108" data-name="&lt;Path&gt;" class="cls-44" cx="62.56" cy="62.64" r="25.16"/><path id="_Path_109" data-name="&lt;Path&gt;" class="cls-45" d="M73.67,60.7s-.07.49-.07.5c-.6,3.9-3.29,6.57-6,9.28a48.71,48.71,0,0,0-4,4.26,1.13,1.13,0,0,1-1.39.32c3.47-5.46,11-8.86,11-16.44a5.48,5.48,0,0,0-.59-2.49A5.94,5.94,0,0,1,73.67,60.7Z"/><g id="_Group_23" data-name="&lt;Group&gt;"><path id="_Path_110" data-name="&lt;Path&gt;" class="cls-4" d="M82.19,65.66A19.82,19.82,0,1,1,62.58,43,19.83,19.83,0,0,1,82.19,65.66Z"/><path id="_Path_111" data-name="&lt;Path&gt;" class="cls-5" d="M52.56,64.06,66.82,82S79,80.56,82,66.54l-9.3-9.92Z"/><path id="_Path_112" data-name="&lt;Path&gt;" class="cls-46" d="M73.27,60.46s0,.36,0,.36c-.61,4-3.11,6.54-6,9.42a48.88,48.88,0,0,0-4,4.26,1.13,1.13,0,0,1-1.79,0c-3.71-4.79-10.12-8.24-10.12-15.24a5.51,5.51,0,0,1,11,0,5.51,5.51,0,0,1,10.73-1.74A6.61,6.61,0,0,1,73.27,60.46Z"/><polyline id="_Path_113" data-name="&lt;Path&gt;" class="cls-47" points="52.65 63.18 59.51 63.18 60.62 65.63 62.61 58.9 63.96 63.78 65.19 59.13 66.48 62.77 72.23 62.77"/></g></g><g id="_Group_24" data-name="&lt;Group&gt;"><circle id="_Path_114" data-name="&lt;Path&gt;" class="cls-2" cx="265.16" cy="147.8" r="27.88"/><circle id="_Path_115" data-name="&lt;Path&gt;" class="cls-48" cx="264.66" cy="146.81" r="25.16"/><g id="_Group_25" data-name="&lt;Group&gt;"><path id="_Path_116" data-name="&lt;Path&gt;" class="cls-4" d="M284.28,146.72a19.36,19.36,0,0,1-36.91,8.18q-.39-.84-.71-1.72l-.17-.5a19.47,19.47,0,0,1-.94-6,19.36,19.36,0,1,1,38.72,0Z"/><rect id="_Rectangle_" data-name="&lt;Rectangle&gt;" class="cls-14" x="275.23" y="133.07" width="2.83" height="21.28"/><rect id="_Rectangle_2" data-name="&lt;Rectangle&gt;" class="cls-14" x="270.1" y="138.52" width="2.83" height="16.04"/><rect id="_Rectangle_3" data-name="&lt;Rectangle&gt;" class="cls-14" x="265.03" y="142.32" width="2.83" height="12.25"/><rect id="_Rectangle_4" data-name="&lt;Rectangle&gt;" class="cls-14" x="259.96" y="146.2" width="2.83" height="8.37"/><rect id="_Rectangle_5" data-name="&lt;Rectangle&gt;" class="cls-14" x="254.92" y="147.44" width="2.83" height="7.13"/><rect id="_Rectangle_6" data-name="&lt;Rectangle&gt;" class="cls-14" x="250.27" y="149.28" width="2.83" height="5.29"/><path id="_Path_117" data-name="&lt;Path&gt;" class="cls-5" d="M277.9,154.41l2.09,4.06s-3.88,6.63-13.72,7.5c0,0-4.23,1.16-11.87-3l-4.05-8.49Z"/><g id="_Group_26" data-name="&lt;Group&gt;"><path id="_Path_118" data-name="&lt;Path&gt;" class="cls-49" d="M273.53,157.81H257.37l1.47-5.38h13.22Z"/><path id="_Path_119" data-name="&lt;Path&gt;" class="cls-50" d="M273.53,157.55H257.37l1.47-5.38h13.22Z"/><path id="_Path_120" data-name="&lt;Path&gt;" class="cls-49" d="M273.53,157.29H257.37l1.47-5.38h13.22Z"/><path id="_Path_121" data-name="&lt;Path&gt;" class="cls-50" d="M273.53,157H257.37l1.47-5.38h13.22Z"/><path id="_Path_122" data-name="&lt;Path&gt;" class="cls-49" d="M273.53,156.77H257.37l1.47-5.38h13.22Z"/><path id="_Path_123" data-name="&lt;Path&gt;" class="cls-50" d="M273.53,156.51H257.37l1.47-5.38h13.22Z"/><path id="_Path_124" data-name="&lt;Path&gt;" class="cls-49" d="M273.53,156.25H257.37l1.47-5.38h13.22Z"/><path id="_Path_125" data-name="&lt;Path&gt;" class="cls-49" d="M273.53,156.22H257.37l1.47-5.38h13.22Z"/><path id="_Path_126" data-name="&lt;Path&gt;" class="cls-50" d="M273.53,156H257.37l1.47-5.38h13.22Z"/><path id="_Path_127" data-name="&lt;Path&gt;" class="cls-49" d="M273.53,155.7H257.37l1.47-5.38h13.22Z"/><path id="_Path_128" data-name="&lt;Path&gt;" class="cls-50" d="M273.53,155.44H257.37l1.47-5.38h13.22Z"/><path id="_Path_129" data-name="&lt;Path&gt;" class="cls-49" d="M273.53,155.18H257.37l1.47-5.38h13.22Z"/><path id="_Path_130" data-name="&lt;Path&gt;" class="cls-50" d="M273.53,154.92H257.37l1.47-5.38h13.22Z"/><g id="_Group_27" data-name="&lt;Group&gt;"><path id="_Path_131" data-name="&lt;Path&gt;" class="cls-49" d="M273.53,154.66H257.37l1.47-5.38h13.22Z"/><path id="_Path_132" data-name="&lt;Path&gt;" class="cls-14" d="M272.26,153.28l-.63-2.62a.91.91,0,0,1-.9-.61H260.17a.91.91,0,0,1-.9.61l-.63,2.62c.46,0,.77.28.7.61h12.2C271.47,153.56,271.79,153.28,272.26,153.28Z"/><path id="_Path_133" data-name="&lt;Path&gt;" class="cls-49" d="M267.55,152c.08.88-.86,1.6-2.1,1.6s-2.18-.71-2.1-1.6a2.18,2.18,0,0,1,4.2,0Z"/><g id="_Group_28" data-name="&lt;Group&gt;"><path id="_Path_134" data-name="&lt;Path&gt;" class="cls-16" d="M266.67,152.42a.5.5,0,0,0-.23-.4c-.18-.18-1.22-.3-1.37-.43a.19.19,0,0,1-.07-.15.21.21,0,0,1,.08-.16c.19-.17.74-.18.85.14l.6,0a.63.63,0,0,0-.29-.36,1.35,1.35,0,0,0-.59-.16v-.15h-.34s0,.1,0,.15a1.28,1.28,0,0,0-.64.19.51.51,0,0,0-.26.41.48.48,0,0,0,.21.41c.35.28,1.19.26,1.36.43a.26.26,0,0,1,.1.17.25.25,0,0,1-.11.19.85.85,0,0,1-.9,0,.42.42,0,0,1-.14-.21l-.64,0a.68.68,0,0,0,.33.46,1.55,1.55,0,0,0,.7.19q0,.14,0,.27h.37v-.28a1.55,1.55,0,0,0,.75-.23A.51.51,0,0,0,266.67,152.42Z"/></g></g><g id="_Group_29" data-name="&lt;Group&gt;"><g id="_Group_30" data-name="&lt;Group&gt;"><g id="_Group_31" data-name="&lt;Group&gt;"><path id="_Path_135" data-name="&lt;Path&gt;" class="cls-51" d="M270,160.6v0l0,.08v0l-.06.09,0,0-.08.08,0,0-.11.08,0,0-.09.05-.07,0-.08,0-.12.05-.08,0-.09,0-.11,0-.1,0-.11,0-.18,0-.08,0-.27.05h0l-.4.05h-1.35l-.22,0h-.07l-.17,0h-.08l-.16,0h-.06l-.22,0-.08,0-.14,0-.23-.08-.06,0-.12-.05-.06,0-.11-.05-.05,0-.09-.06,0,0-.07-.06,0,0-.05-.06,0-.05,0-.05,0-.06,0,0a.44.44,0,0,1,0-.11v1.06a.43.43,0,0,0,0,.11l0,0,0,.06,0,.05,0,.05.05.05,0,0,.06.05.06,0,.08,0,.07,0,.09,0,.07,0,.1,0,.08,0h0l.23.08h0l.16,0h0l.2,0h.07l.12,0H266l.16,0h0l.19,0h1.4l.4,0h0l.28-.05.09,0,.17,0h0l.07,0,.09,0,.12,0,.08,0h0l.05,0,.12-.05,0,0,.05,0,.07,0,0,0,.06,0,0,0h0l.09-.07h0l0,0,0,0,0,0v0l0-.07h0v0l0,0v-.06h0a.4.4,0,0,0,0-.08h0V160.5A.43.43,0,0,1,270,160.6Z"/><path id="_Compound_Path_6" data-name="&lt;Compound Path&gt;" class="cls-51" d="M267.06,162.69h-.67l-.19,0h0l-.16,0h0l-.15,0-.1,0h-.09l-.2,0h0l-.17,0h0l-.23-.08h0l0,0h-.06l-.07,0,0,0h-.06l-.06,0,0,0,0,0h0l-.06,0,0,0,0,0,0,0,0,0,0,0v0l0,0,0,0,0,0v0l0,0,0-.06h0v0a.47.47,0,0,1,0-.12V160.5h.08a.39.39,0,0,0,0,.1v.06l0,0,0,0v0l0,0,0,0h0l0,0,0,0,0,0,0,0h0l0,0,.08,0,0,0,0,0,.1.05h0l0,0,.1,0H265l.23.08.13,0h.09l.22,0h.06l.16,0H266l.17,0h.07l.22,0h1.35l.4,0h0l.27-.05h.08l.18,0,.1,0h0l.09,0,.08,0h0l.09,0,.06,0h0l.12-.05.08,0,.07,0,.08-.05h0l0,0,.1-.08h0l.07-.07h0l.06-.09h0l0-.08h0a.39.39,0,0,0,0-.09H270v1.06h0a.43.43,0,0,1,0,.08h0v0h0v0l0,0h0v0h0l0,.07h0l0,0-.05,0h0l-.09.07h0l0,0h0l0,0h0l-.07,0h0l0,0h0l-.12.05h-.09l-.08,0h0l-.12,0-.06,0h-.14l-.18,0h-.09l-.28.05h0l-.4,0h-.74Zm-.28-.08h1l.4,0h0l.27-.05h.09l.17,0h.14l.06,0,.11,0h0l.08,0h.08l.12-.05h0l0,0h0l.07,0h0l0,0h.07l.09-.07h0l0,0,0,0h0l0-.07h0l0,0v0h0v0h0a.36.36,0,0,0,0-.07h0v-.8l-.06.08h0l-.08.08h0l-.11.09,0,0h0l-.09.05-.07,0-.08,0-.12.05h0l-.06,0-.09,0h0l-.08,0-.09,0h0l-.11,0-.19,0h-.08l-.27.05h0l-.41.05h-1.36l-.22,0h-.07l-.18,0h-.09l-.17,0h-.06l-.22-.05h-.09l-.13,0-.23-.08h-.09l-.1,0,0,0h0l-.1-.05,0,0,0,0-.08,0,0,0h0l0,0-.05,0,0,0,0,0h0l0,0,0,0v0h0v.79a.39.39,0,0,0,0,.1v0h0l0,0,0,0v0l0,0,0,0,0,0,0,0,0,0,0,0,0,0,0,0,0,0,.06,0h0l0,0,0,0,.06,0h.06l0,0,.07,0H265l0,0h0l.23.08h0l.16,0h0l.2,0h.09l.1,0,.15,0h0l.16,0h0l.19,0h.37Z"/></g><g id="_Group_32" data-name="&lt;Group&gt;"><ellipse id="_Path_136" data-name="&lt;Path&gt;" class="cls-52" cx="267.06" cy="160.5" rx="2.91" ry="1.09"/><path id="_Compound_Path_7" data-name="&lt;Compound Path&gt;" class="cls-51" d="M267.06,161.63a6.1,6.1,0,0,1-2.07-.32c-.57-.21-.88-.5-.88-.81s.31-.59.88-.81a6.11,6.11,0,0,1,2.07-.32c1.65,0,2.94.5,2.94,1.13S268.71,161.63,267.06,161.63Zm0-2.18c-1.55,0-2.87.48-2.87,1s1.31,1,2.87,1a6,6,0,0,0,2-.32c.53-.2.83-.46.83-.73s-.3-.54-.83-.73A6,6,0,0,0,267.06,159.45Z"/></g><g id="_Group_33" data-name="&lt;Group&gt;"><path id="_Path_137" data-name="&lt;Path&gt;" class="cls-53" d="M264.43,161.11v.77l0,0,0,0,0,0V161h0l0,0Z"/><path id="_Path_138" data-name="&lt;Path&gt;" class="cls-53" d="M264.73,161.3v.78l-.1-.06v-.77h0Z"/><path id="_Path_139" data-name="&lt;Path&gt;" class="cls-53" d="M264.93,161.39v.78l.06,0h0v-.78Z"/><path id="_Path_140" data-name="&lt;Path&gt;" class="cls-53" d="M265.34,161.53v.78l-.1,0h0v-.78h0Z"/><path id="_Path_141" data-name="&lt;Path&gt;" class="cls-53" d="M265.64,161.6v.78l-.1,0v-.78h0Z"/><path id="_Path_142" data-name="&lt;Path&gt;" class="cls-53" d="M265.94,161.66v.78h-.11v-.78h.11Z"/><path id="_Path_143" data-name="&lt;Path&gt;" class="cls-53" d="M266.24,161.7v.78h-.1v-.78h.1Z"/><path id="_Path_144" data-name="&lt;Path&gt;" class="cls-53" d="M266.44,161.71v.78h.1v-.78Z"/><path id="_Path_145" data-name="&lt;Path&gt;" class="cls-53" d="M266.85,161.74v.78h-.1v-.78h.1Z"/><path id="_Path_146" data-name="&lt;Path&gt;" class="cls-53" d="M267.15,161.74v.78H267v-.78h.1Z"/><path id="_Path_147" data-name="&lt;Path&gt;" class="cls-53" d="M267.45,161.73v.78h-.1v-.78h.1Z"/><path id="_Path_148" data-name="&lt;Path&gt;" class="cls-53" d="M269.86,161.76h0l0,0,0,0h0v-.8l.07-.07,0,0v.79Z"/><polygon id="_Path_149" data-name="&lt;Path&gt;" class="cls-53" points="269.55 161.21 269.56 161.99 269.45 162.05 269.45 161.27 269.55 161.21"/><path id="_Path_150" data-name="&lt;Path&gt;" class="cls-53" d="M269.25,162.15l-.11,0v-.78l.08,0h0Z"/><path id="_Path_151" data-name="&lt;Path&gt;" class="cls-53" d="M268.95,162.26l-.1,0v-.78h0l.1,0h0Z"/><path id="_Path_152" data-name="&lt;Path&gt;" class="cls-53" d="M268.65,162.34l-.1,0v-.78h0l.08,0h0Z"/><path id="_Path_153" data-name="&lt;Path&gt;" class="cls-53" d="M268.34,162.41l-.1,0v-.78l.1,0h0Z"/><polygon id="_Path_154" data-name="&lt;Path&gt;" class="cls-53" points="268.04 161.68 268.05 162.46 267.94 162.47 267.94 161.69 268.04 161.68"/><path id="_Path_155" data-name="&lt;Path&gt;" class="cls-53" d="M267.74,162.49h-.1v-.78h.1Z"/></g></g><g id="_Group_34" data-name="&lt;Group&gt;"><g id="_Group_35" data-name="&lt;Group&gt;"><path id="_Path_156" data-name="&lt;Path&gt;" class="cls-51" d="M271,159.59v1.07a.4.4,0,0,1,0,.08h0v.06l0,0v0h0l0,.07v0l0,0,0,0,0,0h0l-.09.07h0l0,0-.06,0,0,0-.07,0,0,0,0,0-.12.05-.05,0h0l-.08,0-.12,0-.09,0-.07,0h0l-.17,0-.09,0-.28.05h0l-.4,0h-1.4l-.19,0h0l-.16,0h-.19l-.12,0h-.07l-.2,0h0l-.16,0h0l-.23-.08h0l-.08,0-.1,0-.07,0-.09,0-.07,0-.08,0-.06,0-.07-.05,0,0-.05-.05,0-.05,0-.05,0-.07,0,0a.42.42,0,0,1,0-.11v-1.06a.37.37,0,0,0,0,.05h0v0h0l0,0,0,0v0l0,.05,0,0,0,0,0,0,0,0h0l.07.05,0,0,.09.06.05,0,.11.06.06,0,.12.05.06,0,.3.1.07,0h0l.21,0h.05l.23,0,.17,0h.27l.19,0h1.26l.2,0h.21l.12,0h.06l.09,0h.08l.18,0,.1,0,.1,0,.11,0,.09,0,.08,0,.12-.05.08,0,.07,0,.08-.05,0,0,.05,0h0l0,0h0l.06-.06,0,0,0,0,.06-.09h0v0l0-.08v0h0v-.1Z"/><path id="_Compound_Path_8" data-name="&lt;Compound Path&gt;" class="cls-51" d="M268.14,161.78h-.67l-.19,0h0l-.15,0h-.19l-.08,0h-.11l-.2,0h0l-.17,0h0l-.23-.08h0l-.06,0h-.06l-.07,0,0,0,0,0h0l-.07,0,0,0,0,0h0l-.06,0,0,0,0,0-.05,0,0,0v0h0l0,0,0,0h0l0,0,0-.06h0v0a.47.47,0,0,1,0-.12v-1.06h.08a.34.34,0,0,0,0,0h0v0h0v0h0v0h0l0,0,0,0,0,0,0,0,0,0,0,0,0,0h0l0,0,0,0,0,0,.07,0,0,0,0,0,.11.05h0l0,0,.1,0h.08l.3.1h0l.07,0h0l.2,0h.06l.23,0,.17,0h.27l.19,0h1.26l.2,0h.21l.11,0h.23l.18,0,.1,0h0l.1,0,.08,0h0l.09,0,0,0,0,0,.12-.05.08,0,.07,0,.08,0h0l0,0,0,0h0l0,0,0,0,0,0h0l.06-.06h0v0h0l.06-.08h0l0-.08v-.11h.08v1.07a.48.48,0,0,1,0,.09h0v0h0v0l0,.05h0l0,.07h0v0l0,0,0,0h0l-.09.07h0l0,0h0l0,0h0l-.06,0h0l0,0h0l-.12.05h-.09l-.08,0h0l-.12,0-.09,0h-.12l-.18,0h-.09l-.28.05h0l-.4,0h-.74Zm-.27-.08h1l.39,0h0l.28-.05h.09l.17,0h.12l.09,0,.12,0h0l.07,0h.08l.12-.05h0l0,0h0l.06,0h0l0,0h0l0,0h0l.09-.07h0l0,0,0,0h0l0-.06h0l0,0v0h0v0h0a.38.38,0,0,0,0-.07v-.81l-.06.08h0l-.06.06h0l0,0h0l0,0,0,0h0l-.08.05-.07,0-.08,0-.12.06h0l0,0-.09,0h0l-.08,0-.1,0h0l-.1,0-.19,0h-.24l-.12,0h-.22l-.2,0H267.6l-.19,0h-.28l-.17,0-.23,0h-.05l-.21,0h0l-.07,0h0l-.3-.1H266l-.11,0,0,0h0l-.11-.06,0,0,0,0-.07,0,0,0,0,0-.05,0,0,0,0,0,0,0,0,0,0,0,0,0v0l0,0v.81a.38.38,0,0,0,0,.1v0h0l0,0,0,0v0h0l0,0,0,0h0l0,0,0,0,0,0,0,0,0,0,.05,0h0l0,0,0,0,.06,0h0l0,0,0,0,.06,0,0,0h0l.05,0h0l.23.08h0l.16,0h0l.19,0h.11l.08,0h.19l.15,0h0l.19,0h.39Z"/></g><g id="_Group_36" data-name="&lt;Group&gt;"><path id="_Path_157" data-name="&lt;Path&gt;" class="cls-52" d="M271,159.59v.1h0a.48.48,0,0,1,0,.12h0l-.06.09,0,0,0,0-.07.07h0l0,0h0l-.05,0,0,0h0a2.32,2.32,0,0,1-.43.22l-.2.07-.43.11h0l-.09,0h-.06l-.12,0-.11,0h-.1l-.27,0h-1.66l-.17,0-.17,0h-.11l-.21,0-.11,0-.3-.1a2.46,2.46,0,0,1-.35-.16,1.46,1.46,0,0,1-.26-.18h0l-.07-.07,0,0-.06-.09v0l0-.09h0v0h0a.37.37,0,0,1,0-.05.53.53,0,0,1,.17-.37,4.26,4.26,0,0,1,2.73-.72C269.74,158.5,271,159,271,159.59Z"/><path id="_Compound_Path_9" data-name="&lt;Compound Path&gt;" class="cls-51" d="M268.14,160.71h-1l-.17,0-.17,0h-.11l-.21,0-.11,0-.3-.1a2.53,2.53,0,0,1-.36-.16,1.57,1.57,0,0,1-.27-.19h0l-.08-.08,0,0-.06-.1v0l0-.1h0v0h0a.41.41,0,0,1,0-.06.57.57,0,0,1,.19-.4,4.32,4.32,0,0,1,2.76-.73c1.65,0,2.94.5,2.94,1.13v.1h0a.53.53,0,0,1-.05.13h0l-.06.09h0l-.07.07h0l0,0h0l0,0,0,0h0a2.37,2.37,0,0,1-.44.22l-.2.07-.43.11h-.2l-.12,0-.11,0h-.11l-.27,0h-.66Zm-1.45-.22h.12l.16,0,.17,0h1.65l.27,0h.1l.11,0,.12,0h.19l.43-.11.2-.07a2.28,2.28,0,0,0,.43-.21h0l0,0,0,0h0l0,0,0,0,0,0,.07-.07h0v0h0l.06-.08h0a.44.44,0,0,0,0-.1h0v-.09c0-.27-.3-.54-.83-.73a6,6,0,0,0-2-.32,4.25,4.25,0,0,0-2.7.71.49.49,0,0,0-.16.34.34.34,0,0,0,0,0h0v0h0l0,.08h0l.06.09,0,0,.07.07h0a1.45,1.45,0,0,0,.26.18,2.45,2.45,0,0,0,.34.16l.3.1.11,0Z"/></g><g id="_Group_37" data-name="&lt;Group&gt;"><path id="_Path_158" data-name="&lt;Path&gt;" class="cls-53" d="M265.51,160.2V161l0,0,0,0,0,0v-.78h0l0,0Z"/><path id="_Path_159" data-name="&lt;Path&gt;" class="cls-53" d="M265.81,160.39v.78l-.1-.06v-.77h0Z"/><path id="_Path_160" data-name="&lt;Path&gt;" class="cls-53" d="M266,160.47v.78l.06,0h0v-.78Z"/><path id="_Path_161" data-name="&lt;Path&gt;" class="cls-53" d="M266.42,160.61v.78l-.1,0h0v-.78h0Z"/><path id="_Path_162" data-name="&lt;Path&gt;" class="cls-53" d="M266.72,160.69v.78l-.1,0v-.78h0Z"/><path id="_Path_163" data-name="&lt;Path&gt;" class="cls-53" d="M267,160.74v.78h-.11v-.78H267Z"/><path id="_Path_164" data-name="&lt;Path&gt;" class="cls-53" d="M267.32,160.78v.78h-.1v-.78h.1Z"/><path id="_Path_165" data-name="&lt;Path&gt;" class="cls-53" d="M267.52,160.8v.78h.1v-.78Z"/><path id="_Path_166" data-name="&lt;Path&gt;" class="cls-53" d="M267.93,160.82v.78h-.1v-.78h.1Z"/><path id="_Path_167" data-name="&lt;Path&gt;" class="cls-53" d="M268.23,160.82v.78h-.11v-.78h.1Z"/><path id="_Path_168" data-name="&lt;Path&gt;" class="cls-53" d="M268.53,160.82v.78h-.1v-.78h.1Z"/><path id="_Path_169" data-name="&lt;Path&gt;" class="cls-53" d="M270.94,160.84h0l0,0,0,0h0v-.8l.07-.07,0,0v.79Z"/><polygon id="_Path_170" data-name="&lt;Path&gt;" class="cls-53" points="270.63 160.3 270.64 161.07 270.53 161.13 270.53 160.36 270.63 160.3"/><path id="_Path_171" data-name="&lt;Path&gt;" class="cls-53" d="M270.33,161.23l-.11,0v-.78l.08,0h0Z"/><path id="_Path_172" data-name="&lt;Path&gt;" class="cls-53" d="M270,161.34l-.1,0v-.78h0l.1,0h0Z"/><path id="_Path_173" data-name="&lt;Path&gt;" class="cls-53" d="M269.73,161.43l-.1,0v-.78h0l.08,0h0Z"/><path id="_Path_174" data-name="&lt;Path&gt;" class="cls-53" d="M269.42,161.49l-.1,0v-.78l.1,0h0Z"/><polygon id="_Path_175" data-name="&lt;Path&gt;" class="cls-53" points="269.12 160.76 269.13 161.54 269.02 161.55 269.02 160.78 269.12 160.76"/><path id="_Path_176" data-name="&lt;Path&gt;" class="cls-53" d="M268.82,161.58h-.1v-.78h.1Z"/></g></g><g id="_Group_38" data-name="&lt;Group&gt;"><g id="_Group_39" data-name="&lt;Group&gt;"><path id="_Path_177" data-name="&lt;Path&gt;" class="cls-51" d="M270,158.4v0l0,.08v0l-.06.09,0,0-.08.08,0,0-.11.08,0,0-.09.05-.07,0-.08,0-.12.05-.08,0-.09,0-.11,0-.1,0-.11,0-.18,0-.08,0-.27.05h0l-.41.05h-1.35l-.22,0h-.07l-.17,0h-.08l-.17,0h-.06l-.22-.05-.08,0-.14,0-.23-.08-.06,0-.13-.05-.06,0-.11-.05-.05,0-.09-.06,0,0-.07-.06,0,0-.05-.06,0-.05,0-.05,0-.06,0,0a.44.44,0,0,1,0-.11v1.06a.43.43,0,0,0,0,.11l0,0,0,.06,0,.05,0,.05.05.05,0,0,.07.05.06,0,.08,0,.07,0,.09,0,.07,0,.1,0,.08,0h0l.23.08h0l.16,0h0l.2,0h.07l.12,0H266l.16,0h0l.19,0h1.4l.4,0h0l.28-.05.09,0,.17,0h0l.07,0,.09,0,.12,0,.08,0h0l.05,0,.12-.05,0,0,0,0,.07,0,0,0,.06,0,0,0h0l.09-.07h0l0,0,0,0,0,0v0l0-.07h0v0l0,0v-.06h0a.42.42,0,0,0,0-.08h0V158.3A.41.41,0,0,1,270,158.4Z"/><path id="_Compound_Path_10" data-name="&lt;Compound Path&gt;" class="cls-51" d="M267.07,160.49h-.67l-.19,0h0l-.16,0h-.19l-.1,0h-.09l-.2,0h0l-.17,0h0l-.23-.08h0l-.05,0h-.05l-.08,0,0,0h-.05l-.07,0,0,0,0,0h0l-.06,0,0,0h0l-.05,0,0,0,0,0,0,0,0,0,0,0v0l0,0,0-.06h0v0a.46.46,0,0,1,0-.12V158.3h.08a.4.4,0,0,0,0,.1v.06l0,0,0,0h0v0l0,0,0,0,0,0,0,0,0,0,0,0,0,0h0l0,0,.07,0,0,0,0,0,.1.05h0l0,0,.11,0H265l.23.08.14,0h.07l.22,0h.06l.16,0H266l.17,0h.07l.22,0h1.35l.4-.05h0l.27-.05h.08l.18,0,.1,0h0l.09,0,.09,0h0l.08,0,.06,0h0l.12-.05.08,0h0l.06,0,.08-.05h0l0,0,.1-.08h0l.07-.07h0l.06-.09h0l0-.08h0a.36.36,0,0,0,0-.09H270v1.08a.44.44,0,0,1,0,.08v0h0v0l0,0h0l0,.07h0v0h0l0,0,0,0h0l-.09.07h0l0,0h0l0,0h0l-.07,0h0l0,0h0l-.12.05h-.09l-.08,0h0l-.11,0-.08,0h-.13l-.18,0h-.09l-.28.05h0l-.4,0h-.74Zm-.28-.08h1l.4,0h0l.27-.05h.09l.17,0h.13l.08,0,.11,0h0l.08,0h.08l.12-.05h0l0,0h0l.07,0h0l0,0h.07l.08-.07h0l0,0,0,0v0h0l0-.06h0l0,0v0h0v0h0a.38.38,0,0,0,0-.07h0v-.8l-.06.08h0l-.08.08h0l-.11.08,0,0h0l-.09.05-.07,0h0l-.08,0-.12.06h0l-.06,0-.08,0h0l-.09,0-.09,0h0l-.11,0-.18,0h-.08l-.27.05h0l-.41.05h-1.36l-.22,0h-.07l-.18,0h-.09l-.17,0h-.06l-.22-.05h-.08l-.14,0-.23-.08h-.08l-.11,0,0,0h0l-.1-.05,0,0,0,0-.07,0,0,0h0l0,0-.05,0,0,0,0,0,0,0,0,0,0,0v0h0l0,0v.81a.4.4,0,0,0,0,.1v.05l0,0,0,0v0l0,0,0,0,0,0,0,0,0,0,0,0h0l0,0,.05,0h0l0,0,0,0,.06,0h.05l0,0,.07,0H265l0,0h0l.23.08h0l.16,0h0l.2,0h.09l.09,0H266l.16,0h0v0l.19,0h.38Z"/></g><g id="_Group_40" data-name="&lt;Group&gt;"><ellipse id="_Path_178" data-name="&lt;Path&gt;" class="cls-52" cx="267.07" cy="158.3" rx="2.91" ry="1.09"/><path id="_Compound_Path_11" data-name="&lt;Compound Path&gt;" class="cls-51" d="M267.07,159.43a6.1,6.1,0,0,1-2.07-.32c-.57-.21-.88-.5-.88-.81s.31-.59.88-.81a6.1,6.1,0,0,1,2.07-.32c1.65,0,2.94.5,2.94,1.13S268.72,159.43,267.07,159.43Zm0-2.18c-1.55,0-2.87.48-2.87,1s1.31,1,2.87,1a6,6,0,0,0,2-.32c.53-.2.83-.46.83-.73s-.3-.54-.83-.73A6,6,0,0,0,267.07,157.25Z"/></g><g id="_Group_41" data-name="&lt;Group&gt;"><path id="_Path_179" data-name="&lt;Path&gt;" class="cls-53" d="M264.44,158.91v.77l0,0,0,0,0,0v-.78h0l0,0Z"/><path id="_Path_180" data-name="&lt;Path&gt;" class="cls-53" d="M264.74,159.1v.78l-.1-.06V159h0Z"/><path id="_Path_181" data-name="&lt;Path&gt;" class="cls-53" d="M264.94,159.19V160l.06,0h0v-.78Z"/><path id="_Path_182" data-name="&lt;Path&gt;" class="cls-53" d="M265.35,159.33v.78l-.1,0h0v-.78h0Z"/><path id="_Path_183" data-name="&lt;Path&gt;" class="cls-53" d="M265.65,159.4v.78l-.1,0v-.78h0Z"/><path id="_Path_184" data-name="&lt;Path&gt;" class="cls-53" d="M266,159.46v.78h-.11v-.78H266Z"/><path id="_Path_185" data-name="&lt;Path&gt;" class="cls-53" d="M266.25,159.5v.78h-.1v-.78h.1Z"/><path id="_Path_186" data-name="&lt;Path&gt;" class="cls-53" d="M266.45,159.51v.78h.1v-.78Z"/><path id="_Path_187" data-name="&lt;Path&gt;" class="cls-53" d="M266.86,159.54v.78h-.1v-.78h.1Z"/><path id="_Path_188" data-name="&lt;Path&gt;" class="cls-53" d="M267.16,159.54v.78H267v-.78h.1Z"/><path id="_Path_189" data-name="&lt;Path&gt;" class="cls-53" d="M267.46,159.53v.78h-.1v-.78h.1Z"/><path id="_Path_190" data-name="&lt;Path&gt;" class="cls-53" d="M269.87,159.56h0l0,0,0,0h0v-.8l.07-.07,0,0v.79Z"/><polygon id="_Path_191" data-name="&lt;Path&gt;" class="cls-53" points="269.56 159.01 269.56 159.79 269.46 159.85 269.46 159.07 269.56 159.01"/><path id="_Path_192" data-name="&lt;Path&gt;" class="cls-53" d="M269.26,159.94l-.11,0v-.78l.08,0h0Z"/><path id="_Path_193" data-name="&lt;Path&gt;" class="cls-53" d="M269,160.06l-.1,0v-.78h0l.1,0h0Z"/><path id="_Path_194" data-name="&lt;Path&gt;" class="cls-53" d="M268.66,160.14l-.1,0v-.78h0l.08,0h0Z"/><path id="_Path_195" data-name="&lt;Path&gt;" class="cls-53" d="M268.35,160.21l-.1,0v-.78l.1,0h0Z"/><polygon id="_Path_196" data-name="&lt;Path&gt;" class="cls-53" points="268.05 159.48 268.05 160.25 267.95 160.27 267.94 159.49 268.05 159.48"/><path id="_Path_197" data-name="&lt;Path&gt;" class="cls-53" d="M267.75,160.29h-.1v-.78h.1Z"/></g></g><path id="_Compound_Path_12" data-name="&lt;Compound Path&gt;" class="cls-38" d="M268.14,158.5c-1.25,0-2.64,0-3,.4l.35.35,0,0,0,0,.05.05,0,0,0,0,0,0,.05.05,0,0,0,0,0,0,.05.05,0,0,0,0,0,0,.05.05,0,0,0,0,0,0,.05.05,0,0,0,0,0,0,.05.05,0,0,0,0,0,0,.05.05,0,0,0,0,0,0,0,0h.11l.17,0,.17,0h1.66l.27,0h.1l.11,0,.12,0h.06l.09,0h0l.43-.11.2-.07a2.32,2.32,0,0,0,.43-.22h0l0,0,.05,0h0l0,0h0l.07-.07,0,0,0,0,.06-.09h0a.47.47,0,0,0,0-.12h0v-.1C271,159,269.74,158.5,268.14,158.5Z"/><g id="_Group_42" data-name="&lt;Group&gt;"><g id="_Group_43" data-name="&lt;Group&gt;"><path id="_Path_198" data-name="&lt;Path&gt;" class="cls-51" d="M270.52,157.36v0l0,.08v0l-.06.09,0,0-.07.08,0,0-.11.08,0,0-.09.05-.07,0-.08,0-.12.05-.08,0-.09,0-.11,0-.1,0-.1,0-.18,0-.08,0-.27.05h0l-.41.05H267l-.22,0h-.07l-.17,0h-.09l-.16,0h-.06l-.22-.05-.08,0-.14,0-.23-.08-.06,0-.12-.05-.06,0-.11-.05-.05,0-.09-.06,0,0-.07-.06,0,0-.05-.06,0-.05,0-.05,0-.06,0,0a.41.41,0,0,1,0-.11v1.06a.41.41,0,0,0,0,.11l0,0,0,.06,0,.05,0,.05.05.05,0,0,.07.05.06,0,.08,0,.07,0,.09,0,.07,0,.1,0,.08,0h0l.23.08h0l.16,0h0l.2,0h.07l.12,0h.19l.16,0h0l.19,0h1.4l.4,0h0l.28-.05.09,0,.17,0h0l.07,0,.09,0,.12,0,.08,0h0l.05,0,.12-.05,0,0,0,0,.07,0,0,0,.06,0,0,0h0l.09-.07h0l0,0,0,0,0,0v0l0-.07h0v0l0,0v-.06h0a.42.42,0,0,0,0-.08h0v-1.06A.43.43,0,0,1,270.52,157.36Z"/><path id="_Compound_Path_13" data-name="&lt;Compound Path&gt;" class="cls-51" d="M267.63,159.45H267l-.19,0h0l-.16,0h-.19l-.1,0h-.09l-.2,0h0l-.17,0h0l-.23-.08h0l-.06,0,0,0-.08,0,0,0h-.05l-.07,0,0,0,0,0-.06,0,0,0,0,0,0,0,0,0,0,0v0l0,0,0,0,0,0v0l0,0,0-.05v0h0v0a.46.46,0,0,1,0-.12v-1.06h.08a.38.38,0,0,0,0,.1v0h0l0,0,0,0v0l0,0,0,0,0,0,0,0,0,0,.05,0,0,0,0,0,0,0,.08,0,0,0,0,0,.09,0,0,0,0,0,.1,0h.08l.23.08.14,0H266l.22,0h.06l.16,0h.08l.17,0h.06v0l.22,0h1.34l.4-.05h0l.27-.05h.08l.18,0,.1,0h0l.09,0,.11,0,.09,0,.05,0h0l.12-.05.08,0,.07,0,.08-.05h0l0,0,.1-.08h0l.07-.07h0l.06-.09h0l0-.08h0a.39.39,0,0,0,0-.09h.08v1.06h0a.43.43,0,0,1,0,.08h0v0h0v0l0,0h0l0,.08h0l0,0,0,0h0l-.09.07h0l0,0h0l0,0h0l-.07,0h0l0,0h0l-.12.05h-.09l-.06,0h0l-.11,0-.09,0h-.12l-.17,0h-.09l-.28.05h0l-.4,0h-.74Zm-.28-.08h1l.39,0h0l.28-.05h.09l.17,0h.12l.09,0,.1,0h0l.06,0h.08l.12-.05H270l.07,0h0l0,0h.07l.08-.07h0l0,0,0,0h0l0-.06h0l0,0v0h0v0h0a.36.36,0,0,0,0-.07h0v-.8l-.06.08h0l-.08.08h0l-.11.09,0,0h0l-.09.05-.07,0-.08,0-.12.06h0l-.06,0-.09,0-.11,0-.09,0h0l-.11,0-.19,0h-.08l-.27.05h0l-.41.05H267l-.22,0h-.07l-.18,0h-.09l-.17,0h-.06l-.22-.05h-.08l-.14,0-.23-.08h-.08l-.11,0,0,0,0,0-.09,0,0,0,0,0-.08-.05,0,0h0l0,0-.06,0,0,0h0l0,0,0,0,0,0v0h0v.78a.38.38,0,0,0,0,.1v.06l0,0,0,0v0l0,0,0,0,0,0,0,0,0,0,0,0,0,0,0,0,0,0,.06,0,0,0,0,0,.07,0h.05l0,0,.07,0,.05,0,.05,0h0l.22.08h0l.16,0h0l.2,0h.09l.1,0h.19l.16,0h0l.19,0h.37Z"/></g><g id="_Group_44" data-name="&lt;Group&gt;"><ellipse id="_Path_199" data-name="&lt;Path&gt;" class="cls-54" cx="267.63" cy="157.26" rx="2.91" ry="1.09"/><path id="_Compound_Path_14" data-name="&lt;Compound Path&gt;" class="cls-51" d="M267.63,158.39a6.1,6.1,0,0,1-2.07-.32c-.57-.21-.88-.5-.88-.81s.31-.59.88-.81a6.1,6.1,0,0,1,2.07-.32c1.65,0,2.94.5,2.94,1.13S269.28,158.39,267.63,158.39Zm0-2.18c-1.55,0-2.87.48-2.87,1s1.31,1,2.87,1a6,6,0,0,0,2-.32c.52-.2.83-.46.83-.73s-.3-.54-.83-.73A6,6,0,0,0,267.63,156.21Z"/></g><g id="_Group_45" data-name="&lt;Group&gt;"><path id="_Path_200" data-name="&lt;Path&gt;" class="cls-53" d="M265,157.87v.77l0,0,0,0,0,0v-.78h0l0,0Z"/><path id="_Path_201" data-name="&lt;Path&gt;" class="cls-53" d="M265.3,158.06v.78l-.1-.06V158h0Z"/><path id="_Path_202" data-name="&lt;Path&gt;" class="cls-53" d="M265.5,158.15v.78l.06,0h0v-.78Z"/><path id="_Path_203" data-name="&lt;Path&gt;" class="cls-53" d="M265.9,158.28v.78l-.1,0h0v-.78h0Z"/><path id="_Path_204" data-name="&lt;Path&gt;" class="cls-53" d="M266.21,158.36v.78l-.1,0v-.78h0Z"/><path id="_Path_205" data-name="&lt;Path&gt;" class="cls-53" d="M266.51,158.42v.78h-.11v-.78h.11Z"/><path id="_Path_206" data-name="&lt;Path&gt;" class="cls-53" d="M266.81,158.46v.78h-.1v-.78h.1Z"/><path id="_Path_207" data-name="&lt;Path&gt;" class="cls-53" d="M267,158.47v.78h.1v-.78Z"/><path id="_Path_208" data-name="&lt;Path&gt;" class="cls-53" d="M267.42,158.5v.78h-.1v-.78h.1Z"/><path id="_Path_209" data-name="&lt;Path&gt;" class="cls-53" d="M267.72,158.5v.78h-.11v-.78h.1Z"/><path id="_Path_210" data-name="&lt;Path&gt;" class="cls-53" d="M268,158.49v.78h-.1v-.78h.1Z"/><path id="_Path_211" data-name="&lt;Path&gt;" class="cls-53" d="M270.43,158.52h0l0,0,0,0h0v-.8l.07-.07,0,0v.79Z"/><polygon id="_Path_212" data-name="&lt;Path&gt;" class="cls-53" points="270.12 157.97 270.12 158.75 270.02 158.81 270.02 158.03 270.12 157.97"/><path id="_Path_213" data-name="&lt;Path&gt;" class="cls-53" d="M269.82,158.9l-.11,0v-.78l.08,0h0Z"/><path id="_Path_214" data-name="&lt;Path&gt;" class="cls-53" d="M269.52,159l-.1,0v-.78h0l.1,0h0Z"/><path id="_Path_215" data-name="&lt;Path&gt;" class="cls-53" d="M269.21,159.1l-.1,0v-.78h0l.08,0h0Z"/><path id="_Path_216" data-name="&lt;Path&gt;" class="cls-53" d="M268.91,159.16l-.1,0v-.78l.1,0h0Z"/><polygon id="_Path_217" data-name="&lt;Path&gt;" class="cls-53" points="268.61 158.44 268.61 159.21 268.51 159.22 268.5 158.45 268.61 158.44"/><path id="_Path_218" data-name="&lt;Path&gt;" class="cls-53" d="M268.31,159.25h-.1v-.78h.1Z"/></g></g><g id="_Group_46" data-name="&lt;Group&gt;"><g id="_Group_47" data-name="&lt;Group&gt;"><path id="_Path_219" data-name="&lt;Path&gt;" class="cls-51" d="M269.81,155.85v0l0,.08v0l-.06.09,0,0-.08.08,0,0-.11.08,0,0-.09.05-.07,0-.08,0-.12.05-.08,0-.09,0-.11,0-.1,0-.1,0-.18,0-.08,0-.27.05h0l-.4.05h-1.35l-.22,0H266l-.17,0h-.08l-.17,0h-.06l-.22-.05-.08,0-.14,0-.23-.08-.06,0-.12-.05-.06,0-.11-.06-.05,0-.09-.06,0,0-.07-.06,0,0-.05-.06,0-.05,0-.05,0-.06,0,0a.41.41,0,0,1,0-.11v1.06a.41.41,0,0,0,0,.11l0,0,0,.06,0,.05,0,.05.05.05,0,0,.07.05.06,0,.08,0,.07,0,.09,0,.07,0,.1,0,.08,0h0l.23.08h0l.16,0h0l.2,0h.07l.12,0h.19l.16,0h0l.19,0h1.4l.4-.05h0l.28-.05.09,0,.17,0h0l.07,0,.09,0,.12,0,.08,0h0l.05,0,.12-.05,0,0,0,0,.07,0,0,0,.06,0,0,0h0l.09-.07h0l0,0,0,0,0,0v0l0-.07h0v0l0,0v-.06h0a.47.47,0,0,0,0-.08h0v-1.06A.45.45,0,0,1,269.81,155.85Z"/><path id="_Compound_Path_15" data-name="&lt;Compound Path&gt;" class="cls-51" d="M266.91,157.94h-.67l-.19,0h0l-.16,0h-.19l-.08,0h-.11l-.2,0h0l-.17,0h0l-.23-.08h0l-.05,0,0,0-.08,0,0,0h0l0,0-.06,0,0,0h0l-.06,0,0,0,0,0h0l0,0,0,0,0,0h0l0,0,0,0v0l0,0,0-.05v0h0v0a.46.46,0,0,1,0-.12v-1.06H264a.37.37,0,0,0,0,.1v0h0l0,0,0,0h0v0l0,0,0,0,0,0h0l0,0,0,0,0,0,0,0,0,0,.07,0,0,0,0,0,.09,0h0l0,0,.1,0h.09l.23.08.11,0h.11l.22,0h.06l.16,0h.08l.17,0h.07l.22,0h1.34l.4-.05h0l.27,0h.08l.18,0,.1,0,.1,0,.11,0,.09,0,.05,0h0l.12-.05.08,0,.07,0,.08-.05h0l0,0,.1-.08h0l.07-.07h0l.06-.09h0l0-.08h0a.4.4,0,0,0,0-.09h.08v1.07a.49.49,0,0,1,0,.09h0v0h0v0l0,0h0l0,.08h0l0,0,0,0h0l0,0,0,0h0l-.09.07h0l0,0,0,0,0,0h0l-.07,0h0l0,0h0l-.12.05H269l-.08,0-.12,0-.07,0h0l-.05,0h0l-.17,0h-.09l-.28.05h0l-.4,0h-.74Zm-.28-.08h1l.39,0h0l.28-.05h.09l.17,0h.14l.07,0,.12,0,.08,0h.08l.12-.05h.08l.07,0h0l0,0,0,0,0,0h0l.09-.07h0l0,0,0,0h0l0-.06h0v-.06h0v0h0a.4.4,0,0,0,0-.07V156l-.06.08h0l-.08.08h0l-.11.09,0,0h0l-.09.05-.07,0-.08,0-.12.06h0l-.05,0-.09,0-.11,0-.1,0-.11,0-.19,0h-.08l-.27.05h0l-.41.05h-1.36l-.22,0v0H266l-.18,0h-.09l-.17,0h-.06l-.22-.05h-.11l-.11,0-.23-.08h-.09l-.1,0,0,0h0l-.09,0,0,0,0,0-.08,0,0,0h0l0,0-.05,0,0,0h0l0,0,0,0v0h0l0,0v.81a.38.38,0,0,0,0,.1V157l0,0,0,0v0l0,0,0,0,0,0,0,0,0,0,0,0h0l0,0,0,0,.06,0h0l0,0,.06,0,0,0,0,0,0,0,.08,0,.05,0,0,0h0l.23.08h0l.16,0h0l.2,0h.11l.08,0h.19l.16,0h0l.19,0h.37Z"/></g><g id="_Group_48" data-name="&lt;Group&gt;"><ellipse id="_Path_220" data-name="&lt;Path&gt;" class="cls-52" cx="266.91" cy="155.75" rx="2.91" ry="1.09"/><path id="_Compound_Path_16" data-name="&lt;Compound Path&gt;" class="cls-51" d="M266.91,156.88a6.1,6.1,0,0,1-2.07-.32c-.57-.21-.88-.5-.88-.81s.31-.59.88-.81a6.1,6.1,0,0,1,2.07-.32c1.65,0,2.94.5,2.94,1.13S268.56,156.88,266.91,156.88Zm0-2.18c-1.55,0-2.87.48-2.87,1s1.31,1,2.87,1a6,6,0,0,0,2-.32c.53-.2.83-.46.83-.73s-.3-.54-.83-.73A6,6,0,0,0,266.91,154.7Z"/></g><g id="_Group_49" data-name="&lt;Group&gt;"><path id="_Path_221" data-name="&lt;Path&gt;" class="cls-53" d="M264.28,156.36v.77l0,0,0,0,0,0v-.78h0l0,0Z"/><path id="_Path_222" data-name="&lt;Path&gt;" class="cls-53" d="M264.58,156.55v.78l-.1-.06v-.77h0Z"/><path id="_Path_223" data-name="&lt;Path&gt;" class="cls-53" d="M264.78,156.64v.78l.06,0h0v-.78Z"/><path id="_Path_224" data-name="&lt;Path&gt;" class="cls-53" d="M265.19,156.78v.78l-.1,0h0v-.78h0Z"/><path id="_Path_225" data-name="&lt;Path&gt;" class="cls-53" d="M265.49,156.85v.78l-.1,0v-.78h0Z"/><path id="_Path_226" data-name="&lt;Path&gt;" class="cls-53" d="M265.8,156.91v.78h-.11v-.78h.11Z"/><path id="_Path_227" data-name="&lt;Path&gt;" class="cls-53" d="M266.1,156.95v.78H266v-.78h.1Z"/><path id="_Path_228" data-name="&lt;Path&gt;" class="cls-53" d="M266.3,157v.78h.1V157Z"/><path id="_Path_229" data-name="&lt;Path&gt;" class="cls-53" d="M266.7,157v.78h-.1V157h.1Z"/><path id="_Path_230" data-name="&lt;Path&gt;" class="cls-53" d="M267,157v.78h-.11V157h.1Z"/><path id="_Path_231" data-name="&lt;Path&gt;" class="cls-53" d="M267.3,157v.78h-.1V157h.1Z"/><path id="_Path_232" data-name="&lt;Path&gt;" class="cls-53" d="M269.71,157h0l0,0,0,0h0v-.8l.07-.07,0,0V157Z"/><polygon id="_Path_233" data-name="&lt;Path&gt;" class="cls-53" points="269.41 156.46 269.41 157.24 269.31 157.3 269.3 156.52 269.41 156.46"/><path id="_Path_234" data-name="&lt;Path&gt;" class="cls-53" d="M269.11,157.4l-.11,0v-.78l.08,0h0Z"/><path id="_Path_235" data-name="&lt;Path&gt;" class="cls-53" d="M268.8,157.51l-.1,0v-.78h0l.1,0h0Z"/><path id="_Path_236" data-name="&lt;Path&gt;" class="cls-53" d="M268.5,157.59l-.1,0v-.78h0l.08,0h0Z"/><path id="_Path_237" data-name="&lt;Path&gt;" class="cls-53" d="M268.2,157.66l-.1,0v-.78l.1,0h0Z"/><polygon id="_Path_238" data-name="&lt;Path&gt;" class="cls-53" points="267.89 156.93 267.9 157.71 267.79 157.72 267.79 156.94 267.89 156.93"/><path id="_Path_239" data-name="&lt;Path&gt;" class="cls-53" d="M267.59,157.74h-.1V157h.1Z"/></g></g><path id="_Path_240" data-name="&lt;Path&gt;" class="cls-14" d="M270.1,156.59l-.43.12a.43.43,0,0,0-.31.42v.46l-.12-.44a.42.42,0,0,0-.41-.31h-.45l.43-.12a.43.43,0,0,0,.31-.42v-.46l.12.44a.42.42,0,0,0,.41.31Z"/><path id="_Path_241" data-name="&lt;Path&gt;" class="cls-14" d="M265.28,159.12l-.2.06a.2.2,0,0,0-.14.19v.21l-.06-.2a.19.19,0,0,0-.19-.14h-.2l.2-.06a.2.2,0,0,0,.14-.19v-.21l.06.2a.19.19,0,0,0,.19.14Z"/></g></g><g id="_Group_50" data-name="&lt;Group&gt;"><polygon id="_Path_242" data-name="&lt;Path&gt;" class="cls-55" points="274.31 139.19 269.58 137.47 277.43 135.45 276.85 143.54 274.31 139.19"/><rect id="_Path_243" data-name="&lt;Path&gt;" class="cls-55" x="264.41" y="142.02" width="12.63" height="1.93" transform="translate(-21.81 233.32) rotate(-45)"/><rect id="_Path_244" data-name="&lt;Path&gt;" class="cls-55" x="259.98" y="139.29" width="2.05" height="12.63" transform="translate(10.41 308.47) rotate(-62.17)"/><path id="_Path_245" data-name="&lt;Path&gt;" class="cls-55" d="M257.65,143.07l-7,7q-.33-.71-.6-1.46l-.14-.43,6.39-6.39Z"/><g id="_Group_51" data-name="&lt;Group&gt;"><circle id="_Path_246" data-name="&lt;Path&gt;" class="cls-14" cx="256.64" cy="143.45" r="1.82"/><path id="_Compound_Path_17" data-name="&lt;Compound Path&gt;" class="cls-56" d="M256.64,141.25a2.2,2.2,0,0,0-2.2,2.2,2.17,2.17,0,0,0,.12.71,2.2,2.2,0,0,0,4.17,0,2.18,2.18,0,0,0,.12-.71A2.2,2.2,0,0,0,256.64,141.25Zm1.23,2.2a1.23,1.23,0,0,1-2.46,0,1.21,1.21,0,0,1,0-.15,1.24,1.24,0,0,1,1.07-1.07h.3a1.24,1.24,0,0,1,1.07,1.07A1.21,1.21,0,0,1,257.87,143.45Z"/></g><g id="_Group_52" data-name="&lt;Group&gt;"><circle id="_Path_247" data-name="&lt;Path&gt;" class="cls-14" cx="265.86" cy="148.25" r="1.94"/><path id="_Compound_Path_18" data-name="&lt;Compound Path&gt;" class="cls-56" d="M265.86,145.9a2.35,2.35,0,0,0-2.35,2.35,2.31,2.31,0,0,0,.13.76,2.35,2.35,0,0,0,4.44,0,2.32,2.32,0,0,0,.13-.76A2.35,2.35,0,0,0,265.86,145.9Zm1.31,2.35a1.31,1.31,0,0,1-2.63,0,1.26,1.26,0,0,1,0-.16,1.32,1.32,0,0,1,1.14-1.14H266a1.32,1.32,0,0,1,1.14,1.14A1.26,1.26,0,0,1,267.17,148.25Z"/></g></g></g></g><g id="_Group_53" data-name="&lt;Group&gt;"><g id="_Group_54" data-name="&lt;Group&gt;"><circle id="_Path_248" data-name="&lt;Path&gt;" class="cls-2" cx="227.87" cy="228.84" r="27.88"/><circle id="_Path_249" data-name="&lt;Path&gt;" class="cls-57" cx="227.87" cy="228.84" r="25.16"/></g><g id="_Group_55" data-name="&lt;Group&gt;"><circle id="_Path_250" data-name="&lt;Path&gt;" class="cls-4" cx="228.07" cy="229.04" r="19.48"/><path id="_Path_251" data-name="&lt;Path&gt;" class="cls-11" d="M241.37,221.25l.16.2,6,7.58s.88,9.74-9.19,16.69c0,0-7.18,4.46-15.59,2.11l-10.19-12.72"/><g id="_Group_56" data-name="&lt;Group&gt;"><g id="_Group_57" data-name="&lt;Group&gt;"><polygon id="_Path_252" data-name="&lt;Path&gt;" class="cls-20" points="242.34 234.39 232.03 236.82 232.01 236.83 231.14 237.03 228.91 237.56 228.01 237.77 218.17 240.09 218.07 236.39 218.06 236 218.06 236 228 233.66 228.01 233.65 228.01 233.65 228.91 233.44 231.14 232.92 231.2 232.9 232.01 232.71 232.01 232.71 232.03 232.7 242.22 230.3 242.22 230.3 242.29 232.82 242.3 233.14 242.31 233.58 242.32 233.9 242.34 234.39"/><polygon id="_Path_253" data-name="&lt;Path&gt;" class="cls-20" points="218.06 236 212.46 231.03 212.57 235.12 218.17 240.09 218.06 236"/><polygon id="_Path_254" data-name="&lt;Path&gt;" class="cls-20" points="242.22 230.3 234.06 232.23 232.01 232.71 230.94 232.97 228.01 233.66 228 233.66 227.15 233.86 220.13 235.52 218.06 236 216.93 235 216.86 234.93 216.85 234.93 216.53 234.65 216.53 234.64 216.26 234.4 216.13 234.29 216.13 234.28 212.47 231.04 213.35 230.83 213.83 230.72 215.8 230.25 220.74 229.09 225.34 228 226.44 227.74 234.86 225.76 236.62 225.34 237.9 226.47 242.22 230.3 242.22 230.3"/><path id="_Compound_Path_19" data-name="&lt;Compound Path&gt;" class="cls-58" d="M239.52,229.2,237,226.94a3.6,3.6,0,0,1-2.77-.36L227,228.26l-4,1-6.73,1.59c.49.45.07,1-1,1.25l2.55,2.26a3.57,3.57,0,0,1,2.79.38l6.73-1.59,4-1,7.16-1.69C238.06,230,238.49,229.44,239.52,229.2Zm-8.34,2.74a6.34,6.34,0,0,1-1.62.59,10.44,10.44,0,0,1-2.54.26,6.58,6.58,0,0,1-4-1.12c-.78-.7-.61-1.51.31-2.14a5.75,5.75,0,0,1,1.93-.79,10.1,10.1,0,0,1,2-.26,7,7,0,0,1,4.54,1.12C232.68,230.37,232.36,231.28,231.18,231.93Z"/><polygon id="_Path_255" data-name="&lt;Path&gt;" class="cls-59" points="242.26 231.31 242.25 230.99 218.09 236.69 218.1 237.01 242.26 231.31"/><polygon id="_Path_256" data-name="&lt;Path&gt;" class="cls-59" points="242.28 232.22 242.27 231.9 218.11 237.6 218.12 237.92 242.28 232.22"/><polygon id="_Path_257" data-name="&lt;Path&gt;" class="cls-59" points="242.29 232.82 218.15 238.52 218.16 238.84 242.3 233.14 242.29 232.82"/><polygon id="_Path_258" data-name="&lt;Path&gt;" class="cls-59" points="242.32 233.9 218.23 239.58 218.22 239.26 242.31 233.58 242.32 233.9"/><polygon id="_Path_259" data-name="&lt;Path&gt;" class="cls-59" points="218.09 237.01 218.08 236.69 212.46 231.74 212.47 232.06 218.09 237.01"/><polygon id="_Path_260" data-name="&lt;Path&gt;" class="cls-59" points="218.12 237.93 218.11 237.6 212.49 232.65 212.5 232.97 218.12 237.93"/><polygon id="_Path_261" data-name="&lt;Path&gt;" class="cls-59" points="218.16 238.84 218.14 238.51 212.52 233.56 212.53 233.88 218.16 238.84"/><polygon id="_Path_262" data-name="&lt;Path&gt;" class="cls-59" points="218.18 239.57 218.17 239.24 212.55 234.29 212.56 234.62 218.18 239.57"/><path id="_Path_263" data-name="&lt;Path&gt;" class="cls-60" d="M226.13,228.79l.22.19a6.1,6.1,0,0,1,1.16-.08,2.57,2.57,0,0,1,1.34.33l-1.34.41a1.53,1.53,0,0,0-.67-.2,2.07,2.07,0,0,0-.66.07q-.41.1-.5.25c0,.09,0,.17.07.26a2.05,2.05,0,0,0,1,.28l.86,0,.89,0a9.55,9.55,0,0,1,1.2.13,2.25,2.25,0,0,1,.92.32q.46.37,0,.76a3.08,3.08,0,0,1-.92.42l.23.21-1.25.3-.24-.22a5.42,5.42,0,0,1-1.72,0,2.48,2.48,0,0,1-1-.39l1.38-.37a1.82,1.82,0,0,0,.87.27,2.24,2.24,0,0,0,.67-.05h0a1,1,0,0,0,.61-.33c0-.07,0-.15-.07-.23a1.84,1.84,0,0,0-1-.24l-1.75-.06a10.33,10.33,0,0,1-1.39-.13,1.84,1.84,0,0,1-.88-.35.38.38,0,0,1-.11-.5,1.68,1.68,0,0,1,1-.6l-.22-.19Z"/><polygon id="_Path_264" data-name="&lt;Path&gt;" class="cls-61" points="232.01 232.71 232.01 236.83 231.14 237.03 228.91 237.56 228.01 237.77 228.01 233.65 228.91 233.44 231.14 232.92 231.2 232.9 232.01 232.71 232.01 232.71"/><polygon id="_Path_265" data-name="&lt;Path&gt;" class="cls-12" points="228.01 233.65 228.01 237.77 228.91 237.56 228.91 233.44 228.01 233.65"/><polygon id="_Path_266" data-name="&lt;Path&gt;" class="cls-12" points="232.03 236.82 232.03 232.7 232.03 232.19 232.01 232.2 232.01 232.71 232.01 232.71 231.2 232.9 231.14 232.92 231.14 237.03 232.01 236.83 232.03 236.82"/></g><g id="_Group_58" data-name="&lt;Group&gt;"><polygon id="_Path_267" data-name="&lt;Path&gt;" class="cls-42" points="227.7 227.94 223.75 228.91 229.28 233.73 233.24 232.77 227.7 227.94"/><polygon id="_Path_268" data-name="&lt;Path&gt;" class="cls-20" points="236.36 234.56 236.29 234.79 236.29 234.8 236.29 234.8 236.12 235.37 236.12 235.37 236.03 235.7 235.88 236.18 235.88 236.18 235.79 236.51 235.79 236.51 235.68 237.7 226.47 233.42 226.43 233.4 225.63 233.03 223.47 232.03 222.66 231.65 213.66 227.47 213.69 226.07 213.72 225.7 213.75 225.18 213.77 224.81 213.77 224.81 213.81 224.28 213.83 223.91 213.86 223.41 213.87 223.41 213.87 223.41 222.7 227.42 222.71 227.43 223.51 227.79 223.52 227.79 225.67 228.77 225.68 228.77 226.22 229.02 226.38 229.09 226.47 229.13 226.51 229.15 235.82 233.37 235.82 233.38 236.36 234.56"/><polygon id="_Path_269" data-name="&lt;Path&gt;" class="cls-59" points="236.03 234.25 235.94 234.47 235.93 234.48 235.9 234.56 213.81 224.28 213.83 223.91 236 234.24 236.03 234.25"/><polygon id="_Path_270" data-name="&lt;Path&gt;" class="cls-59" points="236.04 235.2 235.91 235.51 235.89 235.51 213.75 225.18 213.77 224.81 235.99 235.18 236.04 235.2"/><polygon id="_Path_271" data-name="&lt;Path&gt;" class="cls-59" points="235.98 236.08 235.85 236.4 235.81 236.37 213.69 226.07 213.72 225.7 235.91 236.04 235.98 236.08"/><polygon id="_Path_272" data-name="&lt;Path&gt;" class="cls-59" points="235.98 236.94 235.85 237.25 235.81 237.23 213.66 226.91 213.68 226.54 235.91 236.9 235.98 236.94"/><polygon id="_Path_273" data-name="&lt;Path&gt;" class="cls-20" points="235.68 233.37 243.65 229.07 243.69 233.22 235.68 237.7 235.68 233.37"/><polygon id="_Path_274" data-name="&lt;Path&gt;" class="cls-59" points="243.67 229.78 235.68 234.09 235.68 234.47 243.67 230.15 243.67 229.78"/><polygon id="_Path_275" data-name="&lt;Path&gt;" class="cls-59" points="243.67 230.7 235.68 235.01 235.68 235.39 243.67 231.07 243.67 230.7"/><polygon id="_Path_276" data-name="&lt;Path&gt;" class="cls-59" points="243.67 231.63 235.68 235.94 235.68 236.32 243.67 232 243.67 231.63"/><polygon id="_Path_277" data-name="&lt;Path&gt;" class="cls-59" points="243.67 232.48 235.68 236.8 235.68 237.17 243.67 232.86 243.67 232.48"/><polygon id="_Path_278" data-name="&lt;Path&gt;" class="cls-20" points="243.65 229.07 235.68 233.37 226.7 229.27 225.85 228.89 223.66 227.88 222.8 227.49 213.86 223.42 222.66 219.38 243.65 229.07"/><path id="_Compound_Path_20" data-name="&lt;Compound Path&gt;" class="cls-58" d="M240.36,228.36l-8.11-3.2c1.6,1,2,2.27.88,3s-3.07.6-5,0h0c-.31-.09-.63-.2-.93-.32l-.63-.28a7.21,7.21,0,0,1-1.35-.82,4.06,4.06,0,0,1-.58-.54c-.69-.8-.7-1.59.14-2.09a6.15,6.15,0,0,1,4-.29l.63.14h0l.72.21-6.47-3a3.54,3.54,0,0,1-2.8-.25l-2.86,1.72c1,.47,1.12,1.33.55,1.67l16,7.6a1.43,1.43,0,0,1,2.26-.19l3.7-1.95C239.64,229.35,239.81,228.7,240.36,228.36Zm-9-3.71a10.2,10.2,0,0,0-1.28-.51l2.18,1A8.17,8.17,0,0,0,231.35,224.65Z"/><path id="_Path_279" data-name="&lt;Path&gt;" class="cls-60" d="M230.06,224.54l-.24.14a6.43,6.43,0,0,0-1.11-.32,2.52,2.52,0,0,0-1.35,0l1.24.68a1.48,1.48,0,0,1,.68-.05,2.19,2.19,0,0,1,.63.2q.38.18.45.35c0,.09,0,.17-.11.23a2,2,0,0,1-1.06,0l-.84-.15-.87-.17a9.52,9.52,0,0,0-1.19-.13,2.16,2.16,0,0,0-.94.11q-.5.26-.07.74a3.34,3.34,0,0,0,.84.6l-.26.15,1.18.55.27-.16a5.53,5.53,0,0,0,1.67.37,2.35,2.35,0,0,0,1-.16l-1.29-.64a1.76,1.76,0,0,1-.88.07,2.3,2.3,0,0,1-.64-.19l0,0a1.08,1.08,0,0,1-.55-.44c0-.08,0-.14.1-.21a1.79,1.79,0,0,1,1,0l1.71.31a10.48,10.48,0,0,0,1.37.17,1.75,1.75,0,0,0,.91-.15.35.35,0,0,0,.18-.46,1.82,1.82,0,0,0-.86-.78l.24-.14Z"/><polygon id="_Path_280" data-name="&lt;Path&gt;" class="cls-61" points="226.47 229.17 226.47 229.22 226.47 229.23 226.47 229.23 226.43 233.4 225.63 233.03 223.47 232.03 222.66 231.65 222.7 227.42 222.71 227.43 223.51 227.79 223.52 227.79 225.67 228.77 225.68 228.77 226.22 229.02 226.38 229.09 226.47 229.17"/><polygon id="_Path_281" data-name="&lt;Path&gt;" class="cls-12" points="223.51 227.79 223.47 232.03 222.66 231.65 222.7 227.42 222.71 227.43 223.51 227.79"/><polygon id="_Path_282" data-name="&lt;Path&gt;" class="cls-12" points="226.47 233.42 226.51 229.15 226.22 229.02 225.68 228.77 225.67 228.77 225.63 233.03 226.43 233.4 226.47 233.42"/><polygon id="_Path_283" data-name="&lt;Path&gt;" class="cls-62" points="232.51 225.48 226.51 229.17 225.74 228.82 223.55 227.81 222.69 227.42 228.77 223.64 229.59 224.05 231.72 225.09 232.51 225.48"/><polygon id="_Path_284" data-name="&lt;Path&gt;" class="cls-12" points="229.59 224.05 223.55 227.81 222.69 227.42 228.77 223.64 229.59 224.05"/><polygon id="_Path_285" data-name="&lt;Path&gt;" class="cls-12" points="232.48 225.46 226.51 229.19 225.66 228.78 231.64 225.06 231.66 225.05 232.48 225.46"/></g><g id="_Group_59" data-name="&lt;Group&gt;"><polygon id="_Path_286" data-name="&lt;Path&gt;" class="cls-20" points="217.46 227.21 217.57 231.36 241.73 225.58 241.62 221.43 217.46 227.21"/><polygon id="_Path_287" data-name="&lt;Path&gt;" class="cls-59" points="217.49 227.84 217.5 228.16 241.65 222.38 241.65 222.06 217.49 227.84"/><polygon id="_Path_288" data-name="&lt;Path&gt;" class="cls-59" points="217.51 228.76 217.52 229.09 241.68 223.31 241.67 222.98 217.51 228.76"/><polygon id="_Path_289" data-name="&lt;Path&gt;" class="cls-59" points="217.54 229.69 217.56 230.02 241.71 224.24 241.71 223.91 217.54 229.69"/><polygon id="_Path_290" data-name="&lt;Path&gt;" class="cls-59" points="217.54 230.56 217.56 230.89 241.71 225.11 241.71 224.78 217.54 230.56"/><path id="_Path_291" data-name="&lt;Path&gt;" class="cls-20" d="M217.52,229.09l0-.93v-.32h0l0-.62-5.6-5,0,.66v.33l0,.6v.33l0,.6v1.64l5.6,5,0-1.35Z"/><polygon id="_Path_292" data-name="&lt;Path&gt;" class="cls-59" points="217.48 227.84 211.88 222.83 211.89 223.16 217.49 228.17 217.49 228.17 217.48 227.84 217.48 227.84"/><polygon id="_Path_293" data-name="&lt;Path&gt;" class="cls-59" points="211.91 223.76 211.93 224.09 217.52 229.09 217.51 228.76 211.91 223.76"/><polygon id="_Path_294" data-name="&lt;Path&gt;" class="cls-59" points="211.94 224.68 211.96 225.01 217.55 230.02 217.54 229.69 211.94 224.68"/><polygon id="_Path_295" data-name="&lt;Path&gt;" class="cls-59" points="211.97 225.56 211.97 225.88 217.56 230.89 217.56 230.57 211.97 225.56"/><polygon id="_Path_296" data-name="&lt;Path&gt;" class="cls-20" points="211.86 222.18 217.46 227.22 241.62 221.44 236.02 216.4 211.86 222.18"/><path id="_Compound_Path_21" data-name="&lt;Compound Path&gt;" class="cls-58" d="M238.92,220.32l-2.55-2.3a3.55,3.55,0,0,1-2.78-.37l-17.93,4.29c.5.45.07,1-1,1.26l2.55,2.3a3.53,3.53,0,0,1,2.79.38l17.92-4.3C237.46,221.13,237.89,220.56,238.92,220.32Zm-10,3.38c-2.42.58-5.35.19-6.53-.88s-.18-2.4,2.24-3,5.35-.19,6.53.88S231.38,223.11,229,223.69Z"/><path id="_Path_297" data-name="&lt;Path&gt;" class="cls-13" d="M230.08,221.92a2.24,2.24,0,0,0-.92-.32,9.48,9.48,0,0,0-1.2-.13l-.89,0c-.38,0-.66,0-.86,0a2,2,0,0,1-1-.28c-.1-.09-.12-.17-.07-.26a.76.76,0,0,1,.5-.26,2,2,0,0,1,.66-.07,1.51,1.51,0,0,1,.67.21l1.34-.42a2.55,2.55,0,0,0-1.34-.33,6.06,6.06,0,0,0-1.16.08l-.22-.19-1.25.3.22.19a1.67,1.67,0,0,0-1,.61.38.38,0,0,0,.11.51,1.82,1.82,0,0,0,.88.36,10.18,10.18,0,0,0,1.39.13l1.75.06a1.82,1.82,0,0,1,1,.24c.1.09.12.16.07.23a1,1,0,0,1-.61.33h0a2.18,2.18,0,0,1-.67.05,1.8,1.8,0,0,1-.87-.27l-1.38.37a2.46,2.46,0,0,0,1,.39,5.35,5.35,0,0,0,1.72,0l.24.22,1.25-.3-.23-.21a3.06,3.06,0,0,0,.92-.43Q230.55,222.3,230.08,221.92Z"/></g></g></g></g><g id="_Group_60" data-name="&lt;Group&gt;"><path id="_Path_298" data-name="&lt;Path&gt;" class="cls-63" d="M93.4,140.35a53.34,53.34,0,0,1,15.47-32.17,1.71,1.71,0,0,0,0-2.41L91.73,88.63h0A1.71,1.71,0,0,0,89.31,91h0l17.14,17.14a1.71,1.71,0,0,1,0-2.41A56.72,56.72,0,0,0,90,140h0a1.71,1.71,0,0,0,3.39.38Z"/><path id="_Path_299" data-name="&lt;Path&gt;" class="cls-63" d="M113.31,104.2A53.34,53.34,0,0,1,147,92.39a1.71,1.71,0,0,0,1.71-1.71V66.44h0a1.71,1.71,0,0,0-3.41,0h0V90.68A1.71,1.71,0,0,1,147,89a56.72,56.72,0,0,0-35.82,12.56h0a1.71,1.71,0,0,0,2.13,2.66Z"/><path id="_Path_300" data-name="&lt;Path&gt;" class="cls-63" d="M152.72,92.32a53.34,53.34,0,0,1,32.18,15.44,1.71,1.71,0,0,0,2.41,0L204.43,90.6h0A1.71,1.71,0,0,0,202,88.19h0L184.9,105.34a1.71,1.71,0,0,1,2.41,0,56.72,56.72,0,0,0-34.22-16.41h0a1.71,1.71,0,0,0-.37,3.39Z"/><path id="_Path_301" data-name="&lt;Path&gt;" class="cls-63" d="M200.6,152.28a53.35,53.35,0,0,1-15.47,32.17,1.71,1.71,0,0,0,0,2.41L202.27,204h0a1.71,1.71,0,0,0,2.41-2.41h0l-17.14-17.14a1.71,1.71,0,0,1,0,2.41A56.72,56.72,0,0,0,204,152.66h0a1.71,1.71,0,0,0-3.39-.38Z"/><path id="_Path_302" data-name="&lt;Path&gt;" class="cls-63" d="M180.68,188.43A53.34,53.34,0,0,1,147,200.24a1.71,1.71,0,0,0-1.71,1.71v24.23h0a1.71,1.71,0,0,0,3.41,0h0V202a1.71,1.71,0,0,1-1.71,1.71,56.73,56.73,0,0,0,35.82-12.56h0a1.71,1.71,0,0,0-2.13-2.66Z"/><path id="_Path_303" data-name="&lt;Path&gt;" class="cls-63" d="M139.27,200.61a53.34,53.34,0,0,1-32.06-15.68,1.71,1.71,0,0,0-2.41,0l-17.25,17h0a1.71,1.71,0,1,0,2.4,2.43h0l17.25-17a1.71,1.71,0,0,1-2.41,0A56.73,56.73,0,0,0,138.87,204h0a1.71,1.71,0,0,0,.4-3.39Z"/><path id="_Path_304" data-name="&lt;Path&gt;" class="cls-63" d="M104.62,179.32a53.34,53.34,0,0,1-11.43-33.81,1.71,1.71,0,0,0-1.69-1.73l-24.23-.27h0a1.71,1.71,0,1,0,0,3.41h0l24.23.27a1.71,1.71,0,0,1-1.69-1.73,56.73,56.73,0,0,0,12.16,36h0a1.71,1.71,0,0,0,2.69-2.1Z"/><path id="_Path_305" data-name="&lt;Path&gt;" class="cls-63" d="M186.85,112.63a53.34,53.34,0,0,1,12.33,33.5,1.71,1.71,0,0,0,1.73,1.68l24.23-.38h0a1.71,1.71,0,1,0-.05-3.41h0l-24.23.38a1.71,1.71,0,0,1,1.73,1.68,56.72,56.72,0,0,0-13.12-35.62h0a1.71,1.71,0,0,0-2.63,2.17Z"/></g></g></g></g></svg>