<svg xmlns="http://www.w3.org/2000/svg" width="61.12" height="61.12" viewBox="0 0 61.12 61.12"><defs><style>.cls-1{fill:#d0d6d7;stroke:#6d6e70;stroke-miterlimit:10;stroke-width:2.28px;}.cls-2{opacity:0.2;}.cls-3,.cls-8{fill:#0f2036;}.cls-4{fill:#bbbdbf;}.cls-5{fill:#e54c3c;}.cls-6,.cls-7{fill:#fff;}.cls-6,.cls-8{opacity:0.5;}.cls-9{fill:#eec748;}.cls-10{fill:#0e2037;}.cls-11{fill:#e93924;}.cls-12{fill:#364d5c;}.cls-13{opacity:0.06;}.cls-14{opacity:0.1;}</style></defs><title>icon-study</title><g id="Layer_2" data-name="Layer 2"><g id="Layer_1-2" data-name="Layer 1"><g id="_Group_" data-name="&lt;Group&gt;"><path id="_Path_" data-name="&lt;Path&gt;" class="cls-1" d="M60,30.56a29.41,29.41,0,1,1-.18-3.22A29.45,29.45,0,0,1,60,30.56Z"/><path id="_Path_2" data-name="&lt;Path&gt;" class="cls-2" d="M58.56,33.63C57.62,47,44.87,58.05,33.27,58.92a16.5,16.5,0,0,1-3.54-.25L17.11,46a1.83,1.83,0,0,1-1-1.62V22.22A1.83,1.83,0,0,1,18,20.39h.3V19.22H30.67a1.76,1.76,0,0,1,1.47.8l.11.18a1.84,1.84,0,0,1,.3.19h1.13l.24-.37a1.75,1.75,0,0,1,1.47-.8H48.3l.78,1.24a1.82,1.82,0,0,1,.64.32l.14.12a1.82,1.82,0,0,1,.37.49c.23.12,4.88,4.44,8.35,7.94A17.19,17.19,0,0,1,58.56,33.63Z"/><g id="_Group_2" data-name="&lt;Group&gt;"><rect id="_Path_3" data-name="&lt;Path&gt;" class="cls-3" x="16.12" y="20.39" width="34.32" height="25.86" rx="1.83" ry="1.83"/><path id="_Path_4" data-name="&lt;Path&gt;" class="cls-4" d="M48.3,42.44H35.64a1.75,1.75,0,0,0-1.35.64L33,44.61,31.65,43a1.75,1.75,0,0,0-1.32-.6H18.25V19.22H30.66a1.75,1.75,0,0,1,1.47.8L33,21.39,33.91,20a1.75,1.75,0,0,1,1.47-.8H48.3Z"/><polygon id="_Path_5" data-name="&lt;Path&gt;" class="cls-5" points="41.79 48.05 40.59 46.81 39.4 48.05 39.4 34.91 41.79 34.91 41.79 48.05"/><rect id="_Path_6" data-name="&lt;Path&gt;" class="cls-6" x="18.25" y="21.17" width="30.04" height="23.22"/><path id="_Path_7" data-name="&lt;Path&gt;" class="cls-7" d="M33,45.16l-1.59-.73a1.66,1.66,0,0,0-.69-.15H18.25v-.22H30.75a1.87,1.87,0,0,1,.77.17l1.5.69,1.39-.67a1.87,1.87,0,0,1,.81-.19H48.3v.22H35.21a1.65,1.65,0,0,0-.72.16Z"/><path id="_Path_8" data-name="&lt;Path&gt;" class="cls-7" d="M33,45.18,31.54,44a1.65,1.65,0,0,0-1-.36H18.25v-.22H30.51a1.87,1.87,0,0,1,1.17.41L33,44.9l1.24-1a1.86,1.86,0,0,1,1.2-.44H48.3v.22H35.45a1.65,1.65,0,0,0-1.06.39Z"/><path id="_Path_9" data-name="&lt;Path&gt;" class="cls-7" d="M33,45l-1.45-1.5a1.65,1.65,0,0,0-1.18-.5H18.25v-.22H30.38a1.87,1.87,0,0,1,1.34.57L33,44.67l1.2-1.3a1.87,1.87,0,0,1,1.37-.6H48.3V43H35.58a1.65,1.65,0,0,0-1.21.53Z"/><rect id="_Path_10" data-name="&lt;Path&gt;" class="cls-8" x="32.92" y="20.95" width="0.2" height="24.4"/><g id="_Group_3" data-name="&lt;Group&gt;"><rect id="_Path_11" data-name="&lt;Path&gt;" class="cls-2" x="35.7" y="21.61" width="11.05" height="1.36"/><rect id="_Path_12" data-name="&lt;Path&gt;" class="cls-2" x="35.7" y="25.15" width="11.05" height="1.36"/><rect id="_Path_13" data-name="&lt;Path&gt;" class="cls-2" x="35.7" y="28.69" width="11.05" height="1.36"/><rect id="_Path_14" data-name="&lt;Path&gt;" class="cls-2" x="35.7" y="32.22" width="11.05" height="1.36"/><rect id="_Path_15" data-name="&lt;Path&gt;" class="cls-2" x="35.7" y="35.76" width="11.05" height="1.36"/><rect id="_Path_16" data-name="&lt;Path&gt;" class="cls-2" x="35.7" y="39.3" width="11.05" height="1.36"/></g><g id="_Group_4" data-name="&lt;Group&gt;"><rect id="_Path_17" data-name="&lt;Path&gt;" class="cls-2" x="21.74" y="21.61" width="7.46" height="1.36"/><rect id="_Path_18" data-name="&lt;Path&gt;" class="cls-2" x="19.95" y="25.15" width="11.05" height="1.36"/><rect id="_Path_19" data-name="&lt;Path&gt;" class="cls-2" x="19.95" y="28.69" width="11.05" height="1.36"/><rect id="_Path_20" data-name="&lt;Path&gt;" class="cls-2" x="19.95" y="32.22" width="11.05" height="1.36"/><rect id="_Path_21" data-name="&lt;Path&gt;" class="cls-2" x="19.95" y="35.76" width="11.05" height="1.36"/><rect id="_Path_22" data-name="&lt;Path&gt;" class="cls-2" x="19.95" y="39.3" width="11.05" height="1.36"/></g></g><g id="_Group_5" data-name="&lt;Group&gt;"><path id="_Path_23" data-name="&lt;Path&gt;" class="cls-9" d="M35.39,26.75a11.75,11.75,0,0,1-3.06,1.1,11.75,11.75,0,0,1,2.35-2.25c1.13-.7,1.54-.59,1.73-.28S36.52,26,35.39,26.75Z"/><polygon id="_Path_24" data-name="&lt;Path&gt;" class="cls-10" points="35.85 26.72 34.91 25.21 40.3 21.87 41.22 23.37 40.93 23.55 35.85 26.72"/><rect id="_Path_25" data-name="&lt;Path&gt;" class="cls-7" x="40.44" y="21.83" width="0.34" height="1.76" transform="translate(-5.87 24.77) rotate(-31.75)"/><g id="_Group_6" data-name="&lt;Group&gt;"><path id="_Path_26" data-name="&lt;Path&gt;" class="cls-9" d="M27.43,13.88A11.75,11.75,0,0,1,24.37,15a11.75,11.75,0,0,1,2.35-2.25c1.13-.7,1.54-.59,1.73-.28S28.56,13.18,27.43,13.88Z"/><polygon id="_Path_27" data-name="&lt;Path&gt;" class="cls-10" points="27.89 13.86 26.95 12.34 32.34 9.01 33.26 10.5 32.97 10.68 27.89 13.86"/><rect id="_Path_28" data-name="&lt;Path&gt;" class="cls-7" x="32.48" y="8.97" width="0.34" height="1.76" transform="translate(-0.3 18.65) rotate(-31.74)"/></g><path id="_Path_29" data-name="&lt;Path&gt;" class="cls-7" d="M37.69,15.63,27.15,7a1.46,1.46,0,0,0-1.68-.05l-1.06.65L39,31.1,40,30.44a1.46,1.46,0,0,0,.7-1.53Z"/><path id="_Path_30" data-name="&lt;Path&gt;" class="cls-11" d="M40.71,28.92l-3-13.28L27.15,7a1.46,1.46,0,0,0-1.68-.05l-1.06.65,0,0,.44-.27a1.47,1.47,0,0,1,1.68.06l10.54,8.64,3,13.29a1.34,1.34,0,0,1-.31,1.2l.19-.12A1.46,1.46,0,0,0,40.71,28.92Z"/><path id="_Path_31" data-name="&lt;Path&gt;" class="cls-7" d="M27.27,22.08l-5.72-5a.74.74,0,0,0-.87-.07l-.51.31,8.17,13.21.51-.31a.74.74,0,0,0,.33-.81Z"/><path id="_Path_32" data-name="&lt;Path&gt;" class="cls-12" d="M29.18,29.42l-1.91-7.34-5.71-5a.74.74,0,0,0-.87-.07l-.51.31,0,0,0,0a.75.75,0,0,1,.88.08l5.72,5,1.91,7.34a.82.82,0,0,1-.08.57l.19-.12A.74.74,0,0,0,29.18,29.42Z"/><path id="_Path_33" data-name="&lt;Path&gt;" class="cls-13" d="M28.27,25.92l-2.52.44-1.66-2.66a3,3,0,0,1,.7-.66l2-1.39.49.42Z"/><path id="_Path_34" data-name="&lt;Path&gt;" class="cls-13" d="M39,21.41,33.85,22.9l-2.66-4.3,5.47-3.8,1,.84Z"/><path id="_Path_35" data-name="&lt;Path&gt;" class="cls-7" d="M41.07,17.07q-.45.3-1,.59L26.15,25.25a3,3,0,0,1-3.43-.35,3.14,3.14,0,0,1,1.22-3.23l12.71-8.81c2.17-1.49,6.13-3,7.33-1.22S42.83,15.89,41.07,17.07Z"/><path id="_Path_36" data-name="&lt;Path&gt;" class="cls-14" d="M41.07,17.07q-.45.3-1,.59L26.15,25.25a3,3,0,0,1-3.43-.35L44,11.63C45.07,13.4,42.83,15.89,41.07,17.07Z"/><g id="_Group_7" data-name="&lt;Group&gt;"><path id="_Path_37" data-name="&lt;Path&gt;" class="cls-12" d="M41.76,16.21l-.32-.52a5.94,5.94,0,0,0,1-1.36h0c0-.09.09-.17.12-.26h0a1.68,1.68,0,0,0,0-1.32l-.08-.15-.07-.09A1.65,1.65,0,0,0,41.26,12H41a6.37,6.37,0,0,0-1.64.26L39,11.75a8.79,8.79,0,0,1,2.06-.55h0l.29,0h0a3.59,3.59,0,0,1,.94,0,1.87,1.87,0,0,1,1.08.7l.08.1.08.14a2.3,2.3,0,0,1-.2,2.19l-.15.25h0A7.54,7.54,0,0,1,41.76,16.21Z"/><path id="_Path_38" data-name="&lt;Path&gt;" class="cls-7" d="M43.54,12.15l-1,.63-.15-.24,1-.63.08.1Z"/><path id="_Path_39" data-name="&lt;Path&gt;" class="cls-7" d="M41.26,12H41l.1-.8.29,0h0Z"/><path id="_Path_40" data-name="&lt;Path&gt;" class="cls-7" d="M43.18,14.58l-.76-.27c0-.09.08-.17.12-.26h0l.8.28Z"/></g></g></g></g></g></svg>