<svg xmlns="http://www.w3.org/2000/svg" width="61.12" height="61.12" viewBox="0 0 61.12 61.12"><defs><style>.cls-1{fill:#d0d6d7;stroke:#6d6e70;stroke-miterlimit:10;stroke-width:2.28px;}.cls-2{opacity:0.1;}.cls-3{fill:#fbc096;}.cls-4{fill:#f7d2b2;}.cls-5{fill:#d98a49;}.cls-6{fill:#da8745;}.cls-7{fill:#e89450;}.cls-8{fill:#ead6c6;}.cls-9{fill:#fff;}.cls-10{fill:#816d62;}.cls-11{fill:#ffdf7d;}.cls-12{fill:#eec748;}.cls-13{fill:#0f2947;}.cls-14{fill:#9c7c2d;}</style></defs><title>icon-activity</title><g id="Layer_2" data-name="Layer 2"><g id="Layer_1-2" data-name="Layer 1"><g id="_Group_" data-name="&lt;Group&gt;"><path id="_Path_" data-name="&lt;Path&gt;" class="cls-1" d="M60,30.56A29.42,29.42,0,0,1,35.22,59.61a29.82,29.82,0,0,1-4.66.37A29.42,29.42,0,1,1,59.93,28.9C60,29.45,60,30,60,30.56Z"/><path id="_Path_2" data-name="&lt;Path&gt;" class="cls-2" d="M60,30.56A29.42,29.42,0,0,1,35.22,59.61c-6.38-6.37-16.32-16.33-31.94-32l12-12,7.27,7.27,2,2a4.39,4.39,0,0,1,5.31.83l.31.31,7.43-1.7-.33-.33,1.64-1.64-.33-.34,7.27-7.27,13,13,1,1C60,29.45,60,30,60,30.56Z"/><g id="_Group_2" data-name="&lt;Group&gt;"><path id="_Path_3" data-name="&lt;Path&gt;" class="cls-3" d="M23.85,25.51l7.91,7.91a4.39,4.39,0,0,0,5.32.83.72.72,0,0,0,.34-.52.7.7,0,0,0-.07-.39.72.72,0,0,0-.14-.2l-7.34-7.35A4.27,4.27,0,0,0,23.85,25.51Z"/><path id="_Path_4" data-name="&lt;Path&gt;" class="cls-4" d="M29.87,26.95l7.27,7.27a.71.71,0,0,0,.28-.49.7.7,0,0,0-.07-.39.72.72,0,0,0-.14-.2l-7.34-7.35a4.27,4.27,0,0,0-6-.28l.64.64A4.38,4.38,0,0,1,29.87,26.95Z"/><rect id="_Path_5" data-name="&lt;Path&gt;" class="cls-5" x="30.94" y="23.2" width="21.21" height="13.22" transform="translate(-8.91 38.11) rotate(-45)"/><path id="_Path_6" data-name="&lt;Path&gt;" class="cls-3" d="M39.36,41a1.54,1.54,0,0,1,0,2.18l-.09.09a1.54,1.54,0,0,1-2.18,0L28.87,35l2.27-2.27Z"/><path id="_Compound_Path_" data-name="&lt;Compound Path&gt;" class="cls-6" d="M38.18,43.77A1.59,1.59,0,0,1,37,43.3L28.8,35l2.34-2.35L39.39,41a1.6,1.6,0,0,1,0,2.26l-.09.09A1.58,1.58,0,0,1,38.18,43.77ZM28.94,35l8.18,8.18a1.49,1.49,0,0,0,2.11,0l.09-.09a1.49,1.49,0,0,0,0-2.11l-8.18-8.18Z"/><path id="_Path_7" data-name="&lt;Path&gt;" class="cls-3" d="M37,43.17a1.54,1.54,0,0,1,0,2.18l-.09.09a1.54,1.54,0,0,1-2.18,0l-8.22-8.22L28.75,35Z"/><path id="_Compound_Path_2" data-name="&lt;Compound Path&gt;" class="cls-6" d="M35.79,45.95a1.59,1.59,0,0,1-1.13-.47l-8.25-8.25,2.34-2.34L37,43.14a1.6,1.6,0,0,1,0,2.25l-.09.09A1.59,1.59,0,0,1,35.79,45.95Zm-9.23-8.72,8.18,8.18a1.49,1.49,0,0,0,2.11,0l.09-.09a1.49,1.49,0,0,0,0-2.11L28.75,35Z"/><path id="_Path_8" data-name="&lt;Path&gt;" class="cls-3" d="M34.72,45.52a1.54,1.54,0,0,1,0,2.18l-.09.09a1.54,1.54,0,0,1-2.18,0l-8.22-8.21,2.27-2.27Z"/><path id="_Compound_Path_3" data-name="&lt;Compound Path&gt;" class="cls-6" d="M33.54,48.3a1.58,1.58,0,0,1-1.13-.47l-8.25-8.25,2.34-2.34,8.25,8.25a1.59,1.59,0,0,1,0,2.25l-.09.09A1.58,1.58,0,0,1,33.54,48.3ZM24.3,39.58l8.18,8.18a1.49,1.49,0,0,0,2.11,0l.09-.09a1.49,1.49,0,0,0,0-2.11L26.5,37.38Z"/><path id="_Path_9" data-name="&lt;Path&gt;" class="cls-3" d="M32.44,47.84a1.54,1.54,0,0,1,0,2.18l-.09.09a1.54,1.54,0,0,1-2.18,0L22,41.9l2.27-2.27Z"/><path id="_Compound_Path_4" data-name="&lt;Compound Path&gt;" class="cls-6" d="M31.26,50.62a1.59,1.59,0,0,1-1.13-.47L21.88,41.9l2.34-2.34,8.25,8.25a1.6,1.6,0,0,1,0,2.25l-.09.09A1.59,1.59,0,0,1,31.26,50.62ZM22,41.9l8.18,8.18a1.49,1.49,0,0,0,2.11,0L32.4,50a1.49,1.49,0,0,0,0-2.11L24.22,39.7Z"/><rect id="_Path_10" data-name="&lt;Path&gt;" class="cls-3" x="12.56" y="19.58" width="13.22" height="21.21" transform="translate(-15.73 22.4) rotate(-45)"/><path id="_Path_11" data-name="&lt;Path&gt;" class="cls-5" d="M36.87,25.13,29,33a4.39,4.39,0,0,1-5.32.83.71.71,0,0,1-.34-.52.73.73,0,0,1,.2-.59l7.35-7.35A4.27,4.27,0,0,1,36.87,25.13Z"/><path id="_Path_12" data-name="&lt;Path&gt;" class="cls-7" d="M24.56,33.93a.7.7,0,0,1,.07-.39.66.66,0,0,1,.14-.2L32.11,26a4.54,4.54,0,0,1,4.27-1.27,4.35,4.35,0,0,0-5.53.69l-7.35,7.35a.71.71,0,0,0,.13,1.11,3.8,3.8,0,0,0,1.11.45A.71.71,0,0,1,24.56,33.93Z"/><path id="_Path_13" data-name="&lt;Path&gt;" class="cls-8" d="M25.54,31.09A1.9,1.9,0,0,1,23.64,33l-.28,0a.71.71,0,0,1,.14-.2l2-2A2,2,0,0,1,25.54,31.09Z"/><g id="_Group_3" data-name="&lt;Group&gt;"><path id="_Path_14" data-name="&lt;Path&gt;" class="cls-5" d="M22.08,44.51c-.88.8-3.07-1.52-2.25-2.25l1.11-1.11a1.54,1.54,0,0,1,2.18,0l.07.07a1.54,1.54,0,0,1,0,2.18Z"/><path id="_Path_15" data-name="&lt;Path&gt;" class="cls-8" d="M22.3,43.6a.34.34,0,0,1-.47,0l-1-1a.34.34,0,0,1,0-.47l.63-.63a1,1,0,0,1,1.38.14l.05,0a1.21,1.21,0,0,1,.36.72.81.81,0,0,1-.22.66Z"/></g><g id="_Group_4" data-name="&lt;Group&gt;"><path id="_Path_16" data-name="&lt;Path&gt;" class="cls-5" d="M29.14,51.56c-.89.8-3.07-1.52-2.25-2.25L28,48.2a1.54,1.54,0,0,1,2.18,0l.07.07a1.54,1.54,0,0,1,0,2.18Z"/><path id="_Path_17" data-name="&lt;Path&gt;" class="cls-8" d="M29.36,50.66a.34.34,0,0,1-.47,0l-1-1a.34.34,0,0,1,0-.47l.63-.63a1,1,0,0,1,1.38.14l0,0a1.21,1.21,0,0,1,.36.72A.81.81,0,0,1,30,50Z"/></g><g id="_Group_5" data-name="&lt;Group&gt;"><path id="_Path_18" data-name="&lt;Path&gt;" class="cls-5" d="M26.79,49.21c-.89.8-3.07-1.52-2.25-2.25l1.11-1.11a1.54,1.54,0,0,1,2.18,0l.07.07a1.54,1.54,0,0,1,0,2.18Z"/><path id="_Path_19" data-name="&lt;Path&gt;" class="cls-8" d="M27,48.31a.34.34,0,0,1-.47,0l-1-1a.34.34,0,0,1,0-.47l.63-.63a1,1,0,0,1,1.38.14l0,0a1.21,1.21,0,0,1,.36.72.81.81,0,0,1-.22.66Z"/></g><g id="_Group_6" data-name="&lt;Group&gt;"><path id="_Path_20" data-name="&lt;Path&gt;" class="cls-5" d="M24.44,46.86c-.89.8-3.07-1.52-2.25-2.25l1.11-1.11a1.54,1.54,0,0,1,2.18,0l.07.07a1.54,1.54,0,0,1,0,2.18Z"/><path id="_Path_21" data-name="&lt;Path&gt;" class="cls-8" d="M24.65,46a.34.34,0,0,1-.47,0l-1-1a.34.34,0,0,1,0-.47l.63-.63a1,1,0,0,1,1.38.14l0,0a1.2,1.2,0,0,1,.36.72.8.8,0,0,1-.22.66Z"/></g><g id="_Group_7" data-name="&lt;Group&gt;"><rect id="_Path_22" data-name="&lt;Path&gt;" class="cls-9" x="40.98" y="18.28" width="10.29" height="14.73" transform="translate(-4.62 40.12) rotate(-45)"/><rect id="_Path_23" data-name="&lt;Path&gt;" class="cls-10" x="43.07" y="15.97" width="10.29" height="16.96" transform="translate(-3.17 41.26) rotate(-45)"/><rect id="_Path_24" data-name="&lt;Path&gt;" class="cls-11" x="48.08" y="27.96" width="2.82" height="2.82"/><polygon id="_Path_25" data-name="&lt;Path&gt;" class="cls-12" points="50.9 30.78 48.08 30.78 50.9 27.96 50.9 30.78"/></g><g id="_Group_8" data-name="&lt;Group&gt;"><rect id="_Path_26" data-name="&lt;Path&gt;" class="cls-9" x="7.64" y="21.35" width="14.73" height="10.29" transform="translate(-14.34 18.37) rotate(-45)"/><rect id="_Path_27" data-name="&lt;Path&gt;" class="cls-13" x="4.43" y="20.16" width="16.96" height="10.29" transform="translate(-14.11 16.54) rotate(-45)"/><rect id="_Path_28" data-name="&lt;Path&gt;" class="cls-11" x="10.22" y="28.81" width="2.82" height="2.82"/><polygon id="_Path_29" data-name="&lt;Path&gt;" class="cls-12" points="13.04 31.63 13.04 28.81 10.22 31.63 13.04 31.63"/></g><path id="_Path_30" data-name="&lt;Path&gt;" class="cls-14" d="M34.62,34.29c-1.17,0-2.22-.79-3.42-2l.29-.29c1.39,1.37,2.27,1.88,3.21,1.86,1.15,0,2.42-1,4.4-3.25l.31.27c-2.06,2.36-3.43,3.34-4.7,3.39Z"/></g></g></g></g></svg>