<svg xmlns="http://www.w3.org/2000/svg" width="62.12" height="62.12" viewBox="0 0 62.12 62.12"><defs><style>.cls-1{fill:#d0d6d7;stroke:#6d6e70;stroke-miterlimit:10;stroke-width:2.28px;}.cls-2{opacity:0.1;}.cls-3{fill:#162a38;}.cls-4{fill:#2a485f;}.cls-5{fill:#fae9b4;}.cls-6{fill:#5e4130;}.cls-7{fill:#f27b74;}.cls-8{fill:#28b898;}.cls-9{fill:#fff;}.cls-10{fill:#f58a1f;}.cls-11{fill:#0f2036;}</style></defs><title>icon-listening</title><g id="Layer_2" data-name="Layer 2"><g id="Layer_1-2" data-name="Layer 1"><g id="_Group_" data-name="&lt;Group&gt;"><circle id="_Path_" data-name="&lt;Path&gt;" class="cls-1" cx="31.06" cy="31.06" r="29.92"/><path id="_Path_2" data-name="&lt;Path&gt;" class="cls-2" d="M44,17.51,16.92,38l4.35,4.68.75,3-3.6.48v.2c0,.26,14.83,14.64,14.83,14.64A29.93,29.93,0,0,0,60.75,34.7S44.25,17.86,44,17.51Z"/><rect id="_Path_3" data-name="&lt;Path&gt;" class="cls-3" x="21.27" y="32.41" width="3.55" height="13.3"/><rect id="_Path_4" data-name="&lt;Path&gt;" class="cls-4" x="18.43" y="44.88" width="14.91" height="1.85" rx="0.47" ry="0.47"/><circle id="_Path_5" data-name="&lt;Path&gt;" class="cls-5" cx="17.8" cy="37.37" r="1.05" transform="translate(-21.64 49.94) rotate(-82.22)"/><path id="_Path_6" data-name="&lt;Path&gt;" class="cls-4" d="M18.54,38.39l-1.52-2a.47.47,0,0,1,.09-.66l11-8.45L30.19,30l-11,8.45A.47.47,0,0,1,18.54,38.39Z"/><circle id="_Path_7" data-name="&lt;Path&gt;" class="cls-5" cx="22.87" cy="33.46" r="0.85"/><circle id="_Path_8" data-name="&lt;Path&gt;" class="cls-6" cx="38.94" cy="21.38" r="6.37" transform="translate(-4.96 28.16) rotate(-37.55)"/><rect id="_Path_9" data-name="&lt;Path&gt;" class="cls-7" x="27.56" y="20.19" width="9.29" height="12.74" rx="0.66" ry="0.66" transform="translate(-9.51 25.13) rotate(-37.55)"/><g id="_Group_2" data-name="&lt;Group&gt;"><path id="_Path_10" data-name="&lt;Path&gt;" class="cls-8" d="M18,6.18H31.34a.66.66,0,0,1,.65.66v7.93a.66.66,0,0,1-.65.66H28.93a.21.21,0,0,0-.21.21v2.25a.06.06,0,0,1-.09,0l-3.38-2.36a.79.79,0,0,0-.45-.14H18a.66.66,0,0,1-.66-.66V6.84A.66.66,0,0,1,18,6.18Z"/><rect id="_Path_11" data-name="&lt;Path&gt;" class="cls-9" x="18.9" y="11.78" width="9.89" height="0.76"/><path id="_Path_12" data-name="&lt;Path&gt;" class="cls-10" d="M12.58,11.75H25.92a.66.66,0,0,1,.65.66v7.93a.66.66,0,0,1-.65.66H23.51a.21.21,0,0,0-.21.21v2.25a.06.06,0,0,1-.09,0l-3.38-2.36a.79.79,0,0,0-.45-.14h-6.8a.66.66,0,0,1-.66-.66V12.4A.66.66,0,0,1,12.58,11.75Z"/><rect id="_Path_13" data-name="&lt;Path&gt;" class="cls-9" x="18.9" y="9.87" width="9.89" height="0.76"/><rect id="_Path_14" data-name="&lt;Path&gt;" class="cls-9" x="18.9" y="7.95" width="9.89" height="0.76"/><path id="_Path_15" data-name="&lt;Path&gt;" class="cls-11" d="M22.35,4.2H35.22a.64.64,0,0,1,.63.66v7.93a.64.64,0,0,1-.63.66H32.89a.21.21,0,0,0-.2.21V15.9a.06.06,0,0,1,0,.05.05.05,0,0,1-.06,0l-3.26-2.36a.74.74,0,0,0-.44-.14H22.35a.64.64,0,0,1-.63-.66V4.85A.64.64,0,0,1,22.35,4.2Z"/><rect id="_Path_16" data-name="&lt;Path&gt;" class="cls-9" x="24.25" y="6.6" width="9.89" height="0.76"/><rect id="_Path_17" data-name="&lt;Path&gt;" class="cls-9" x="24.25" y="8.29" width="9.89" height="0.76"/><rect id="_Path_18" data-name="&lt;Path&gt;" class="cls-9" x="26.54" y="9.98" width="7.6" height="0.76"/><rect id="_Path_19" data-name="&lt;Path&gt;" class="cls-9" x="14.41" y="14.31" width="9.89" height="0.76"/><rect id="_Path_20" data-name="&lt;Path&gt;" class="cls-9" x="14.41" y="16" width="9.89" height="0.76"/><rect id="_Path_21" data-name="&lt;Path&gt;" class="cls-9" x="16.7" y="17.69" width="7.6" height="0.76"/></g></g></g></g></svg>